/* XPM */
static char *b2eebf8a2ea1491b9130ce5596608301I0oZBGRjIxnCuTDu[] = {
/* columns rows colors chars-per-pixel */
"64 64 238 2 ",
"   c #010001",
".  c #0A0306",
"X  c #050609",
"o  c #0C0409",
"O  c #050A0C",
"+  c #0A0E0F",
"@  c #14050D",
"#  c #17060E",
"$  c #070E13",
"%  c #0B0E11",
"&  c #1B0711",
"*  c #150B13",
"=  c #1B0A15",
"-  c #1D0914",
";  c #0C1213",
":  c #0A151B",
">  c #121514",
",  c #18161B",
"<  c #121B1C",
"1  c #240B19",
"2  c #250D1C",
"3  c #24151D",
"4  c #361F1E",
"5  c #0C1523",
"6  c #0C1C23",
"7  c #171924",
"8  c #151C2B",
"9  c #1A1F32",
"0  c #2E0F21",
"q  c #251423",
"w  c #2B1223",
"e  c #29192B",
"r  c #321125",
"t  c #3B152C",
"y  c #331B2C",
"u  c #3A1A2B",
"i  c #291E33",
"p  c #3A1C31",
"a  c #0D2027",
"s  c #0E222B",
"d  c #172324",
"f  c #182425",
"g  c #16252C",
"h  c #1B2A2A",
"j  c #0D2536",
"k  c #0D2739",
"l  c #0E2A3D",
"z  c #132432",
"x  c #1A2236",
"c  c #122B35",
"v  c #1B263C",
"b  c #132E3A",
"n  c #1B2A39",
"m  c #15323D",
"M  c #1C333C",
"N  c #272529",
"B  c #39292C",
"V  c #27322F",
"C  c #262738",
"Z  c #2E2A39",
"A  c #342232",
"S  c #332B3C",
"D  c #392838",
"F  c #223334",
"G  c #263B3C",
"H  c #28383A",
"J  c #353238",
"K  c #42182F",
"L  c #461A31",
"P  c #4A1A32",
"I  c #521D33",
"U  c #4F2C2E",
"Y  c #462737",
"T  c #4B2434",
"R  c #572837",
"E  c #47373B",
"W  c #67352F",
"Q  c #652B37",
"!  c #67373C",
"~  c #79383B",
"^  c #30403D",
"/  c #0F2D42",
"(  c #102F45",
")  c #1A2A43",
"_  c #163542",
"`  c #193645",
"'  c #173846",
"]  c #1A3946",
"[  c #1A3D4C",
"{  c #262C42",
"}  c #372D43",
"|  c #2C3144",
" . c #213B42",
".. c #293847",
"X. c #353343",
"o. c #3B3543",
"O. c #373749",
"+. c #343A4C",
"@. c #2D3952",
"#. c #373D52",
"$. c #542F44",
"%. c #463A47",
"&. c #593C47",
"*. c #453E55",
"=. c #683946",
"-. c #753E42",
";. c #1B404F",
":. c #1B4151",
">. c #2C4344",
",. c #23434D",
"<. c #2D4649",
"1. c #2E484B",
"2. c #374349",
"3. c #314B4D",
"4. c #224553",
"5. c #254A56",
"6. c #2A4B53",
"7. c #294B57",
"8. c #394457",
"9. c #344F51",
"0. c #3D455A",
"q. c #2D525B",
"w. c #365254",
"e. c #3A5456",
"r. c #33565C",
"t. c #395659",
"y. c #36595E",
"u. c #3B5B5D",
"i. c #3B4B64",
"p. c #365A60",
"a. c #3C5E61",
"s. c #3F6163",
"d. c #49424C",
"f. c #53434D",
"g. c #584349",
"h. c #484756",
"j. c #534955",
"k. c #5C4A53",
"l. c #5B4E5A",
"z. c #495558",
"x. c #545357",
"c. c #5C515C",
"v. c #6C464D",
"b. c #78464A",
"n. c #634D54",
"m. c #684A56",
"M. c #794952",
"N. c #665158",
"B. c #6B555C",
"V. c #76565A",
"C. c #48625F",
"Z. c #464D64",
"A. c #574D65",
"S. c #485A64",
"D. c #595666",
"F. c #515E75",
"G. c #675A67",
"H. c #775C64",
"J. c #705C73",
"K. c #426566",
"L. c #4A6869",
"P. c #59676A",
"I. c #596679",
"U. c #577776",
"Y. c #68616E",
"T. c #796368",
"R. c #656777",
"E. c #776A76",
"W. c #657475",
"Q. c #7C717D",
"!. c #823C3E",
"~. c #88423E",
"^. c #8A4645",
"/. c #984A44",
"(. c #9B544D",
"). c #885B5B",
"_. c #A9554A",
"`. c #88645F",
"'. c #98635D",
"]. c #895E61",
"[. c #886768",
"{. c #986865",
"}. c #946D6B",
"|. c #9B6E6B",
" X c #9B726E",
".X c #866C71",
"XX c #976D76",
"oX c #8A7379",
"OX c #967677",
"+X c #A46D63",
"@X c #B46E68",
"#X c #A67269",
"$X c #A27671",
"%X c #A77A76",
"&X c #5F807D",
"*X c #66827E",
"=X c #A7827E",
"-X c #5E6A83",
";X c #646C83",
":X c #6C6D86",
">X c #6D6F88",
",X c #716E85",
"<X c #6C748A",
"1X c #727189",
"2X c #7B7789",
"3X c #826E84",
"4X c #87798A",
"5X c #967D83",
"6X c #877C90",
"7X c #A17E86",
"8X c #698985",
"9X c #72948D",
"0X c #7787A0",
"qX c #9B8489",
"wX c #938795",
"eX c #A98788",
"rX c #AC8C8E",
"tX c #AC959A",
"yX c #B69799",
"uX c #888BA0",
"iX c #9593A2",
"pX c #9B95A4",
"aX c #9E98A7",
"sX c #A59BA7",
"dX c #A49DAB",
"fX c #BC9EA1",
"gX c #A9A1AD",
"hX c #B9A4AA",
"jX c #A9A4B2",
"kX c #B4AAB6",
"lX c #BAB2BF",
"zX c #C1A7AC",
"xX c #C5ADB2",
"cX c #C3B4BD",
"vX c #A1A9C0",
"bX c #C6B9C2",
"nX c #D3C6CD",
"mX c white",
/* pixels */
":.:.:.:.:.:.:.p.s.s.s.s.s.s.s.s.K.K.K.K.L.K.K.K.K.K.K.K.K.K.K.K.K.K.L.s.:.:.:.:.:.:.:.:.:.:.:.:.:.:.:.:.:.:.:.:.:.:.:.:.:.:.:.:.",
":.:.:.:.:.:.:.p.L.s.s.s.U.s.U.s.K.K.K.K.K.K.K.K.K.K.K.K.L.K.K.K.K.K.K.K.q.:.:.:.:.:.:.[ [ :.:.:.:.:.:.:.5.p.p.5.:.:.:.:.:.:.:.:.",
":.:.:.:.:.:.:.q.s.s.s.:.s.s.s.s.K.K.K.s.K.z.K.K.K.K.K.K.K.K.K.K.K.K.K.s.y.:.:.:.:.:.:.' ( :.:.:.:.:.:.q.K.5.:.K.s.:.:.:.5.K.5.:.",
":.:.:.:.p.5.:.5.s.L.s.5.s.:.5.s.K.K.h.f.f.f.f.f.f.j.K.L.K.K.K.K.K.K.K.K.q.:.:.:.( ( :.[ [ q.s.:.:.:.:.s.K.5.:.K.K.p.:.:.K.K.p.:.",
":.:.:.:.K.K.:.p.s.s.s.:.K.5.:.K.z.f.f.l.B.f.k.x.k.k.B.k.x.z.a.[ U.s.s.s.:.:.:.:./ ( :.:.:.s.K.:.:.:.q.s.s.q.5.K.K.K.:.:.K.K.5.:.",
":.:.:.:.K.K.:.s.L.L.s.:.K.s.s.a.f.f.iXgXjXiXjXoXN.k..XB.N.N.x.,.s.s.L.s.:.:.:.:._ / :.:.:.:.7.:.:.:.p.s.s.s.K.K.K.K.:.:.p.K.:.:.",
":.:.:.:.K.K.7.s.s.s.s.s.K.s.s.*.d.iXjXjXpXiXkXjXoXB.gXwX.XV.B.N.L.s.s.L.:.:.:.:.:.:.:.:.:.:.:.:.:.:.5.s.s.K.K.K.K.p.p.p.:.:.:.:.",
":.:.q.:.K.K.p.K.s.U.L.L.K.S.j.j.Q.iXiXjXiXpXaXkXB.dXlXgXOXT.[.T.J.L.L.s.:.:.:.:.:.:.s.p.:.:.:.:.:.q.q.s.K.K.K.K.K.5.K.K.:.:.:.:.",
"5.s.s.5.:.s.U.s.s.s.8X9X8Xa.h.&.jXlXpXiXpXaXjXgXT.sXkXkXqXOX}.[.T.T.K.w.:.:.:.,.[ [ K.K.:.:.s.:.:.K.K.K.K.K.K.K.K.K.K.K.5.:.:.:.",
":.p.s.s.5.s.s.s.s.s.9X9Xp.p.f.j.iXaXdXpXaXaXgXkX`.[.5XOX XrX XXX[.T.Y.4.:.2.g.g.6.K.s.S.7.K.K.:.:.K.K.K.L.K.K.K.K.K.K.K.K.K.p.5.",
"s.s.s.s.s.s.s.s.U.s.9X9XK.j.f.j.jXiXpXaXjXjXgXhX[.[.}. X X%X X X}.[.k.6.%.g.g.f.o.K.K.q.s.K.K.:.:.K.8XK.K.K.K.K.K.K.K.K.K.:.p.K.",
"K.K.U.s.s.s.s.s.s.s.9X9XK.h.&.n.N.aXaXdXjXlXkX[.}.}. X XOX%XXX}.XXV.V.8 G.l.S X.Z O.L.s.K.K.K.s.s.8X9XK.K.K.K.K.K.K.K.K.K.:.:.K.",
"K.K.K.K.s.L.s.9X9XK.9X9X9Xf.f.l.T.qXkXjXgXgX5XOX}. X$X$XH.#X$X]. XV.H.X E.%.S Z X.D.Y.S.K.K.8X9XK.9X9XU.W.L.K.K.K.K.K.K.K.:.:.K.",
"K.K.K.K.s.L.s.9X9XL.L.U.9Xf.f.f.k.E.qXqX}.}.}.%X X$X$X%X[.].{.{.&.[.[.O Z.l.Z X.Y.Y.D.o.e.s.U.9X-X8X8Xj.l.G.a.K.K.K.K.K.K.5.q.K.",
"K.K.K.K.s.s.L.K.9XL.s.K.U.h.f.f.B.OXB.eXOX}. X X#X[.[.#X|.V.M.).&.).).* 8 S.[ c.j.S i %.e.K.L.9XA.2 C g.k.j.} f.i.K.K.K.K.p.p.K.",
"K.K.K.K.L.s.s.K.s.s.s.s.T ^.b.g.j.T.qX[.[. X[.$X%X X{.[.].$.7 =.-.M.V.%.x S.[ [ *.e 2 } a.a.h.G.- e 3 d.D.j.Z +.h.h.K.K.K.K.K.K.",
"K.K.K.K.K.K.K.K.K.s.n.T.T T 3X!./.M.H.OX[. X X%X%X+X].i =.=.e R P D M.V.v I.9.w ;X<X- %.L.2.J.q 7 ,X0 A G.o.J o.O.g.x.K.K.K.K.K.",
"K.K.K.K.K.K.s.K.6.n.k.N.$.4X1Xp t I /.(.'.}.$X$Xm.[.).Y w $.R R R e =.&.h.h.I.y ;X:X2 =.P.G.*.@ <X1X2 S K.S o.c.G.D.{ y.K.K.K.K.",
"K.K.K.K.:.:.s.5.eXOXn.n.R r } - # 1 1 P I _.{.$Xm.v.M.=.p y R L p T =.D G.Y.R.3 :X;Xp B.J.h.X . <XC 2 R.U.r./ f.D.8 8 { ..a.K.K.",
"K.K.K.K.:.:.s.:.=XN.V.k.$.Q t K r 1 # & r R _.{.$X].=.Y R =.R w 1 l.m.D { 8.E.1   . T E.j.o   * w 2 G.8Xa.t.( f.x 8 8 x @.q.K.L.",
"s.K.s.s.5.:.p.oX=XiXOXk.f.v.! L K 0 . o & # Q _.{.].=.p y V.H.= $ } 3X%.| 8.,X@   o y D.@ X # 0 2 N.W.>.G F g %.8 8 x ) 0.1.K.K.",
"K.K.K.s.p.:.r.#XtXlXqXx.3.M m qXQ K 1 . . # & I '.].=.=.R P $.7 h.: 9 9 +.h.1X1   . A.@.. o q 2 =.D.d d d < , 6 8 9 v v { q.K.K.",
"K.s.s.C.u.u.u.=XcXbX[.T.M m b P.2XR r 1 . . # 1 ^.].].=.$.$.L , +.O.9 #.Y.j.1X@   9 #..   w 2 p k.S H N 3 3 , > < 9 8 z < W.a.K.",
"s.s.s.s.u.u.e.zXfX=X|.$Xb b c c H 5X%Xt & . . 0 Q &.H.H.$.r 7 8 8 C O.A.4XD.1X@ . @     - w r &.S E U U p L N 1 % ; ; < < R.e.K.",
"s.s.s.u.l ,.t.qXrXfXeX+Xc c j g s n 4X+XQ t Q ~.~.9 9 Z { 9 { D.O.#.l.Y.Q.Q.Y.i.@..   . w w U U P 2 # & 2 2 2 2 X.C ; < h W.K.K.",
"s.u.<.] l 1.w.n.N.5XcX Xc c s s 6 6 C g./.!.~ Q I | | x 7 5 v l.E.G.E.3XwX4XG.8 +.k : 2 y r 1 - 1 ) ;X;X#.} i e o.d.N.V W.L.K.K.",
"s.t.l l j w.E.B.n.N.yXOXj s s a 6 B !._./.t t I P 8       : i.D.R.aXlXkXQ.Z.p R ! ! @ # @ @ o     o A.C Z.A.h.o.S d.G.2XU.K.K.K.",
"u.u.,.l m 9.=XcXwXk.c.s s s a f !.!./.OX*.# & t Q       9 @.5 9 i i j.6XG.Y 2X6XA e b.# .       o q A.A.} <.L.f.l.o.f.f.t.s.K.K.",
"u.u.t.w.w.9.#XcXwXB.k.s s a g ~ !.Q 1X,X:X# & 2 K K       . #.2X6X3X6X3XG.6X6X6Xp e q =.o @ @ p G.T.%.F G >.N.B.c.%.o.6.[ s.K.K.",
"u.u.e.e.9.3.#XjXaXT.eXg a a : `.R K t e & # # @ r R       X 2XwX6X6X6X6X6X7X=.$.t i , y Y 2 y %.* % $ : < N E.X.l.A.G.] [ s.4.K.",
"u.t.e.9.3...%XqXqXT.yX> $ O [.V..Xm.P P t @ . @ 1 P %     X 2X6X6XI I ^./.-.-.3X&.Y * q =.2 = i A % O $ ; : l.h.D.D.z.] [ u.[ s.",
"u.t.w.9.3.H h.}.eXH.yX+ O O #XgXm.H.Q t P 1 @ @ & P *     . 6X6X$.=.{.XX{.).{.7X}     : ) &.* @ q l.G.$ g.j.Z Z S G 1.t.u.4.;.K.",
"t.t.9...| S X.B. X'.qXO o > eXiXT.V.V.z.XXR 1 @ 3 P 2       :XE.K $.5X      @.G.F.mXmX  5 I.@.# * = J.H.&.J %.%.%.c m ,.1.4.4.4.",
"[ 1.8.#...| | | f.V.P.O O B yXiXOX`.Y.$ K @X!.t R Q 1       , A L t mXmX      ..C         0Xi.  o * 1 J.2Xj.l.j.J s _ ' [ [ [ ;.",
"' _ 8.8.0.+.| | H R.E O O B rXV.=X+X=XO X ! /.~ ~.Q &         y p p F.-X      ) C j   X -XaXZ.  X ;X:Xw A.2Xl.h.5 z _ ' [ ] [ :.",
"' _ ..0.0.8.| | ;XS.O O O J cXzXxX=XqXX O + 4 !.!.P P $.o       7 2         @.9 * } D.uX2XR Y.=   { 1XA.A.9 8 9 6 c _ _ l l / :.",
"' _ _ ..h.8.z.I.f O O X O O kXbXyXhXY.O O O U !.0 & 0 P K                 i.<X7 A Y A q b.[.E.u 2 o 7 2 A.C 8 8.F.) k _ l l / ;.",
"' _ _ m C.^ 5 f ; $ O O O O dXdXk.wX< O X 4 !.r @ @ # K Q .           ) F.jXi q 1 Y - 1X& P.N J w 2 - & A.@.z 9 x I.k k l l / / ",
"' ' ' <.P.C.H ^ s s 6 6 : V hXB.V.tXN X % /.1X:X| 1 & t P t 2 O o q p E D R i 1X- ^.} ,XD.N > V J C 2 1 Z.@.x 9 v -Xj k l l / / ",
"[ ] 1.1.C.3.w.e.c s s a a %.oXT.`.fXB O W Q ,X;X@ r R T ,X1 K ! B b.b.^.(.^.:XA.i E 1X1 & O + > V S S Z h.i.9 v I.F.k l l / / _ ",
"' 1.w.9.3.3.>.G b z z c C | | | d.wXN ; !.t 1 1 0 R /.4X:Xo 1 ~ U ! y % T.V ,X& q + :X1 + + ; > E %.S C H z.s S.0.j j k l / / :.",
";.y.w.9.3.3.3.M b @.| | | | | | | U.O O P K r r E.B ~.=.Z.o 4 U $ 2.z.j.z.+ ,X1 1 O 1 & + + > N g.o.d.%.D.h.h >.3.l k k l l / ;.",
",.t.w.9.3.3.1.b ..0.8...| | | | +.I.O O H.&.I P !.x.#XW @ # Q U + O X X + + C = * + + + > > , E l.f.l.%.Q.s h 1.>.j j l l l [ :.",
"[ t.t.w.m  . .b ..0.h.8.| | | | ;XO + +XH.n.&.O > + .XU P t ~ 3 + + + % + + O + ; ; + + > < , k.j.c.l.g.W.h >.G m _ m _ l / ' :.",
";.1.u.w._ m m m M 0.0.Z.+.| S.W.> O E zXlXk.`.+ + + + + n.n.^.+ + + + + + ; $ : d d f > > < ; h.G.Y.G.k.P.>.M m m _ ' ' _ / [ [ ",
";.;.;.,.' m m b c c ..R.I.F.D.+ + O '.yXiXV.+X% + + + g.n.n.V.d + + + + > d d f d d f < + + > Z X.h.c.R.>.>. .m m _ ' 6.[ / [ :.",
";._ _ ' _ _ m m m c : O + O + ; + ; +X.Xk.H.#X> + + +  Xn.T.=XE + + + O d f f f d d d < ; + J %.J J F e.>.>. .m _ ' ,.u.:.[ :.:.",
";.;.;._ ;._ m m m m g : ; > > : ; > xXhXOX5XrX% + + d #Xg.=X}.V.+ + + O : h a : f d d < N c.j.c.f.g.G >.<.3. ._ _ ' w.a.:.[ :.:.",
";.;.' ' ' ' _ m m m b M F h h h 6 s cXnXyXyXxX; ; ; B #XQ.=XH.).+ + + ; < h : d f f d : 8 h.c.l.k.E >.3.3.3.] m ] ] ,.s.,.;.;.:.",
";.' ;.;.[ ' _ _ _ m m 1.<.>.^ >.z z 2.pXE.k.E + + + N fXcXrXeX X+ + + d F M F G G f h ; 8 8 X.X.{ +.>.3.3.1.` ` ' [ [ [ ;.;.:.:.",
";.;.;.' [ ' ' _ _ _ ,.3.1.<.1.>.M F [.pXE.N.> + + + f yXsXzXxXyX+ + ; h G M F G ^ M f 7 8 8 8 8 8 F.S.3.9.[ ' ' *X,.[ ;.4.:.[ :.",
";.;.;.;.[ [ ' ' w.w.w.9.3.3.1.<.<.V #XpXk.T.'.+ + + N tX=XtX.X+ + + d F G H G G ^ G h F 8 7 8 8 v k I.w.1.` ' w.8X8X;.;.s.s.:.:.",
";.;.;.[ [ [ [ [ u.w.e.9.9.9.3.3.>.%.$XOX5XtX X+ + ; f B B.N.k.< > ; h G G >.>.>.>.>.G 3.7 8 8 x x v I.1.[ ` ' [ 8X8Xs.s.K.K.:.:.",
";.;.:.[ ;.s.y.[ u.u.u.w.w.9.3.3.| ..| #.oXdXOX+ : d < E T.[.f. X> ; F G ^ >.>.>.>.>.>.^ L.+.x v ) I.I.[ [ ] [ r.9X9Xs.K.K.5.:.:.",
";.;.:.;.s.s.s.s.u.u.u.u.t.e.w.2.Z | | | ..F.Z.< f f H hXbX=Xj.yX< d F >.>.2.>.1.1.1.3.1.3.W.U.I.I.-X..] ] [ [ a.L.&XK.K.K.K.:.:.",
":.:.;.:.:.s.s.s.s.s.u.u.u.t.t.3.8.| | | | -Xd d h >.1.d.pX=XT.wX>.d M >.1.1.3.1.3.3.3.m ] w.z.u.t.w.t.] [ [ [ a.K.K.K.K.K.K.5.:.",
":.:.:.:.:.y.K.K.s.s.s.s.u.u.u.] +.| #.| I.P.h H 9.9.3.| | O.8.R.z.h >.3.3.3.3.9.9.9.9.m ,.t.t.w.:.u.y.;.;.:.:.s.7.;.K.K.K.K.:.:.",
":.:.:.:.;.;.4.s.s.s.s.s.s.u.u.]  ...:XP.P.H w.w.9.9.3.| | | | ;X| >.3.3.9.9.9.1._ w.w.w.t.u.u.,.;.;.:.[ ;.:.:.s.;.;.K.K.K.K.:.:.",
":.:.:.:.:.:.5.K.K.C.s.s.s.s.s.u.;.t.e.w.e.u.t.u.e.e.9.Z.#.+.<X;X..1.e.e.9.w.w.;.' t.t.u.t.u.s.,.;.;.[ ;.;.:.:.s.;.:.L.K.L.s.:.:.",
":.:.:.:.:.:.q.K.K.K.K.K.C.K.s.K.s.a.s.u.u.u.u.u.u.u.y.W.<X<X<X>.9.u.t.t.u.u.u.e.] [ y.6.,.u.s.;.;.;.;.;.:.:.:.:.:.5.K.K.s.7.:.:.",
":.:.:.:.:.:.q.K.K.K.K.K.K.K.K.K.K.s.K.s.s.s.s.s.a.a.a.a.s.s.u.s.u.s.u.s.u.u.u.y.[ [ ;.[ ;.:.s.q.;.;.;.;.:.:.:.:.:.5.p.r.:.:.:.:.",
":.:.:.:.:.:.q.K.K.K.K.K.K.K.K.K.K.K.K.K.K.K.K.K.K.K.s.S.s.s.s.K.s.K.s.s.K.6.4.:.:.;.;.:.:.;.5.:.;.;.;.;.:.:.:.:.:.:.:.:.:.:.:.:.",
":.:.:.:.:.:.q.K.K.K.K.K.K.K.K.K.K.K.K.K.K.K.K.K.K.K.K.K.K.K.K.K.K.K.K.K.y.:.;.;.:.:.:.:.:.:.:.:.:.:.:.:.:.:.:.:.:.:.:.:.:.:.:.:.",
":.:.:.:.:.:.5.K.K.K.K.K.K.K.K.K.K.K.K.K.K.K.K.K.K.K.K.K.K.L.K.K.K.K.K.K.:.:.:.:.:.:.:.:.:.:.:.:.:.:.:.:.:.:.:.:.:.:.:.:.:.:.:.:."
};
