/* XPM */
static char *_c6ece0e957e417ac033ac7f23f408c2wd70DJ3UL6MLSveR[] = {
/* columns rows colors chars-per-pixel */
"64 64 236 2 ",
"   c #000000",
".  c #090A09",
"X  c #140E06",
"o  c #1A1203",
"O  c #19140D",
"+  c #0C0E14",
"@  c #09151C",
"#  c #151514",
"$  c #131D1E",
"%  c #241600",
"&  c #231807",
"*  c #2C1D02",
"=  c #352201",
"-  c #3A2602",
";  c #3E2E01",
":  c #37260A",
">  c #3E3105",
",  c #3E340C",
"<  c #332719",
"1  c #3E3917",
"2  c #0E162C",
"3  c #0D1B29",
"4  c #141522",
"5  c #161B24",
"6  c #1C1A21",
"7  c #0A1733",
"8  c #0E1C37",
"9  c #161E36",
"0  c #231E21",
"q  c #0F232C",
"w  c #162223",
"e  c #192526",
"r  c #1B2728",
"t  c #1C2B2B",
"y  c #0E2738",
"u  c #172C33",
"i  c #132A34",
"p  c #1A3138",
"a  c #2C2421",
"s  c #24282A",
"d  c #352A21",
"f  c #322824",
"g  c #3B2E21",
"h  c #3E3022",
"j  c #393529",
"k  c #232433",
"l  c #2A2830",
"z  c #223435",
"x  c #293735",
"c  c #263A3B",
"v  c #283D3E",
"b  c #333138",
"n  c #412E05",
"m  c #443407",
"M  c #503B09",
"N  c #483914",
"B  c #533B14",
"V  c #603C12",
"C  c #433322",
"Z  c #453626",
"A  c #4E3C21",
"S  c #513E21",
"D  c #51382F",
"F  c #4D3832",
"G  c #3F4329",
"H  c #3B4536",
"J  c #584616",
"K  c #514121",
"L  c #5B4B2B",
"P  c #4C4E34",
"I  c #54453A",
"U  c #684B29",
"Y  c #6A5427",
"T  c #6B5A2A",
"R  c #665934",
"E  c #725239",
"W  c #0F2D43",
"Q  c #102F45",
"!  c #133245",
"~  c #193846",
"^  c #143449",
"/  c #17394C",
"(  c #193D4D",
")  c #2B2E41",
"_  c #2A3C41",
"`  c #373645",
"'  c #493C40",
"]  c #1A404F",
"[  c #1B4151",
"{  c #2C4344",
"}  c #2C464A",
"|  c #354746",
" . c #324B4C",
".. c #3E534E",
"X. c #214654",
"o. c #254A56",
"O. c #2B4B53",
"+. c #274C58",
"@. c #2A4E59",
"#. c #334F51",
"$. c #2D525B",
"%. c #365253",
"&. c #3A5553",
"*. c #3C5856",
"=. c #32565E",
"-. c #395758",
";. c #35595F",
":. c #3B5B5D",
">. c #365A60",
",. c #3A5E62",
"<. c #3E6164",
"1. c #554747",
"2. c #455447",
"3. c #525949",
"4. c #4B4753",
"5. c #425B57",
"6. c #6F554F",
"7. c #69594A",
"8. c #7A5B49",
"9. c #6A5B56",
"0. c #5C674D",
"q. c #496259",
"w. c #576854",
"e. c #7A7648",
"r. c #6F6A52",
"t. c #757A52",
"y. c #4E5168",
"u. c #49516E",
"i. c #675A63",
"p. c #426567",
"a. c #4B6A66",
"s. c #46696B",
"d. c #496C6D",
"f. c #566F6B",
"g. c #527574",
"h. c #597C7A",
"j. c #7C6B66",
"k. c #72736F",
"l. c #875728",
"z. c #9A6738",
"x. c #A9743C",
"c. c #855C42",
"v. c #88714E",
"b. c #857948",
"n. c #956957",
"m. c #AB765D",
"M. c #B77C56",
"N. c #8A6D65",
"B. c #8C7E67",
"V. c #86726B",
"C. c #94736F",
"Z. c #9D776D",
"A. c #877676",
"S. c #977973",
"D. c #92797B",
"F. c #A67663",
"G. c #B17F67",
"H. c #7D8157",
"J. c #778766",
"K. c #F58B00",
"L. c #FF9900",
"P. c #FEA500",
"I. c #FCB702",
"U. c #FECB00",
"Y. c #FEDA01",
"T. c #FFEA01",
"R. c #FFF103",
"E. c #898551",
"W. c #978859",
"Q. c #99965D",
"!. c #BE825E",
"~. c #8C9265",
"^. c #979B66",
"/. c #AF8A6B",
"(. c #A99673",
"). c #A3A166",
"_. c #C78557",
"`. c #D78B53",
"'. c #DF9357",
"]. c #E3984F",
"[. c #E79553",
"{. c #EE9F51",
"}. c #CD9971",
"|. c #DAA462",
" X c #F1B27A",
".X c #FFFF7A",
"XX c #7E7784",
"oX c #847986",
"OX c #8D7B83",
"+X c #887C8A",
"@X c #678985",
"#X c #6F918B",
"$X c #73958E",
"%X c #908592",
"&X c #B39685",
"*X c #9C9BA9",
"=X c #BDB2A1",
"-X c #CFAD91",
";X c #D9AE93",
":X c #EBB48D",
">X c #FBBD87",
",X c #E9B694",
"<X c #EEB992",
"1X c #F1BB93",
"2X c #F1BE99",
"3X c #CAB1AB",
"4X c #DBB7A6",
"5X c #FEC58B",
"6X c #FFCB8E",
"7X c #FFD38E",
"8X c #E7CB94",
"9X c #FCC794",
"0X c #FFD594",
"qX c #FFFF94",
"wX c #D7C5AC",
"eX c #EACAAC",
"rX c #F8CCAA",
"tX c #FFD7A6",
"yX c #FED3AD",
"uX c #ECC9B7",
"iX c #E6C7B8",
"pX c #F3CDB4",
"aX c #FDD4B3",
"sX c #FFDBB3",
"dX c #FFE9A7",
"fX c #FFE2B3",
"gX c #FEEFB0",
"hX c #FFF3B3",
"jX c #D8D0D2",
"kX c #FFEBC6",
"lX c #FFFBDB",
"zX c #E2DFE2",
"xX c #FFF4E1",
"cX c #FFFFE1",
"vX c #FFFFEF",
"bX c #F3F1F0",
/* pixels */
"[ [ [ [ [ [ [ >.p.p.p.p.p.p.p.p.p.p.p.p.p.p.p.p.p.p.p.p.p.p.p.p.p.p.p.p.[ [ [ [ ( [ [ [ [ [ [ [ [ [ [ [ [ [ [ [ [ [ [ [ [ [ [ [ ",
"[ [ [ [ [ [ [ ;.p.p.p.p.p.p.p.p.p.p.p.p.p.p.p.p.p.p.p.p.p.,.p.p.p.p.p.p.@.[ [ [ [ [ [ ( ( [ [ [ [ [ [ [ [ >.>.$.[ [ [ [ [ [ [ [ ",
"[ [ [ [ [ [ [ +.p.p.<.[ p.p.p.p.p.p.p.p.p.p.p.p.p.p.$                   =.[ [ [ [ [ [ ^ ^ [ [ [ [ [ [ +.<.o.[ p.<.[ [ [ +.p.[ [ ",
"[ [ [ [ >.+.[ o.p.p.<.[ <.[ [ p.p.p.p.g.$Xd.$Xp.<.                        [ [ [ Q Q [ ( ( @.p.[ [ [ [ p.p.o.[ p.p.>.[ [ <.p.,.[ ",
"[ [ [ [ p.p.[ ;.p.p.<.[ <.[ [ p.p.p.p.@X$X$X$X .                            [ [ Q Q [ [ [ <.p.[ [ [ o.<.p.+.[ p.<.<.[ [ p.p.+.[ ",
"[ [ [ [ p.p.[ <.p.s.<.[ p.<.<.p.p.p.p.s.$X$Xz                               . @ y Q ( [ [ [ o.[ [ [ $.p.p.p.p.p.s.<.[ [ >.p.[ [ ",
"[ [ [ [ p.p.+.<.p.p.p.p.p.p.p.p.p.p.p.p.g.$                                               + [ [ [ [ o.p.p.p.p.p.<.<.>.,.[ [ [ [ ",
"[ [ $.[ p.p.;.p.p.p.p.d.p.p.p.p.p.p.<.                                                        ( [ $.=.<.p.p.p.p.<.+.p.<.[ [ [ [ ",
"[ p.s.[ [ ,.p.p.p.p.g.$X@X<.p.p.p.:.                                                            ( p.p.p.p.p.p.p.<.s.p.p.o.[ [ [ ",
"[ $.<.p.o.<.p.p.p.p.$X$X<.<.p.p.p.                                                              3 p.p.p.p.p.p.p.<.s.p.p.p.<.=.+.",
"<.s.p.p.<.p.p.p.p.p.$X$Xp.p.p.p.p.                                                                p.@Xp.p.p.p.p.s.<.p.<.p.[ ,.<.",
"s.<.p.p.p.p.p.<.p.p.$X$Xp.p.p.s.%.            .             . ` D.                                @X$Xp.p.p.p.p.<.s.p.s.s.[ [ p.",
"p.p.p.p.p.p.p.#X$Xp.$X#X$X$Xp.p.                              S.Z.Z.        f F                 { $X$Xg.@Xs.p.p.p.p.p.p.p.[ [ p.",
"p.p.p.p.p.p.p.@X$Xd.d.h.$X@X<..                             V.S.F.F.c.c.6.m.m.m.G.  .           h.#X@X#X$Xp.p.p.p.p.p.p.p.o.+.p.",
"p.p.p.p.p.p.p.p.$Xd.p.s.h.p.p.                y.      5     Z.Z.F.;X;X-X;X}.M.!.M.X . . . .     g.p.p.d.p.p.p.p.p.p.p.p.p.,.>.<.",
"p.p.p.p.p.p.p.p.p.p.p.p.<.p.p.                +X      C.    G.4X4X4X;X;X:X:X:X,X_.c.X O O X + . s @Xp.p.p.p.p.p.<.( <.p.p.p.p.p.",
"p.p.p.p.s.p.p.p.s.<.s.p.p.s.p.                OXi.    S.6.3XiXiXuXuXpXrX2X,X<X<X2X!.o O # # # # # g.p.p.p.p.p.p.Q Q p.p.p.p.p.p.",
"p.p.p.p.p.p.p.p.+.<.<.p.p.<.p.,.              OXOX    F.F.3XiXuXpXpXpXpXpXrX<X<X<X!.o o & # # # e p.p.p.p.,.Q >.! Q p.p.p.p.p.p.",
"p.p.p.p.[ [ p.o.[ <.<.s.p.p.p.<.              A.+     4 -XiXiXpXaXaXrX< o & O }.,X}.o o & & & #  .p.p.p.p.,.Q :.,.,.p.p.p.p.p.p.",
"p.p.p.p.[ [ <.[ ( p.s.<.p.p.<.$.q       +X    9.5     + 4XiXuXaXaXaXrXg o X F :X1X/.X o o % % % p.p.p.s.p.,.Q X.p.p.p.p.p.p.p.p.",
"p.p.p.p.+.[ p.,.,.s.<.s.s.,.[ ,.+X      +XOXD.S.&XN.n.4XiXuXaXaXaXaXaXaXyXrXeXrX1X}.* % `.% % *.p.p.p.p.p.p.O.p.p.p.p.p.p.p.p.p.",
"p.p.p.p.<.[ ,.p.<.s.s.<.<.+.[ ,.+XoX    OXOXj.1.' F F E 8./.aXpXaXpX/.c.E U U l.n.|.U B `.`.}.a.p.p.p.p.p.p.p.p.p.p.p.p.p.p.p.p.",
"p.p.s.p.p.<.p.p.s.<.<.<.+.[ [ +.XXXX+Xk.OXOX9.C.3X6.&X;XpX4XaXaXaXuXeXrX:X XM.dX X_.5X[.`.`.f.p.p.p.p.p.p.p.p.p.p.p.p.p.p.p.p.p.",
"p.p.p.p.p.s.p.p.<.s.s.,.[ [ [ [ +.+XoXOXD.D.N.Z.N.F D E `.rXaXsXaXaXrX`.l.l.l.`. X>X5X5X].z.q.p.p.p.p.p.p.p.p.p.p.p.p.p.p.p.p.p.",
"p.p.p.p.Q $.p.p.p.p.d.X.[ [ [ [ [ [ [ 8 OXS.1.*XjXl 3.9.=XsXsXsXaXsXsX3Xv.v.L lXwXz.5X5XV H p.p.p.p.p.<.$.p.p.p.p.p.p.p.p.p.p.p.",
"p.p.@.( Q >.p.p.p.s.,.( [ [ [ [ [ [ [     S.' zXb # # a xXaXsXsXyXsXsXcXN J B U cXl.>XY * p.p.p.p.$.<.=.[ p.p.p.p.p.p.p.s.p.p.p.",
"p.,.Q Q Q p.p.s.p.p.>.( [ [ [ ( [ [ [     D.Z.jXzXbXlXxXkXaXfXtX|.fXfXcXcXcXlXlXkX6X5Xj = <.<.p.p.[ +.+.[ <.p.s.p.p.p.p.p.p.p.p.",
"p.s.@.Q / p.p.p.p.p.>.[ [ [ [ [ [ [ !     9.Z.F.G.,XrXaXsXsXsXaXaXsXfXfXfXtX0X5X6X6X5X<.j @.+.=.,.[ [ o.[ p.p.p.p.p.p.@.u.p.p.p.",
"p.p.p.p.p.p.p.p.p.p.+.( [ [ [ [ [ ( Q     4.Z.F.m.,X1XrXaXsXsXaXyXsXfXfX0X0X6X7X7X7XJ o.<.>.[ [ [ [ [ p.<.p.p.p.<.p.p.[ [ p.p.p.",
"p.p.p.p.p.p.p.p.p.p.+.[ [ [ [ ( [ Q Q   ^   + n.m._.<X:X9XrX`.`.`.'.0X0X0X6X7X7X0X0Xn [ o.[ [ [ [ [ [ $.<.p.s.<.[ $.p.[ [ p.o.p.",
"p.p.p.p.p.,.X.s.p.s.( [ [ [ [ Q Q Q Q Q ! Q   3 ` _._.:X:X>X2X9X>X5X5X6X6X7X6X8X5.[ [ [ [ [ [ [ [ [ [ [ [ $.>.<.[ >.p.[ [ <.[ <.",
"p.p.p.p.p.( ( ( p.( [ [ [ [ ( ^ Q Q Q Q Q Q Q Q Q Q Q a a vXvXvXvXW.vXvXvXK K 5.( $.[ [ [ [ [ [ [ [ [ [ [ [ [ o.[ =.p.p.p.+.[ <.",
"<.<.<.s.s.<.[ [ [ [ [ [ [ [ [ Q Q Q Q Q Q Q Q Q Q Q ! f Z vXvXvX: N v.vXvXA K 2.O.B.j.K Y {.{.{.[ [ [ [ [ [ [ [ [ [ X.+.$.$.X.o.",
"[ >.s.<.<.s.<.[ [ [ [ [ [ [ [ [ ( ( Q Q Q Q Q Q Q Q z g vXvXlX* * = - -XvXvXS K B.B.L K {.{.7X7X7X[ [ [ [ [ [ [ [ [ [ [ [ [ [ [ ",
"[ [ X.=.>.+.[ [ [ [ [ [ [ [ [ [ [ [ Q Q Q ( Q Q Q ^ f g vXwXr.& * = n v.-XvXK K B.B.K x.{.dX7XdXgX[ [ [ [ >.] ] [ ] ] [ ] ] [ [ ",
"[ [ [ [ [ [ [ [ [ [ [ ^ Q [ [ / [ [ ( / ( ( ( / ! 0 f C g r.cX-X: n cX8XE.K K K B.B.K ].5X7XdXhXhX[ [ [ o.<.;.Q ] ] ] [ Q Q Q [ ",
"[ [ [ [ @X[ [ [ [ [ [ Q Q [ [ Q ( [ [ [ X.( ( ( 0 0 f g C I vX% * - - vXvXK K K ~.B.B ]. X0Xb.}.wX] [ [ [ <.o.] Q Q ^ ] Q Q Q [ ",
"[ [ [ [ $X@X[ s.[ [ [ / Q ^ [ Q ( [ [ [ ( X.[ 5 6 0 f C g g vX% = - - vXA K K K r.L K L 7X0XT B #X=.[ [ [ [ ] ] Q Q Q Q Q Q Q Q ",
"[ [ [ >.$X#Xs.@XX.[ [ [ [ / [ / [ [ [ [ ( ( 4 4 6 l j C C C vX: - - ; vXK K K K R K K K a.> J Y K <.;.[ [ [ [ ] Q Q Q Q Q Q Q Q ",
"[ [ <.<.@X<.g.XX[ [ [ [ [ [ [ [ [ [ [ [ ( ( 4 4 4 b a g g g (.= - - n vXK K K K K K K L H > W.^.> , <.o.[ [ [ ] Q Q Q Q Q Q Q ^ ",
"[ >.<.s.<.s.<.>.[ [ [ [ [ [ X.[ [ [ [ [ [ 4 4 4 k k 0 d g g 1.9.= N 8.U K K K K K p.K P ; ; > ; ; ; P s.[ [ [ <.;.Q Q Q Q Q Q ] ",
"+.<.<.s.s.<.<.$.[ [ [ [ [ [ <.<.[ [ [ [ [ 2 4 4 4.6 f g C C f j.V.B.7.K K K K K K p.<.P ; N m N m J > <.$.[ <.<.<.Q Q Q Q Q Q ] ",
"+.<.s.<.s.<.<.X.[ [ [ [ [ [ <.<.[ [ [ [ 7 4 4 4 y.6 0 d g g g g V.A K K K K K K K p.<.G n I.Y.Y.I.1 1 <.<.[ <.d.<.Q Q W Q Q ] [ ",
"[ <.<.s.[ +.$.[ [ [ [ [ [ [ >.<.s.( <.<.7 2 4 ) y.6 0 f d d C g j.A (.(.K S K K K p.p.1 n T.R.T.Y.> 1 <.<.<.<.$.[ [ ] / Q W ] ^ ",
"[ =.<.<.[ [ X.[ [ [ [ [ [ [ X.<.<.=.<.7 7 2 4 y.5 4 6 0 d g g g j.C (.R K K K K K p.p.H R T.qXqXR.; , p.<.d.+.[ [ [ [ [ ^ Q ] ] ",
"[ X.+.+.[ [ [ [ [ [ [ [ [ [ X.,.s.<.<.bX7 7 2 y.4 4 4 0 a d g g A.h N Z A K K K K p.p.> ; R..XqXT.; 1 p.<.d.=.[ [ [ [ =.[ ^ ] ] ",
"[ [ [ [ [ [ [ [ [ [ [ [ [ $.,.<.<.s.,.*XbXW 9 u.4 4 6 6 0 d g C j.Z fX(.A S S S K p.p.> ; U.R.Y.U.n , p.d.<.$.[ [ [ +.<.[ [ [ [ ",
"[ [ [ [ [ [ [ [ [ [ [ [ ,.<.s.<.=.<.XX+X+XbXvXu.4 4 4 6 $ a g C j.A &XR A A S S S p.p.1 ; P.P.L.K.; 1 p.<.<.+.[ [ [ <.<.+.[ [ [ ",
"[ [ [ [ [ [ [ [ [ [ [ +.<.s.<.s.[ [ f.+X+X+X%Xu.9 4 4 4 6 0 a d k.g C C N A S S K <.q...m J M m m , 1 p.p.<.+.[ [ [ $.<.o.] [ [ ",
"[ [ [ [ [ [ [ [ [ [ +.<.s.<.<.<.( ( ,.+X+X+XoX:. .) ` ) ) ` ` ' 1.9.9.7.9.9.6.6.K s.<.p.p.<.q.p.p.p.p.p.p.<.[ [ [ [ [ [ [ [ [ [ ",
"[ [ [ [ [ [ [ [ [ +.>.<.<.<.<.<.X.~ ~ *.+XoX .} _ 9 k u k k k l j Z Z Z Z Z g Z Z p.p.p.p.p.<.s.p.p.p.p.p.@.[ ] $X+.[ [ [ o.[ ] ",
"[ [ [ [ [ [ [ [ <.<.<.s.<.<.>.>.O.p p  ._ } _ c _ 7 4 4 4 4 4 4 0 f g f f d d f h %.%.%.#.&.<.s.p.p.p.p.;.[ ] <.$X$Xo.[ p.<.[ [ ",
"[ [ [ [ [ [ [ [ p.p.p.<.<.;.%.#. .~ p  .v c v c c 7 2 4 4 4 # 4 4 6 0 0 a d C N h | | |  .&.<.<.p.p.p.<.[ [ ] [ $X$Xp.<.p.p.[ [ ",
"[ [ [ [ [ <.<.X.p.p.<.-.;.$.%.%. .} v c c c z p t 7 7 2 4 4 t | _ z z k 0 0 f d d |  .0.w.q.q.f.a.p.p.o.[ [ ] =.$X$Xp.p.p.+.[ [ ",
"[ [ [ [ <.<.s.<.p.p.-.%.%.%. .{ { z c p t q.c t t 7 7 7 2 4 r x s r z x 4 $ 6 6 5 H  .E.e.H.H.~.J.f.a.O.X.] ] p.g.@Xp.p.p.p.[ [ ",
"[ [ [ [ [ <.<.s.p.*.%.%.#.} { c c z z <.e  .e e e 7 7 7 7 7 4 e w w r z 4 4 4 4 5 E.0.T e.W.-.J.~.J.f.%.5.X.] p.p.<.p.p.p.p.+.[ ",
"[ [ [ [ [ ,.p.p.<.-.%.%.{ { c i y p e q.e w $ w $ 7 7 7 7 2 w w e t z c c 4 4 4 5 E.e.e.2.:.p.).H.J.J.&.w.O.] <.$.[ p.p.p.p.[ [ ",
"[ [ [ [ [ [ X.<.p.<.&. . .{ { i q w e w w $ $     .         z e e r t z               Q.).s.^.E.H.0.w.&...O.o.p.[ [ p.p.p.p.[ [ ",
"[ [ [ [ ] [ +.p.p.<.%. . . .} c w e r $ $ $ $               t w w r t z               ).).).~.t.H.t.0.w...O.[ <.[ [ p.p.p.p.[ [ ",
"[ [ [ [ [ [ $.p.p.p.:.%. . . .c t e e $ $ $ $ $ $ $ $ $ $ $ <.e c e t z {  .3.t.e.H.Q.~.E.).).t.#.w...w.&.O.[ X.[ +.p.p.p.+.[ [ ",
"[ [ [ [ [ ] $.p.p.p.p.:.%.%.%.c z t r w $ $ $ p.$ $ $ $ $ w <.t s.r t c { { | c i R e.e.] 0.J.w.] O.] 5.&.O.] [ [ +.>.$.[ [ [ [ ",
"[ [ [ [ [ [ $.p.p.p.p.p.:.;.-. .c z t p t t e p.e p.{ r e e e t z c c c v u i i q H P 3.~ #.q.&.] ] &.#.[ [ ] [ [ [ [ [ [ [ [ [ ",
"[ [ ] [ [ [ @.p.p.p.p.p.p.p.p.<.<.<.:. .{ c { <.{ p.p c c { { H c c p c p i i i p v } O.] X.X.] [ [ ] ] [ [ [ [ [ [ [ [ [ [ [ [ ",
"[ [ [ [ ] [ +.p.p.p.p.p.p.p.p.p.p.p.<.:.%. . . . .%.&.:.:.;.#. . . .| { ~ ~ ( [ ] [ ] [ ] ] [ [ [ ] ] ] [ [ [ [ [ [ [ [ [ [ [ [ "
};
