/* XPM */
static char *d8c81623c2ae485a97419d5c0a1ec685jSLg35GBts0CUW9p[] = {
/* columns rows colors chars-per-pixel */
"64 64 210 2 ",
"   c #000000",
".  c #07090C",
"X  c #070D11",
"o  c #0E1616",
"O  c #131D1D",
"+  c #181F1E",
"@  c #040C26",
"#  c #060F2A",
"$  c #08112B",
"%  c #08142B",
"&  c #141A23",
"*  c #0A1434",
"=  c #0E1937",
"-  c #06133C",
";  c #0A163B",
":  c #06183E",
">  c #0D193D",
",  c #131D37",
"<  c #121D3C",
"1  c #0E222A",
"2  c #182424",
"3  c #12252D",
"4  c #1C2B2D",
"5  c #172B32",
"6  c #1F3233",
"7  c #222E2D",
"8  c #282F3B",
"9  c #223435",
"0  c #28353C",
"q  c #263A3B",
"w  c #4D3630",
"e  c #061543",
"r  c #071A47",
"t  c #0D1B43",
"y  c #06164A",
"u  c #06194C",
"i  c #111E45",
"p  c #071953",
"a  c #071A53",
"s  c #071A5A",
"d  c #081C5D",
"f  c #07204F",
"g  c #142145",
"h  c #192446",
"j  c #102F45",
"k  c #14234C",
"l  c #1D2A4A",
"z  c #123246",
"x  c #143449",
"c  c #183749",
"v  c #17394C",
"b  c #193D4E",
"n  c #0A2558",
"m  c #152753",
"M  c #192855",
"N  c #1D2C5B",
"B  c #232B4B",
"V  c #2D3645",
"C  c #313846",
"Z  c #353C4A",
"A  c #202E57",
"S  c #263554",
"D  c #071D62",
"F  c #081E63",
"G  c #071F69",
"H  c #081F6B",
"J  c #081F70",
"K  c #092265",
"L  c #0A226D",
"P  c #0B2A6A",
"I  c #192F61",
"U  c #123968",
"Y  c #092274",
"T  c #0B2872",
"R  c #0A2579",
"E  c #0B2A7D",
"W  c #0E357A",
"Q  c #13387D",
"!  c #213264",
"~  c #26376A",
"^  c #2A3C73",
"/  c #283C77",
"(  c #1E404D",
")  c #1B4151",
"_  c #1F4458",
"`  c #2C4344",
"'  c #2A464B",
"]  c #314B4D",
"[  c #3A4B48",
"{  c #214654",
"}  c #254A56",
"|  c #2B4A56",
" . c #274B59",
".. c #2A4E5A",
"X. c #3B4453",
"o. c #344855",
"O. c #2D525B",
"+. c #32565E",
"@. c #385558",
"#. c #35595F",
"$. c #3A5A5C",
"%. c #1A4768",
"&. c #154179",
"*. c #254467",
"=. c #394668",
"-. c #365A60",
";. c #3A5D62",
":. c #3C5A69",
">. c #2E417C",
",. c #335474",
"<. c #3E6164",
"1. c #3E636B",
"2. c #396272",
"3. c #574446",
"4. c #5E4743",
"5. c #464F5F",
"6. c #675350",
"7. c #765D59",
"8. c #4C635F",
"9. c #7F615A",
"0. c #4F4D65",
"q. c #4E5868",
"w. c #465777",
"e. c #545972",
"r. c #655866",
"t. c #426567",
"y. c #486767",
"u. c #46696A",
"i. c #4A6C6D",
"p. c #4D7070",
"a. c #527474",
"s. c #5C7072",
"d. c #577978",
"f. c #5B7D7B",
"g. c #6D6269",
"h. c #637B78",
"j. c #80635D",
"k. c #836862",
"l. c #8C726E",
"z. c #917C7D",
"x. c #65847F",
"c. c #0C2D81",
"v. c #0E3285",
"b. c #0F3589",
"n. c #103C86",
"m. c #10378B",
"M. c #113B8E",
"N. c #113D92",
"B. c #14488C",
"V. c #134196",
"C. c #13459A",
"Z. c #154A9D",
"A. c #184B9A",
"S. c #17509F",
"D. c #1B539E",
"F. c #2B4583",
"G. c #374B89",
"H. c #29649E",
"J. c #164EA2",
"K. c #1751A5",
"L. c #1853A5",
"P. c #1956AA",
"I. c #1A5AAE",
"U. c #1B5DB2",
"Y. c #1C61B6",
"T. c #1D65BA",
"R. c #1E68BE",
"E. c #2F63A7",
"W. c #485B8F",
"Q. c #515580",
"!. c #58688D",
"~. c #6A7688",
"^. c #76768A",
"/. c #6C7991",
"(. c #897B80",
"). c #628582",
"_. c #668884",
"`. c #688B86",
"'. c #6C8E89",
"]. c #6F918B",
"[. c #72948E",
"{. c #73958E",
"}. c #7E8CA5",
"|. c #988689",
" X c #9E8C8D",
".X c #9D8E92",
"XX c #9F9398",
"oX c #A08E8F",
"OX c #A18F90",
"+X c #A6989B",
"@X c #8993A7",
"#X c #8795AD",
"$X c #969DAC",
"%X c #AA9EA3",
"&X c #99A6BB",
"*X c #ADA2A6",
"=X c #AFA5AA",
"-X c #A6ACBD",
";X c #B3ABB1",
":X c #B1ACB4",
">X c #9EAFCB",
",X c #A3AFC3",
"<X c #A8B4C7",
"1X c #AEB5C4",
"2X c #B2B8C6",
"3X c #BABDCA",
"4X c #AFBFD8",
"5X c #B8C2D4",
"6X c #C4CBD8",
"7X c #C8D3E2",
/* pixels */
") ) ) ) ) ) ) ;.t.t.t.t.t.t.t.t.t.t.t.t.t.t.t.t.t.t.t.t.t.t.t.t.t.t.u.<.) ) ) ) ) ) ) ) ) ) ) ) ) ) ) ) ) ) ) ) ) ) ) ) ) ) ) ) ",
") ) ) ) ) ) ) +.t.t.t.t.t.t.t.t.t.t.t.t.t.t.t.t.t.t.t.t.t.t.t.t.t.t.<.<.O.) ) ) ) ) ) b b ) ) ) ) ) ) ) } +.+.O.) ) ) ) ) ) ) ) ",
") ) ) ) ) ) )  .t.t.<.) t.t.t.t.t.t.t.t.t.t.t.t.t.<.S - - - - t.t.t.t.<.+.) ) ) ) ) ) x x ) ) ) ) ) )  .<.} ) t.<.) ) ) } t._ ) ",
") ) ) ) -.} ) } t.t.<.) <.) ) t.t.t.t.a.{.p.].t.t : - ; : - - - | t.t.q.O.) ) ) j j b b b  .t.) ) ) ) t.t.} ) t.t.+.) ) t.t.-.) ",
") ) ) ) t.t.) +.t.t.<.) <.) ) t.t.t.y._.{.{.'.e e e - - - - - - - - - <._ ) ) ) j j b ) ) ;.t.) ) ) } t.t. .) t.t.<.) ) t.t.} ) ",
") ) ) ) t.t.) <.t.t.t.) t.<.<.t.t.t.t.t.{.{.s y e e e : - - - - - - - - : * - - z j b ) ) )  .) ) ) O.t.t.t.t.t.t.<.) ) +.t.) ) ",
") ) ) ) t.t.} t.t.t.t.t.t.t.t.t.t.t.t.t.i.D s a y y e e e - - - - - - : - - : : e b ) ) ) ) ) ) ) ) } t.t.t.t.t.t.<.+.;.) ) ) ) ",
") ) O.) t.t.#.t.t.t.t.i.t.t.t.t.t.t.t.t.t.L d s a y e e e e e - - - - - - - : e e v t.-.) ) ) ) ) O.O.1.t.t.t.t.<.} t.t.) ) ) ) ",
") t.t.) ) #.t.t.t.t.a.{.f.t.t.t.t.t.t.t.N.v.T K d a a y y y r e e e e - e e e e e y t.q.) { ;.) ) t.t.t.t.t.t.t.t.t.t.t.} ) ) ) ",
") O.t.t.} t.t.t.t.t.{.{.t.t.t.t.t.t.t.t.L.A.n.T P K d k a a y r y e e e e y r y y a n <. .t.t.) ) t.t.t.t.t.t.t.t.t.t.t.t.<.+.} ",
"<.t.t.t.t.t.t.t.t.t.{.{.t.t.t.t.t.t.t.U.Y.I.Z.V.n.v.W 0.P P K s a u u u y u y a s s K O.t.t.t.b ) t._.t.t.t.t.t.t.t.t.t.<._ <.<.",
"t.t.t.t.t.t.t.t.t.t.{.{.t.t.t.t.t.{ ) R.T.T.Y.P.L.S.A.j.M.n.Q P d s s a a a s s s D D F t.t.t.t.<.`.{.t.t.t.t.t.t.t.t.t.t.) ) t.",
"t.t.t.t.t.t.t.'.{.t.{.].{.{.t.t.t.) R.R.R.T.T.E.Y.Y.U.j.P.P.A.n.T D D d d d D D D G H H H t._.{.t.{.{.d.`.u.t.t.t.t.t.t.t.) { <.",
"t.t.t.t.t.t.t._.{.u.i.d.{.`.t.t.1.T.R.T.Y.Y.9.Y.R.R.T.j.Y.U.I.j.r.L K F F G F H H H J J Y Y f.{.f.`._.[.{.t.t.t.t.t.t.t.t.} } t.",
"t.t.t.t.t.t.t.t.{.i.t.u.d.t.t.t.D.U.I.2.P.P.j.Y.T.I.D.- j.I.g.B - R L L H J L Y Y oXQ.Y Y Y i.{.f.t.t.i.t.t.t.t.t.t.t.t.t.<.#.t.",
"t.t.t.t.t.t.t.t.t.t.t.t.1.t.t.t.t.t.y.C.V.e.7.e.T.R.T.7.j.j.j.k.9.T Y Y Y Y Y Y .XoX|.R Y t.t.{.]._.t.t.t.t.t.t.<.x <.t.t.t.t.t.",
"t.t.t.t.t.u.t.t.t.t.t.t.t.t.t.t.t.t.t.b.v.9.4.w Y.R.E.k.z.j.9.%Xw 3.R R Y R R R oXoX^.R Y t.t.t.f.d.t.t.t.t.t.t.z j t.t.t.t.t.t.",
"t.t.t.t.t.t.t.t.} t.t.t.t.t.t.t.t.t.t.E E 9.6X&   Y.g.(.*XoXXXw     c.R R E R R oXoXR R E E t.t.t.t.t.t.y.;.j +.z z t.t.t.t.t.t.",
"t.t.t.t.) ) t.} ) <.t.t.t.t.t.<.<.O.E E v.9.7X7X8   9.z.=X=X;X5X    =.c.c.R E E oXoXR R E R t.t.t.t.t.t.t.#.j $.;.-.t.t.t.t.t.t.",
"t.t.t.t.) ) t.) ) t.t.t.t.t.<.O.) ) c.v.v.9.:X  .   4.%X=X=X*XX.  C c.c.c.c.c.c.G.c.c.c.c.E E t.t.t.t.t.t.;.j { t.t.t.t.t.t.t.t.",
"t.t.t.t.} ) t.;.;.t.t.t.t.<.{ <.<._ v.) v.=.5X+X6X7X6X=X=X=X=X6X7X4Xv.v.j.c./ c.c.c.c.c.E c.E t.t.t.t.t.t.t...t.t.t.t.t.t.t.t.t.",
"t.t.t.t.<.) ;.t.t.t.t.t.<._ ) ;.t.Q v.) b.b.9.9.%X;X=X=X6.XX=X=X=X%Xb.v.j.j.j.c.c.v.v.v.v.c.v.t.t.t.t.t.t.t.t.t.t.t.t.t.t.t.t.t.",
"t.t.t.t.t.t.t.t.t.t.t.t. .) ) { t.v.v.) b.m.9.9.|.=X=X=X=X=X=X=X=XOXM.M.7.j.b.m.m.b.b.b.b.b.b.t.t.t.t.t.t.t.t.t.t.t.t.t.t.t.t.t.",
"t.t.t.t.t.t.t.t.t.t.t.;.) ) ) ) } b.Q ) M.N.r.9.9.*X=X=X=X=X=X4.%X XN.M.F.N.N.m.N.N.m.m.M.M.<.t.t.t.t.t.t.t.t.t.t.t.t.t.t.t.t.t.",
"t.t.t.t.j +.t.t.t.t.i.} ) ) ) ) ) b.M.) M.N.C.9.9.l.%X*X4.4.4.4.OXl.r.V.N.N.N.C.V.V.N.N.N.N.t.t.t.t.t.t.O.t.t.t.t.t.t.t.t.t.t.t.",
"t.t...) j -.t.t.t.t.;.) ) ) ) ) ) N.N.) C.C.C.k 9.9. XOX+X+X|. XoX9.F.C.Z.C.C.C.V.C.V.V.C.<.t.t.t...t.+.) t.t.t.t.t.t.t.t.t.t.t.",
"t.;.j j j t.t.t.t.t.-.b ) ) ) ) ) Q V.U C.C.J.Z.>.>.>.>.>.>.>.^ / A M J.Z.J.J.J.C.Z.Z.A.C.<.1.<.t.)  .} ) t.t.t.t.t.t.t.t.t.t.t.",
"t.t.O.j v t.t.t.t.t.+.) ) ) ) ) ) ) C.C.Z.J.J.K.P @ @ ! k l g !.k = K.K.J.J.J.J.K.K.Z.,.Z.....+.-.) ) { ) t.t.t.t.t.t...t.t.t.t.",
"t.t.t.t.t.y.t.t.t.t...) ) ) ) ) ) ) j J.J.K.L.L.P.Z.@ t B * t >.! a P.P.J.L.L.P.K.L.K.*.L.+.) ) { ) ) t.<.t.t.t.1.t.t.) b t.t.t.",
"t.t.t.t.t.t.t.t.t.t.{ ) ) ) ) b ) z j j K.K.L.P.I.I.@ S - M ^ G.@ I.I.I.i I.P.P.P.P.) P.L.) ) ) ) ) ) ..<.t.t.t.) O.t.) { t.{ t.",
"t.t.t.t.t.-.{ t.t.t.) ) ) ) ) j j j j x K.Z.@ U.I.U.: @ t =.$ @ @ U.U.i L.U.U.U.I.I.D.I.%.) ) ) ) ) ) ) { ..;.;.) +.t.b { 1.b t.",
"t.t.t.t.t.b b ) t.) ) ) ) ) b j j j j &.P.@ @ U.Y.U.D.g k ! A / Y.U.U.I Y.U.U.U.U.) U.U.) ) ) ) ) ) ) ) ) ) ) } ) +.t.<.t...b t.",
"<.<.<.u.t.t.) ) ) b ) ) ) ) ) j j j z K.n.@ * U.Y.Y.Y./ >.>./ ^ Y.Y.k Y.Y.* n Y.Y.) U.Y.) ) ) ) ) ) ) ) ) ) ) ) ) _ _ ..O.O._ } ",
") #.u.<.t.t.<.) ) ) ) ) ) ) ) ) ) ) j P.t : @ Y.Y.Y.Y.# >.>.$ @ R.R.T.>.# N @ B.) ) Y.) ) ) ) <.t.) ) ) ) ) ) ) ) ) ) ) ) ) ) ) ",
") ) _ +.#..._ ) ) ) ) ) ) ) ) ) ) ) U @ @ = @ Y.Y.T.; w.~ / 3X5.R.T.m F.= B $ @ ;.#.Y.+._ ) ) t.<.) ) ) ) -.) ) ) ) ) ) ) ) ( ) ",
") ) ) ) ) ) ) ) ) ) ) z j ) ) b ) *. .X.5.k f Y.T.T.# G.@ F.5.V R.R.k / @ ; i $ t.t.H.t.t.t.-.t.t.) ) ) } <.-.x z ) ) ) j j j ) ",
") ) ) ) _._ ) ) ) ) ) j j ) b j b *.I X.! ~.Y.T.T.R.@ W.@ >.$ @ R.R.i >.@ i < 8 @ >.t.t.t.t.y.u.{.) ) ) ) <.} j j j x v j j j ) ",
") ) ) ) {._.) u._ ) ) v z c ) j b ) F.X.=./.>XT.T.U * > @ >.$ @ r R.< >.@ #X/ @ @ >.t.t.t.t.t.'.{.-.) ) ) ) ) ) j j j j j j j j ",
") ) _ #.].'.u.'._ ) ) ) v v ) c b ) >.G.A ,XY.T.R.@ ; m @ F.2X5.@ @ < >.h ,Xe.@ >.,.t.t.t.t.t.{.{.t.+.) ) ) ) ) j j j j j j j j ",
") { ;.<.).u.a.x.) ) ) ) ) ) ) ) ) b 7.F.>.@ Y.I.R.n > @ @ / 5.C h !.% >.@ g @ / >.t.t.t.t.t.t.{.{.t.t.} ) ) ) x j j j j j j j z ",
") #.t.t.t.t.t.#.) ) ) ) ) ) ) ) ) ) 9.9.k ^ Y.m T.R.* l ! >.@ @ @ $ =.W.N ! >.>.9.9.1.<.t.t.i.{.x.p.].t.) ) ) t.#.z j j j j j ) ",
"} <.t.t.t.t.<...) ) ) ) ) ) t.;.) ) 9.9. Xz.Y.K.r R.: @ ^ >.@ @ k M ^ # >.w.oXoXk.9.t.t.u.t.{.{.<.{.{.t...) ;.t.t.j j j j j j ) ",
"} t.t.t.u.<.<.) ) ) ) ) ) ) 1.t.) ) 7.9.oX.Xm T.@ R.R.@ @ >.,X5.@ @ - * >.V oXoXoXj.t.t.{.'.{.{.d.{.<.t.<.) t.t.;.j j j j j ) ) ",
") <.t.t.) ..+.) ) ) ) ) ) ) -.1.t.) t.g.h.b g T.@ $ G.@ @ >.5.V @ M < > M >.|.oXoXi.t.t.{.'.{.{.<.i.u.<.u.;.t.O.) ) v v j j v ) ",
") +.<.<.) ) ) ) ) ) ) ) ) b ) t.t.+.t.t.t.l 8 X.# t i @ @ >.@ @ @ @ @ A q.~ ^ oXs.t.t.t.{.{.a.a.u.<.u.<.t.t...) ) ) ) ) v j ) ) ",
") ) ..O.) ) ) ) b ) ) ) ) b { -.t.t.t.t.t.* X.o.~./.B # @ >.@ @ @ l l =.q.C ~ / t.t.t.t.u.i.t.t.<.u.t.u.t.t.O.) ) ) ) +.) z ) ) ",
") ) ) ) ) ) ) ) ) ) ) ) ) -.;.t.t.t.t.t.:.^ @ @ s././.<X@ >.@ @ @ #X/.@ @ @ >.,.t.t.t.t.t.t.t.t.t.t.t.t.t.t.O.) ) ) ..<._ ) ) ) ",
") ) ) ) ) ) ) ) ) ) ) b ;.t.t.t.+.;.t.t.t.>./ @ @ @ }.,X@ >.@ &XS @XS @ @ >.k { t.t.t.t.t.t.t.t.t.t.t.t.t.t...) ) ) ;.<.{ ) ) ) ",
") ) ) ) ) ) ) ) ) ) ) O.u.<.u.<.) ) <.t.) ) ..>.>.@ @ $ i >.@ &X@ @ @ / >.I ) +.t.t.t.t.t.t.t.t.t.t.t.t.u.<.} ) ) ) ..<.} ) ) ) ",
") ) ) ) ) ) ) ) ) ) ) <.<.u.t.u.) ) <.t.) { <., ^ >.>.g @ >.$ @ M >.>.>.5 5 <.t.t.t.t.t.t.t.t.t.t.t.t.t.<.;._ ) ) ) ) ) ) ) ) ) ",
") ) ) ) ) ) ) ) ) ) ;.u.t.t.t.t...) { <.) +.t., , , A F.>.>.>.>.>.A < , , , t.t.t.t.t.t.t.t.t.t.t.t.t.t.<...) ) {.} ) ) { } ) ) ",
") ) ) ) ) ) ) ) t.<.<.<.t.t.t.t.t.) ( {.;.<.] .   , , , , +.@.$.q., <     . t.t.t.t.t.t.t.t.t.t.t.t.t.t.-.) ) ;.{.{.} ) <.<.) ) ",
") ) ) ) ) ) ) ) t.t.t.t.t.t.t.t.t...b {.{.@.+ $X2X2X2XC 9 t.y.[ [   -X2X5X@XO ` ] @.$.<.t.t.t.t.t.t.t.<._ ) ) { {.{.t.t.<.<.) ) ",
") ) ) ) ) <.t.) t.t.t.t.t.t.t.t.t.t.<.] {.{.6 5XZ       9 t.7 [ [   2X      9 9 9 9 9 q ] <.t.t.t.t.<.} ) ( ) -.{.{.t.t.u...) ) ",
") ) ) ) <.<.u.t.t.t.t.t.t.t.t.t.u.<.` 9 6 6 9 -XZ       9 t.7 0 4   2X      6 6 9 6 9 9 6 ` $.t.t.t.t.{ ) ) ) <.p.x.<.u.u.<.) ) ",
") ) ) ) ) <.<.u.t.t.t.t.t.u.<.;.<.] 9 4 O o o 1Xo       + + o o o   2X      o + 4 6 6 2 5 6 ] t.t.<.t.) ) ) ) <.u.<.t.u.<.u.} ) ",
"b ) ) ) ) ;.u.<.t.t.t.t.t.t.t.) ( ` 2 o o o o :XZ       + + o o o   2X0 @X1Xo o o 2 {.1 3 6 {.;.} t.t.) ) ) ) t.O.) t.t.t.t.{ ) ",
") ) ) ) ) ) } <.t.t.t.t.t.t.t.) x {.2 o o X o $X2X      o + + o o   2X^.  X & o X O x.{.9 a.].' ) ) } ) ) ) ) t.) ) t.t.t.t.) ) ",
") ) ) ) ) ) } t.t.t.t.t.t.t.t.t.( {.q . X 5X-X5X        o + + o o               X 2 9 ] 9 q ` } ) ) ) ) ) ) ) ;.) ) <.u.<.<.) ) ",
") ) ) ) ) ) O.t.t.t.t.t.t.t.t.t.$.h.x.+         {.    o o o o o o o o       X o o 1 6 <.2 6 ` ) ) ) ) ) ) ) ) ) ) } u.<.u.} ) ) ",
") ) ) ) ) ) O.t.t.t.t.t.t.t.t.t.t.$.{.6 4 + O o {.8.o o ` o o o o o o o o O t.4 1 1 5 <.1 3 $...) ) ) ) ) ) ) ) ) } #.O.{ ) ) ) ",
") ) ) ) ) ) O.t.t.t.t.t.t.t.t.t.t.t.@.q 9 t.@.9 9 9 9 9 t.9 9 7 9 t.4 4 9 3 t.1 1 1 1 1 3 c } } ) ) ) ) ) ) ) ) ) ) ) ) ) ) ) ) ",
") ) ) ) ) ) O.t.u.t.t.t.t.t.t.t.t.t.t.<.] <.$.6 9 9 9 9 t.9 x.y.9 t.' 9 4 1 3 1 1 1 3 z ) ) ) ) ) ) ) ) ) ) ) ) ) ) ) ) ) ) ) ) ",
") ) ) ) ) ) } t.t.t.t.t.t.t.t.t.t.t.t.t.t.<.<.] ` V q q @.q {.q q q t.9 1 1 1 1 1 c ) ) ) ) ) ) ) ) ) ) ) ) ) ) ) ) ) ) ) ) ) ) "
};
