/* XPM */
static char *_667b32368aa4360e04a241ebe19238eM4HE7KE6eRfhgB0L[] = {
/* columns rows colors chars-per-pixel */
"64 64 75 1 ",
"  c #102F45",
". c #113146",
"X c #143449",
"o c #19374A",
"O c #17394C",
"+ c #193D4E",
"@ c #1A3F50",
"# c #1B4151",
"$ c #214654",
"% c #254A56",
"& c #2A4B56",
"* c #274C58",
"= c #2A4E59",
"- c #2D525B",
"; c #32565E",
": c #34595F",
"> c #355960",
", c #375961",
"< c #375B61",
"1 c #385A60",
"2 c #385B62",
"3 c #385D61",
"4 c #395D63",
"5 c #3A5D62",
"6 c #3B5E63",
"7 c #3C5F63",
"8 c #3C5F64",
"9 c #3C6063",
"0 c #3C6064",
"q c #3D6165",
"w c #3E6164",
"e c #3F6365",
"r c #3F6366",
"t c #406365",
"y c #406366",
"u c #416467",
"i c #406567",
"p c #426466",
"a c #426567",
"s c #436667",
"d c #456868",
"f c #476B6B",
"g c #45696E",
"h c #476B6F",
"j c #486A6B",
"k c #496C6D",
"l c #4C6E6F",
"z c #4A6D71",
"x c #4C6F70",
"c c #4D7070",
"v c #507272",
"b c #507373",
"n c #527574",
"m c #547776",
"M c #577978",
"N c #597B79",
"B c #597C7A",
"V c #5D7E7C",
"C c #618380",
"Z c #638582",
"A c #648683",
"S c #638684",
"D c #668884",
"F c #678985",
"G c #678986",
"H c #698B86",
"J c #6A8C88",
"K c #6B8D88",
"L c #6D8F8A",
"P c #6F908B",
"I c #6F918B",
"U c #70928C",
"Y c #71928D",
"T c #72948E",
"R c #73958E",
/* pixels */
"#######<ssrrsrssssysssususususususus############################",
"#######;rsssssrsysursusususususususu=######+O########>4=########",
"#######%srr#srssyssdusssusususususur>######XX###@##%g$#sy###$s$#",
"####<%#%ss6#r##sssrcYzIssusususssusr=@##  #OO-s####si##ss;##sd>#",
"####ss#;usr#6##susuHRTTuususus1@ussr$###  ###6s###%rs-#ssr##rs%#",
"#@##ss#rssu#rrrssusdRTzssususu$#suss####. +###%###-rrrsisr##<r##",
"####sr%rusurusrsussyxxsuususus>@ussu#####@########$ssrsrs>;<####",
"##-#rs>ssushssrssussssussususur8susu#####@s>###@#--rsssss*rs####",
"@ss##>suusbTVrsssysssyrssussysssusu>####@#ss#$r#@sususrusrss####",
"#-sr$srssuTTdususssyrsssusurssyssus@$####rrr%ys##usususssssrsr>*",
"srrssssuusTTsuu#>syss#ssusrss-#rss%######sr-rss##sGyusrsrrssr$<s",
"rrssusussuTTusr####y##rrrr##r@#%s>##$##;6us8rsssrJTususssrsss##r",
"ssrsusuJTsYYTJr#&##s###s68%####%>######ssrssrsGTuTRmJdsrsusss#$d",
"sssssusGRjjmJgs#$$#s%$#s=>>$###=#####$#6srsrssBTBJHYIsssusuru#%u",
"iirsssysRkrs6%u$#$#$$##%$;=>############ssruruzTBssjsususussy6>s",
"irssrsssyd@y;$$#$###@#$$#$%=%#####@O####ussssssTYGsuususro6ssssu",
"guususussr#sr########@#%#$#####+##  #X@#&dgirsrsBBryssyp  yususu",
"susususu%r>$s####r##s#$#######@ X#  OX+@%8uissssysssy7 :..suusus",
"usus$#u$#62######s#%s#####u####. #  ####%6rissrsusysy4 >71pssusu",
"susu@#s##r-$#####su#######s%###XX#######%8sssrr#ssyss1 $psdyusus",
"usus$#u868=$######s####s########ys@#####rrsr>rr#ususus&ssusususu",
"susuy#6us6=############y######%&dr######sssr#r#rsusususuusususus",
"ususususur-#####%#@##########ss+s.  @###ysrs--rsusususussusususu",
"sususususs6%######@########X sy    .###@ssysrssssusususuusususus",
"usus ;yssyd$##@###########   ss   +#+###rr-sssrssrsr=uyssuususus",
"su&@ >ypyj4$6s#s##########   ss O###  #####;rssss=r>#susussususu",
"y4   sussy:@#uss###.    X    y= ####  #####>s6rss#&%#ssysussusus",
"sy- oususy;@#su###..          .#####++#####8s=*>2##$#usrusu=rusu",
"sususuusys=###s@#+             ##8#########%r>#####srrssrrr#@ydy",
"ususussuus$####@#.            O#%-##########$######=ruus@>s##s$s",
"susus1$sss#####               ########+##@##########$=1r#;r#$8@u",
"ususu#@@u#####+               ######## ###############$#@>syy&#u",
"rssrsr#########.              #######+ ####################---#*",
"#<rrrsf###########           #=####### ##@###@#6s#@#############",
"###;:=############   #   X@@####+#X###.#+s$%###yr####>#######+##",
"########### .##O##@ O##  @@.####+  #####$s=:ys6ss###%r>XX###  .#",
"####S###### .#O.########O# O###########*$->4rsrfI####r%   X+   #",
"####TH#z###O.X#.O#########o@###########r==4rsssIT>######        ",
"###<TKzI####+O#O#######X O+####.###X###$%8rsussTTs;#####        ",
"##0sCzcV##############      OO    ..X###$ruususRRds$###X       .",
"#>ssrrs:##############O              +###wsssszTVcIr###r>.     #",
"#srsssr*######r0########           .O####7rsksKTsRTs&#4rs.     #",
"$sssssr##@##@#rr########.        ##O##ff+rssTKTTBTsss#ss4     +#",
"#sss+--#######-s6#r0%###@         #####fdrrsTKTYskrrs4s-##OO  O#",
"#-sr###########ss-sr:#r$##.       .#####kdrsTTbmrssrsr=#####O O#",
"##$-###########0sssr9%r###         X###$;rssskssssssrs-####-#X##",
"#############-0rssssr->r##         O###$;rsssssssrsrrs-###=s$###",
"############6ssr-rssr:-###@   .@.  O####>sr$sry%ssssss=###4r%###",
"###########-rsrs##su@#;##$######@O####o$8uu#rs#%ssussr%###=r%###",
"###########rssss##8s@$;$$s@########o#@ -rus#r%#srssus6##########",
"##########<sssrr=#@r#>6>s=###s#@#$% ;8$russr@#rsususs%##T*##$###",
"########rrrsrsrss#@s4srr>-;u#s#%%&= susyurrs4rsssusu>##6TT$#ir##",
"########ssiisrssu=$uususyr8r-r%fzsr ssyyususssrsussr$###RRsrgd@#",
"#####0r#ugirssrssurssususyrs666HCus&ysysuususrrssur%##@>RTrsd%##",
"####rrrssusssrssrsusususssyyGYBYcrsrsssusuuusssrurs####rcSsssr##",
"#####sssussrsrs0rusususuysssYTsdsssrusususu#*rssrss@###srsrsss%#",
"#####6sssususus##ssrssussusuGRussususususss#-ssr*ss####r-#rssu##",
"#######rusususu##=yssusuususjTLuusususu1#ssrrss=##%####s##ssus##",
"######%ssusuussr$rsuusussususYSssususuu%#rssrrr=#######6##rssu##",
"######=susussusuusussusuususususususuuuu##r>%rs##########*sss%##",
"######-susususussusususususususuyssssyy6######r-#########%>-####",
"######-ususususuususususususususssyyu%$$######*#####@###########",
"######=susususussusususususususursss;###################@#######",
"##@###%ssusususuusususususususususss############################"
};
