/* XPM */
static char *_70ac4146e064836e172cdff594d9e45IENCd2wFH4CWdMvi[] = {
/* columns rows colors chars-per-pixel */
"64 64 223 2 ",
"   c #020607",
".  c #050C07",
"X  c #030708",
"o  c #060C0A",
"O  c #0A0C0C",
"+  c #130F0D",
"@  c #071009",
"#  c #09130A",
"$  c #0E1D0B",
"%  c #13110F",
"&  c #101E0D",
"*  c #060E12",
"=  c #0B0F11",
"-  c #071014",
";  c #0C1314",
":  c #0F1D10",
">  c #0A161B",
",  c #0B191E",
"<  c #131414",
"1  c #1A1712",
"2  c #121D11",
"3  c #131C1D",
"4  c #1D1D1D",
"5  c #2B1E16",
"6  c #241E1D",
"7  c #291F1D",
"8  c #0F200B",
"9  c #11220D",
"0  c #17280D",
"q  c #1B2D0E",
"w  c #1E330E",
"e  c #132512",
"r  c #162616",
"t  c #162915",
"y  c #1A2C13",
"u  c #16291A",
"i  c #192E1A",
"p  c #1E3113",
"a  c #1C311B",
"s  c #21360F",
"d  c #2C211C",
"f  c #28241C",
"g  c #332418",
"h  c #36241A",
"j  c #39261A",
"k  c #3C291D",
"l  c #223512",
"z  c #243A13",
"x  c #263B18",
"c  c #3B381D",
"v  c #0C1B24",
"b  c #0F1F28",
"n  c #131E23",
"m  c #191E20",
"M  c #211F21",
"N  c #0E232B",
"B  c #162224",
"V  c #192425",
"C  c #162B23",
"Z  c #12232A",
"A  c #1A2629",
"S  c #142B2C",
"D  c #1B2A2C",
"F  c #1E3124",
"G  c #0E2739",
"H  c #0F2A3D",
"J  c #112730",
"K  c #132B34",
"L  c #1D2E31",
"P  c #142E39",
"I  c #163134",
"U  c #1E3134",
"Y  c #16313C",
"T  c #1C343C",
"R  c #242223",
"E  c #2C2522",
"W  c #2B2A26",
"Q  c #262B2B",
"!  c #322623",
"~  c #352924",
"^  c #3B2C24",
"/  c #3A2D27",
"(  c #322F2A",
")  c #25372B",
"_  c #36322D",
"`  c #3C332B",
"'  c #242E34",
"]  c #223234",
"[  c #293835",
"{  c #24353A",
"}  c #263A3C",
"|  c #283D3E",
" . c #383A37",
".. c #422C1E",
"X. c #422E23",
"o. c #482F20",
"O. c #443226",
"+. c #4B3424",
"@. c #44342A",
"#. c #4B3629",
"$. c #48382B",
"%. c #4D392B",
"&. c #523725",
"*. c #553926",
"=. c #593B27",
"-. c #533B2B",
";. c #5B3E2A",
":. c #463A31",
">. c #513D30",
",. c #613F2A",
"<. c #2C4413",
"1. c #2F4913",
"2. c #2A431A",
"3. c #304A14",
"4. c #354819",
"5. c #3A541D",
"6. c #3F591F",
"7. c #2B4328",
"8. c #314A26",
"9. c #3A5322",
"0. c #3A532C",
"q. c #2B433E",
"w. c #364839",
"e. c #454423",
"r. c #5E402C",
"t. c #425D23",
"y. c #485D28",
"u. c #42413C",
"i. c #554335",
"p. c #5C4434",
"a. c #64432D",
"s. c #6A472F",
"d. c #634633",
"f. c #674934",
"g. c #654937",
"h. c #6C4A33",
"j. c #6A4D39",
"k. c #724D33",
"l. c #704F3A",
"z. c #7A5237",
"x. c #72513A",
"c. c #77543A",
"v. c #7B553B",
"b. c #466126",
"n. c #4A652B",
"m. c #4E6B2C",
"M. c #436036",
"N. c #0F2C41",
"B. c #102E43",
"V. c #163542",
"C. c #193643",
"Z. c #173846",
"A. c #193946",
"S. c #16374A",
"D. c #1A3D4C",
"F. c #1A3E52",
"G. c #233C43",
"H. c #233A46",
"J. c #293E41",
"K. c #203F51",
"L. c #1A404E",
"P. c #1B4151",
"I. c #2C4345",
"U. c #2F4947",
"Y. c #24444D",
"T. c #2E4649",
"R. c #364748",
"E. c #324B4C",
"W. c #34514F",
"Q. c #3E524D",
"!. c #234552",
"~. c #254A56",
"^. c #2C4B53",
"/. c #2A4D59",
"(. c #334E51",
"). c #3C4E52",
"_. c #2C515A",
"`. c #355254",
"'. c #395456",
"]. c #33565C",
"[. c #395659",
"{. c #3A5B59",
"}. c #3B5B5D",
"|. c #3D5D5E",
" X c #3E605E",
".X c #365861",
"XX c #3D5E61",
"oX c #3E5E61",
"OX c #3F6163",
"+X c #3F606A",
"@X c #4F5048",
"#X c #425757",
"$X c #7E5C49",
"%X c #4C635E",
"&X c #405C63",
"*X c #406364",
"=X c #416365",
"-X c #426566",
";X c #476467",
":X c #566F6B",
">X c #5D7B77",
",X c #835A3C",
"<X c #8A5E3E",
"1X c #8D603F",
"2X c #835C41",
"3X c #885F42",
"4X c #8D6242",
"5X c #8A624B",
"6X c #936544",
"7X c #966846",
"8X c #9B6B46",
"9X c #9D6D49",
"0X c #A06D47",
"qX c #A16E49",
"wX c #A4714B",
"eX c #AC764D",
"rX c #AF784F",
"tX c #B0784F",
"yX c #A47657",
"uX c #AD7954",
"iX c #A57B60",
"pX c #61817C",
"aX c #6C8B85",
/* pixels */
"P.P.P.P.P.P.P.OXOX+X+XOX+X-XOXOXOX|.|.|.[.[.'.`.`.`.E.W.W.E.(.E.E.E.E.E.V.V.V.V.V.S S Z.A.Z.A.D.D.D.D.L.L.P.P.L.P.P.P.P.P.P.P.P.",
"P.P.P.P.P.P.P..X+XOXOXOXOXOXOXOXOX X[.[.[.'.`.E.E.E.E.E.U.U.T.T.U.U.T.T.G.P P e 8 8 8 8 P C.A.A.Z.D.D.D.!._.]._.P.P.P.P.P.P.P.P.",
"P.P.P.P.P.P.P.8 p OXOXL.OX XOXOX[.[.'.`.`.E.E.E.T.T.I.{ } [ } q.| I.I.I.G.K P e t 9 e 9 8 Y V.Z.A.A.D.!.OX!.L.-X+XL.P.P.~.-X~.P.",
"P.P.P.P..X~.e 8 <.8.OXL. XL.L. X[.`.`.'.:XI.9 8 8 8 9 0 e 9 8 e e e e 9 e u S i a e t e 8 G.E.V.Y I I {.}.!.D.=X=X].L.P.-X+X.XP.",
"P.I $ 8 U.OX8 0 z 2..XL. XD.D.'.`.`.E.%X;X8 8 9 e e e e e e e e e 0 e 9 e 9 9 r r 9 $ 8 S u 8 8 9 $ 8 8 e !.D.OXOXOXP.P.+X+X~.P.",
"T 8 8 8 8 ) 9 w z  XOXD.{._.`.`.E.E.T.T.@X$ 9 i t y e t e y e e 8 8 9 & $ $ $ $ $ $ $ J $ 8 $ 8 9 9 8 8 8 8 [.oXOXOXP.P. XOXP.P.",
"8 8 $ # # 8 p 8.{. X X}.'.'.`.E.E.q.8 8 8 8 e i t e e t t e t a e # # # @ $ # # # . # $ 8 9 e e 9 e e e $ 9 $ |.OX X X.XP.P.P.P.",
"8 8 # # # y W. XOX|. X X'.`.[ 8 8 8 e 8 8 8 t t t e t i t e 8 9 # @ . # @ # @ . @ @ # 8 e e i a 9 t t y 9 $ 8 F OXP.OXOXP.P.P.P.",
") <.y y y l Q.OXOX}.%X>Xa 8 8 9 t t a 8 $ t t i 8 8 i a y $ & $ : # # . . # . . . # # e e e t t 9 e t i e 9 8 8  XOXOXOX~.P.P.P.",
"L.3.l y y g ~  X|.{.pX#X9 8 8 y a i t $ # # $ $ $ 8 8 t 9 $ 2 # # # $ # & $ $ & & # 9 i i e t e $ $ t i e e 9 8 ]. XOXOXOXOX].~.",
"-X-X{.w.j j ( OX|.[.>X) $ 8 9 8 e r : @ # # $ u : # # 9 # # $ # # & t y w q p s p q 9 t y t i 9 $ # # $ r e e 8 8 q.'.OXOXP.OXOX",
"-X-X-X-X~ h _ }.[.'.:X%X8 8 8 # $ # $ $ # # # u : # # @ # @ # 9 z 2.Z c 5.6.6.b.6.1.0 e e i a i # @ @ # i i e 9 8 8 8 8 OXP.P.+X",
"-X-X-X#XW E k b.y 9 :X%X#X) $ $ & & r ' $ $ # # # o # : # y z b.7.Z M j h ..E [ ] 3.l i t e a i @ . . @ # 2 9 $ 8 8 8 8 8 L.L.-X",
"-X-XOX_ h g c 9.e $ E.).#X| { Z Z Z b 4 9 8 $ @ @ @ : e l 5.b.h Z Z h h g j A L ] 1.y i i 9 9 9 # . @ . # # 9 8 @ # @ $ 8 e ~.=X",
"-X-X=XE g h x # $ r T.J.} S { f 5 7 < = 2 e 9 # @ o . p 9.g h j A Z j j h f Z Z 1.l 0 t 2 $ # # . : i u e 9 e 9 @ # # # 8 9 ].-X",
"-X-X'.f d k e @ ) E.P J.U Q g g 7 g 7 1 + e # . o . l g h j 7 h A m h h h Z Z C 3.q 9 # # # # @ . : i i e e e & # @ @ # 8 8  X=X",
"-X-Xw.6 h g 2.E.E.T.K } ( h h d h h h 5 1 $ # . o & x d 7 h j 7 f m j h j v N B 3.z 9 # @ $ # . . # r t e r e r u . . # 8 8 +X+X",
"-X-X@Xd ^ d '.`.T I.} L #.O.! h d h j h x & & e l 9.m.j h 6 7 j 7 V h h g v b Z 1.4.x & 8 % # . @ # # e r r 8 e : # # @ 8 ) OX-X",
"-X=X@X~ +.j X. .Y J.T ;.~ #.+.d ~ j j j d t.t.y.m.e.j h h h 7 7 j 7 h j B Z Z Z D 5.t.9.1 y $ $ # # # # # # # $ . . . @ 8 '.=XOX",
"-X-XOXE a.a.^ -.g.` ` X.a.;.d +...k j h d R Z Z b b 7 7 7 h j 7 g h 7 h N Z N Z Z L W j j 4.1.l $ # # @ @ # e t @ o . # 8  XOX=X",
"-X+XE.1 ~ a.;.@.@.+.O.;.;.~ ;.a.+...W B Z Z Z d h j h h h 7 h h 7 h h b Z Z Z Z ] ] g h j g t.<.p # # . @ @ @ @ @ . @ $ 8 }.OXOX",
"-X) y e f E ^ O.^ f #.h.d.s.a.a.a.&.N Z Z N g j h j h 7 7 d 7 h 7 h ! Z Z Z N n ] ] h g j 7 y.5.1.9 # # # @ . @ . @ # 8 8 }.OX-X",
"-X8 r $ & y ,X3Xl.O.@.2XeXz.a.a.a.O.Z Z Z V h h h m n h h j h M h X.&.v Z n Z Z ] Q h h 7 7 h y.b.z 9 # # # @ . # # $ $ 8 `. XOX",
"-XOXx 9 s 1.E.I.( 6 g.eXeX<Xa.a.O.B Z Z Z O...k Z Z Z n j j k h ! -.a.R Z Z Z Z g j j h 7 j 7 h ] ) F 9 $ . . . @ 8 8 z 5.[.oX-X",
"-X-XOX XH Y.E.U.Q R j.tXeX6X-.@.-.A Z Z Z -.a.=.Z Z v v v $.=.a.! #.s.f.` @.r.*.k h h 7 j 6 7 ^ ' ] ] 0 $ @ . . # 9 t.n.M.}.oX=X",
"-XOX^.A.P Y.E.D & ! g.uXeX-.$.X.a.Z V Z Z @.a.a.Z Z v v v ' :.,.d.-.9X9X$X,Xz.h.,.^ 7 h 6 7 h X.] A ] z 0 # @ # l m.E.(.'.|.|.=X",
"-X|.N.H H q.y 8 $ ( x.uXd.%.O.;.A Z Z v ` 5XyXa.O.v v v v ' D s.k.f.d.qXx.#.^ ! ! ~ ! 6 h h X.h ] N S 4.z $ $ y n.T.U.(.'.}.#X-X",
"-XOX^.N.u 9 $ & 2 :.wX4X$.6X^ a.A Z v ^ tXuX9XuXyXg v v v v v Q ..+.@.7 ;.=.*.^ h h h h 7 ^ ^ h D Z Z 8.1.q y b.J.I.U.H.`.}.OXOX",
"-XOX X{.t i 9 9 f 9X9Xg.-.wX-.a.z.Q 7XuXtX3Xv.<XwXiX3 v v v v b j h j d 6 h h h j j g 6 ^ ^ h B Z Z Z ] m.9.m.w.G.I.E.Y C.}.|.OX",
"-X+X XW.i i # # +.rXx.v.@.eX;.E d.9XuXwX<X-.#.s.~ uX+.v v v b b A j h k g d E ! ! ^ @.X.~ R Z Z Z Z Z A 0.n.0.} Z { U.V.C.}.P.OX",
"-X+X XW.i t # # a.tXx.wX` uXa.%.! d.z.4X,X#.@.a.k 2XyXh v v n Z b Z g g ~ / X.X.X.~ E V N B Z Z b Z N Z Z L ] { P G.E.V.A.[.D.oX",
"-X-X*X`.e # . 2 a.rX7X9Xj.>.qXeX9Xd.3XqXh.! O.a...j yXg.7 v Z b Z Z R g h h d d d V A ~ k ^ h V Z Z Z Z Z Z S K K { U.(.'.Y.D.=X",
"OXOXI.t e # # k a.tX3Xx.eX2X( #.$X3Xj.d.c.^ #.a.,.h X.yXX.4 7 h h j j h j j h h j h j h X.~ ! ! h b Z V x A Z J P P T Y.Y.!.!.Y.",
"P.[.9 u e # $ +.a.qXeXg.eXeXeXd.E E / 8X6XO.#.s.k.h h j $XX.h -.&.h h h h h g g 6 6 6 6 6 7 ! ! ^ h z y e i Z J P P Y V.A.A.D.F.",
"P.Y $ # # : q ..a.s.tX3Xd.>.^ ~ &.a.d.a.z.^ g.! 4X*.h h h ,.4X6X,X;.! d 6 g 6 6 7 7 d d M 7 7 h k ~ j l a a C t r u S S S.A.D.L.",
"P.$ # . # 2.3.k a.a.a.d.,.;.a.a.a.a.a.;.d.E ,.! ,X6Xh.X.&.7X9X%.E M O.,.,.@.! X.&.k h h j h 7 h d ~ ~ g x y a 2.y & 9 $ 8 H B.P.",
"P.D.t x 1.1.T h ,.a.a.a.a.a.a.a.a.&.=.-.s.M ,.-.! s.,X3X3Xs.! @.9XtXeX7X/ M M ~ E O.d.h h j j d g d ! #.e # $ : $ @ $ 1.1.N.V.D.",
"P.P.D.L.aX>XZ.g ..a.a.a.d.a.,...j R Z Z Z Z / a.&.! E ! ! >.wXtXwX;.%.$X@.E M ~ @.E a.a.j h j 5 d d k ~ $ # # o . 9 x 3.2.N.N.N.",
"P.P.L.].aXpX&X:.j j &.+.k h h h b Z Z Z Z b R ! d.,.;.,.,.,XtX7X~ j.tXtXwXM M M / @.! a.a.j j h d d k @.y # # 0 y <.3.3.I N.N.B.",
"P.P.oX-X>X=X;X;Xh h j j h h h Z Z Z Z Z Z n v ^ E #.,.s.,.#.E #.,.l.wXtXtXqX>.g.O.qX^ ^ a.j h j d d k +.+.1.<.1.<.) J N.N.N.N.S.",
"P.].OX-XOX X X^.T g h h h D J S Z Z Z b Z Z b m +.~ 7 ! ! ! ;.,.a.,.d.wXtXtXtXtXh.$X,.~ ^ a.h h h h k ..$.J P T.Y.G H H N.V.N.P.",
"~.-X-X-X-XOX X!.Z.V.P P P P } { J Z Z Z Z Z Z Z h j &.=.&.o...j ..&.a.a.tXtXtXtXj.;.d.;.E -.h h h d h ..+.Z I.E.E.G H N.N.N.N.P.",
"~.-X-XOX-X-X}.D.Z.C.V.Y P K J.{ J Z Z S Z Z b Z v h j h h h h h j j ,.a.wXtXtXeXj.j.a.a.^ O...j h h h k +.P T.E.E.H H N.N.N.F.P.",
"P.+X-X-XL.!._.D.D.A.A.Y P P { J.{ J { ] A Z b b b m h h h h j h j 7 &.a.h.eXtXeX-.#.a.a./ X.a.a.h h j k X.I.E.Y.A.S.C.S.N.N.S.P.",
"P.].-X-XL.L.P.D.D.S.A.V.C.Y K I.| { { ] L Z { S b b v v v v v v v > ,.a.a.s.a.#.;.a.a.a.#.@.a.s.9XtX9X-.&.E.H.V.A.A.D.D.S.N.D.P.",
"P.P.~._.L.P.P.L.D.D.D.A.V.Y Y | | [ ] ] L Z ' b b b v v v v v v v ^ ,.a.+.h d d k &.a.a.*.X.a.v.eXeXeX-.#.@.^ #.( ! ^ R.!.S.P.P.",
"P.P.P.P.P.P.L.L.D.D.D.A.C.Y.I.I.| { L D  .i.( V v v > > - v v v R =.j j a.v.8XwXqXeXa.a.a.%.a.h.0XeX6Xa.a.a.;.;.-.-.+.i.!.P.P.P.",
"P.P.P.P.P.L.P.P.P.D.D.D.`.E.I.| S D Q eX3Xh.a.a.X.* * * * * * ^ k h j eXtXeX7X8XeXtXa.a.a.;.a.;.a.;.~ h h d 7 7 h d f { A.D.P.P.",
"P.P.P.P.P.P.P.L.L.L.D.Y.W.E.} D , n eXk.=.j X.a.s.r.6X8Xk.,.,.h h h eXwX3X2XqXeXwX,Xh =.a.9X6X8X9X3X~ d h h h 5 + O * n K C.D.P.",
"P.P.P.P.P.P.P.L.D.D.D.W.} | ] D , ` k.h g O < -.@.j.j.v.s.=.h j h tX0X$X0Xo.h h j j h +.a.wXeXtXtXtX1X+.d 7 7 5 X X X - Z P D.F.",
"P.P.P.P.P.P.L.D.Y K I.{ ] ] A V , v.a.h * O ; 4XeXeXeX,X&.h h h 0X6X3XeX! d h h h h k a.a.a.9XtXtXeXwXeX0X=.d O O X O - Z Y C.F.",
"P.P.P.P.P.D.D.V.U.} I D L { V B V a.+.h - ; wXtXtXh.-./ h j h =.8X4XuX:.#Xh h h d h *.a.a.a.a.;.;.f.g.v.4X<X,.O + = * v | U.S.P.",
"P.P.P.L.D.Z.Z.Y } L S D D D V u V a.+.g o 7XtXqXd F.R ( d h X.6X8XtX-.J.#Xh d h j +.J.p.a.a.h 6 7 g j &.d.X.X.;.a.a.;.E } U.D.L.",
"P.P.D.Z.Y I.I.J { Q D A C A B B m ;.a.X.2XeXl.7 g H. ..X7 h 6X3XtX3Xh @.R.Q ! h j ..K.T.a.=.h h h d 7 ! h h h h f d O.g g P A.L.",
"P.D.S.V.`.| U U L F V V V B B m = + a.` eXg.p.h 7 A.&XR.h +.4XtX6X! h J.).K.J.j h =.-.H.;.d.j j h ! { '.E h 7 h h h g d d { A.P.",
"D.V.I G N L D D D A B V B B B ; o X #.>.>.#.;.= O K '.= 7 =.eX4XX._ ( @X#X.Xu.h h o.j { + + g j j ( H.oX{ ' J.h 7 6 d d d W A.P.",
"V.P K N N D V B B B V B B 3 # o X > * 2X~ ;.M O X o m * -.@X*.! h _ J.@X#XK.' + 5 + o X X o o o h K.F.oX/.H.[.B + O o h h h V.D.",
"Y H J K J N v D V B V V V 3 ; o < J.1 d.>.H.h O O O ; = d.-XE h 7 ! &X< > ' < O X o o X o o X X X b Y .XD.* , N     o < j R V.P.",
"Z.P N N v N S ] V B B u a.,.d.a.d.@X;./ #.F.7 O O = = = @X@Xh ' H.h D = X O O X X X o @ = X o X     X n X X X o   X O = u | D.P.",
"L.V.P N N J I D B A A a.a.,.#X'.~ _ h M 7 H.{ * = 3 m 3 J..Xh { F.O * = O X O X o * B , > 3 < * O X o v * * o * o o > m ' C.D.P.",
"L.Z.Z.Y P I T { D V O.a.j h ).-X` { { 1 5 3 S > 3 D V B 3 D < O F.v o o X = < n v , > > > , B , v > > v > - > > > , B I Y S.P.P.",
"L.L.L.L.L.A.Y.`.I.' [ X.h ; n -X{ - D.> O < 3 V { T.q.{ ] U D D V.V.3 B A b b J N N v v , , S N v v v v , v v N N N N H C.F.P.P.",
"P.L.P.P.L.P._.+XoX'.(.I.{ D A H.B B J L | I.T.`.[.[.'.[.'.oX}.}.'.(.'.}._.D.F.A.S.V.Y I I H H V.V.V.H K K P V.Z.A.Z.C.D.P.P.P.P.",
"P.P.P.P.P.P.~.-X-XoX-XoX}.oX[.[.'.'.{.oXOXOX-XOX-X-X-XoX=X-X-X-X-X=X-X=X!.P.P.F.P.P.P.L.L.L.D.P.L.L.L.L.L.D.D.D.L.L.P.P.P.P.P.P."
};
