/* XPM */
static char *_be75e8e8e994f29e5f5d84f907aee9bEdlbPX1j7xs7hDd0[] = {
/* columns rows colors chars-per-pixel */
"32 160 129 2 ",
"   c #FFFFFFFF",
".  c #3B651A",
"X  c #3B681A",
"o  c #3F6C22",
"O  c #436D23",
"+  c #457125",
"@  c #497427",
"#  c #4A7927",
"$  c #477329",
"%  c #497529",
"&  c #4D7A2B",
"*  c #517D2C",
"=  c #517734",
"-  c #547F30",
";  c #587E31",
":  c #55822F",
">  c #5A862F",
",  c #5A882F",
"<  c #558331",
"1  c #5A8633",
"2  c #5E8A33",
"3  c #5C8639",
"4  c #5F893C",
"5  c #628E35",
"6  c #618D39",
"7  c #649136",
"8  c #689236",
"9  c #65923A",
"0  c #6A963B",
"q  c #6D9A3C",
"w  c #729D3E",
"e  c #75A33F",
"r  c #588040",
"t  c #668E42",
"y  c #6A9743",
"u  c #6E9B42",
"i  c #6F994A",
"p  c #729E43",
"a  c #739E49",
"s  c #76A144",
"d  c #7AA544",
"f  c #7EA947",
"g  c #76A24A",
"h  c #7AA54E",
"j  c #7AA64E",
"k  c #7AA74C",
"l  c #7FA74C",
"z  c #7CA74F",
"x  c #7AA64B",
"c  c #7FAA48",
"v  c #7DA94C",
"b  c #7CA84D",
"n  c #7FAB4C",
"m  c #7DA94E",
"M  c #7CA94F",
"N  c #7CAA4F",
"B  c #7DAA4C",
"V  c #78A550",
"C  c #78A550",
"Z  c #7FAA50",
"A  c #7FAA52",
"S  c #7FAB52",
"D  c #7DA954",
"F  c #7FAA52",
"G  c #80AA49",
"H  c #81AD4A",
"J  c #80AC4D",
"K  c #83AD4C",
"L  c #80AC4E",
"P  c #83AE4F",
"I  c #82AD4C",
"U  c #86B04D",
"Y  c #86B14E",
"T  c #87B14F",
"R  c #85B24F",
"E  c #86B14E",
"W  c #80AD50",
"Q  c #82AF51",
"!  c #81AC52",
"~  c #83AF52",
"^  c #82AE53",
"/  c #84AE51",
"(  c #80AC54",
")  c #80AD54",
"_  c #84AF55",
"`  c #82AE52",
"'  c #82B053",
"]  c #85B050",
"[  c #84B151",
"{  c #84B053",
"}  c #85B053",
"|  c #87B453",
" . c #86B254",
".. c #87B255",
"X. c #84B156",
"o. c #84B357",
"O. c #87B356",
"+. c #87B455",
"@. c #87B557",
"#. c #85B254",
"$. c #89B350",
"%. c #89B553",
"&. c #8AB552",
"*. c #8BB552",
"=. c #8CB653",
"-. c #89B454",
";. c #89B455",
":. c #8AB554",
">. c #8AB655",
",. c #8AB556",
"<. c #8CB756",
"1. c #8AB554",
"2. c #8DB857",
"3. c #8FB956",
"4. c #8EB957",
"5. c #85B258",
"6. c #85B258",
"7. c #88B458",
"8. c #89B558",
"9. c #89B658",
"0. c #8CB758",
"q. c #8AB658",
"w. c #8CB858",
"e. c #8DB858",
"r. c #8CBA59",
"t. c #8EBA58",
"y. c #8DB958",
"u. c #92BB57",
"i. c #92BB57",
/* pixels */
"                                                                ",
"                                                                ",
"                                                                ",
"                            = O + O                             ",
"                    r o O $ & & # & % o O                       ",
"                  o < 3 r y 6 7 < 5 < & % O .                   ",
"              & : 2 y y a g p q 7 1 1 % $ O $ + $               ",
"          , 5 1 9 G k S _ ) P d u y 1 % O O O O O .             ",
"        8 q d 9 0 R R | O._ Q ( g 6 ; * O @ % % % O O O         ",
"      5 0 q s s g N g Q :.] x a a 3 1 1 * < 1 * % + O O O       ",
"        p u x Q k y 9 g ] Q d G g t 6 1 5 6 5 5 & O $ $ +       ",
"        0 g S 6.@.v v ] P d 0 z ( C a 0 2 1 8 5 * $ + & &       ",
"      q c z ] q.q.) -.:.:.K p d 6.) x 0 5 % * 5 + : @ +         ",
"      e u g C ] 2.r.t.r.<.=.=.:.q.O.n d 5 : @ * : : & @         ",
"        6 a q w Y %.0.6.<.2.u.r.O.%.k s 0 8 5 < 1 , * @         ",
"        u f s p p w g D ] ( / z x Y f q w 0 5 & * 2 8           ",
"          d K G p 0 t 0 d -.G s s f w w 9 5 & & & 2 7           ",
"            d d J O./ e w G G w 4 0 9 0 < : # * * >             ",
"              u x J x p d s e e 2 2 5 7 1 , , < < :             ",
"                d x x 0 u q w q 0 q q 7 7 7 7 , :               ",
"                    d q q q q 8 8 0 q 7 5 7                     ",
"                      0 8 0 5 5 7 0 q 9 7                       ",
"                        8 0     7                               ",
"                                                                ",
"                                                                ",
"                                                                ",
"                                                                ",
"                                                                ",
"                                                                ",
"                                                                ",
"                                                                ",
"                                                                ",
"                                                                ",
"                                                                ",
"                                                                ",
"                            = O + +                             ",
"                    r o O @ & & % & & o O                       ",
"                  o ; 1 4 y 9 7 < 6 < % % O .                   ",
"              & < 4 y u i g a q 7 2 3 @ $ O O + #               ",
"          1 8 1 7 c x S ) ) n g y 0 1 % O O O O O .             ",
"        8 w e 9 y R ] %.O.) O.S g 9 < & O @ % & @ O o O         ",
"      5 0 q s a g N g ' :.] d a a 3 1 3 * < 1 < % + O O O       ",
"        e q k S g y 9 g ] P d J g t 4 3 2 7 5 1 & O $ @ O       ",
"        q g S o.@.N c ] Q d 0 x S N u 0 3 1 0 8 * + $ & &       ",
"      q c N / q.6.Q -.<.:.P d s O.Q x 0 5 * * 5 + < + +         ",
"      s u a C Y <.r.2.r.2.=.%.;.q.O.v d 5 * @ * : * * %         ",
"        4 p w w -.-.0.6.<.<.u.<.7.:.d p 0 8 2 * 1 , & @         ",
"        w G a w p w g S ] ( / z x Y d w w q 5 * * 2 8           ",
"          d K c s 9 t 0 d %.G a a G w e 9 5 & & & 2 8           ",
"            d d v O./ d e H G p 5 8 8 0 1 * @ * : <             ",
"              u c v x p d d p e 5 2 5 8 2 1 : : , <             ",
"                s c g 0 q 0 w q 8 q q 5 7 7 7 , :               ",
"                    d q 0 w q 9 7 q q 7 2 7                     ",
"                      0 8 0 5 5 7 0 q 9 7                       ",
"                        7 0     7                               ",
"                                                                ",
"                                                                ",
"                                                                ",
"                                                                ",
"                                                                ",
"                                                                ",
"                                                                ",
"                                                                ",
"                                                                ",
"                                                                ",
"                                                                ",
"                                                                ",
"                            = O + O                             ",
"                    r O O @ & & % & & o O                       ",
"                  o < < 4 y 6 9 < 7 < & & O .                   ",
"              % : 4 y i i a p q 7 1 < % $ O O + %               ",
"          , 9 1 7 c x S Q S P x u 0 3 % O O O + O .             ",
"        8 w d 9 y Y ' :.O._ Q S g 9 < & O @ % & $ O O O         ",
"      5 0 q s s s C s Q :.] x s i 3 1 2 * < 1 < % + + O O       ",
"        w u g Q x y 0 g O.P d n C t 4 1 2 5 5 1 & O % % O       ",
"        q g S o.q.v v / Q s 0 x S C g 9 2 2 9 8 & + + & &       ",
"      q f N ' 6.;.( ;.<.-.K p d O.' x 0 2 % * 5 + : + +         ",
"      e u g C R <.0.r.<.4.=.=.<.6.@.v d 6 : @ * : * * %         ",
"        4 a w p T =.0.6.<.4.i.r.@.%.c p 8 q 5 * 1 , * @         ",
"        q f s p p p g ( K ( / C x Y d w w 8 5 * * 2 8           ",
"          d K c s 9 t 0 d $.x s g f e w 0 2 & & & 2 8           ",
"            d d Q ] Q s s K d s 7 7 9 9 1 : + : * ,             ",
"              u x v x s d d e e 2 5 2 7 , 1 : : < :             ",
"                d c g 0 u 0 w w 8 q w 7 7 8 7 , <               ",
"                    d q 0 q q 8 7 q q 7 2 7                     ",
"                      0 8 0 5 5 7 q 0 9 7                       ",
"                        8 0     9                               ",
"                                                                ",
"                                                                ",
"                                                                ",
"                                                                ",
"                                                                ",
"                                                                ",
"                                                                ",
"                                                                ",
"                                                                ",
"                                                                ",
"                                                                ",
"                                                                ",
"                            = O + O                             ",
"                    r o O $ & & # & % o O                       ",
"                  o < 3 r y 6 7 < 5 < & % O .                   ",
"              & : 2 y y a g p q 7 1 1 % $ O $ + $               ",
"          , 5 1 9 G k S _ ) P d u y 1 % O O O O O .             ",
"        8 q d 9 0 R R | O._ Q ( g 6 ; * O @ % % % O O O         ",
"      5 0 q s s g N g Q :.] x a a 3 1 1 * < 1 * % + O O O       ",
"        p u x Q k y 9 g ] Q d G g t 6 1 5 6 5 5 & O $ $ +       ",
"        0 g S 6.@.v v ] P d 0 z ( C a 0 2 1 8 5 * $ + & &       ",
"      q c z ] q.q.) -.:.:.K p d 6.) x 0 5 % * 5 + : @ +         ",
"      e u g C ] 2.r.t.r.<.=.=.:.q.O.n d 5 : @ * : : & @         ",
"        6 a q w Y %.0.6.<.2.u.r.O.%.k s 0 8 5 < 1 , * @         ",
"        u f s p p w g D ] ( / z x Y f q w 0 5 & * 2 8           ",
"          d K G p 0 t 0 d -.G s s f w w 9 5 & & & 2 7           ",
"            d d J O./ e w G G w 4 0 9 0 < : # * * >             ",
"              u x J x p d s e e 2 2 5 7 1 , , < < :             ",
"                d x x 0 u q w q 0 q q 7 7 7 7 , :               ",
"                    d q q q q 8 8 0 q 7 5 7                     ",
"                      0 8 0 5 5 7 0 q 9 7                       ",
"                        8 0     7                               ",
"                                                                ",
"                                                                ",
"                                                                ",
"                                                                ",
"                                                                ",
"                                                                ",
"                                                                ",
"                                                                ",
"                                                                ",
"s f p w 0 2 & & * 2 7                     d K G s 0 t q d $.G a ",
"6 0 9 0 < : # * * :                         d x v ] / s w K G p ",
"2 2 2 7 2 1 : < 1 :                           u c v x p d s e e ",
"0 q q 8 7 7 7 , :           @ . . X             s c g 0 u 0 w q ",
"8 0 q 7 5 7         o o O & & & $ & & O o           s q 0 w 0 8 ",
"7 0 q 9 7       + + : 3 4 y 6 6 < 7 < & % O O         0 8 0 7 5 ",
"7             * * 6 y y i g g q 7 1 1 @ + O O + &       8 0     ",
"          2 8 < 9 G N C ) Q n g u 0 3 % + O O O O o @           ",
"        7 w f 9 9 Y ' :.O._ Q S g 9 < & O @ % & + + O O ;       ",
"      5 8 q s a s S s Q ;./ d g a 3 1 3 * < 1 < % + + o O       ",
"      2 e w k S g y y x O.P d v g t 4 3 2 7 5 1 & O % % @       ",
"        q g S 6.6.n c ' P d 0 x S N u 0 3 1 0 8 * + + & &       ",
"      u x z ] q.7.Q -.<.%.P d s O.Q x 0 5 * * 5 + < + +         ",
"      w p a C ] <.r.2.r.2.=.%.;.q.O.v d 5 * @ * : * * %         ",
"        6 p w w K :.0.6.<.<.u.<.7.:.d p 0 8 2 * 1 , & @         ",
"        w G p p p p g D Y ( / z x Y d w w q 5 * * 2 8           ",
"          d K c s 9 t 0 d $.G a p G w e 0 5 & & * 2 8           ",
"            d d v O./ d e K G p 5 8 9 8 1 * @ * * ,             ",
"              u c v x s d s e e 2 2 5 7 2 1 : : < <             ",
"X X             s c g 0 y q w q 0 q w 5 7 7 7 , :           $ . ",
"% & @ O O           s q 0 w q 7 8 q 0 8 2 7         o O + $ & & ",
"< 7 : & % O O         0 8 0 5 5 7 0 q 9 7       + + < 1 r y 6 7 ",
"7 3 1 @ + O + + @       8 0     7             * - 4 y u a g p q ",
"u 9 3 % O O O + O O @                     2 7 1 7 c x S ) D P x ",
"k 9 < & + @ @ % $ + O O 1               8 w d 9 0 R R ] O.) / v ",
"i 3 3 2 * * 3 < @ + O O O             5 0 q s g g N g ' :.] x g ",
"g t 4 1 2 5 5 1 & O % + %             2 s q x S x y 0 g O.P d v ",
"S x a 0 2 2 8 8 * + + & &               q g S ' 6.v v ] P d 0 x ",
"o.' k 0 2 % * 5 @ : + +               q c N O.@.q.S %.:.:.P d s ",
"6.@.n s 5 : % % * : : @               s u g C Y w.r.t.r.<.=.=.:.",
"@.%.x s q 0 5 > 1 1 * @                 4 a q w Y :.q.6.<.2.u.2.",
"x Y d w w q 1 * & 2 7                   q c s s s w g D ] S / z "
};
