/* XPM */
static char *d82bb19784c74aebd34e303a04a9d546XWMv3HzpCfp7d3JT[] = {
/* columns rows colors chars-per-pixel */
"32 160 128 2 ",
"   c None",
".  c #2C2D25",
"X  c #2F3228",
"o  c #32352B",
"O  c #35392E",
"+  c #3A3D32",
"@  c #3D4135",
"#  c #424637",
"$  c #434639",
"%  c #45493C",
"&  c #4A4F40",
"*  c #4E5343",
"=  c #515646",
"-  c #535946",
";  c #535748",
":  c #565A4A",
">  c #595E4D",
",  c #5C614F",
"<  c #5E6351",
"1  c #616653",
"2  c #646956",
"3  c #666C58",
"4  c #696E5A",
"5  c #6C725D",
"6  c #6F7461",
"7  c #717762",
"8  c #747A64",
"9  c #787F67",
"0  c #777C68",
"q  c #797F6A",
"w  c #7C826C",
"e  c #7F8571",
"r  c #818672",
"t  c #848A75",
"y  c #878C7A",
"u  c #888E7A",
"i  c #8B917E",
"p  c #8E9381",
"a  c #929786",
"s  c #919785",
"d  c #919785",
"f  c #939887",
"g  c #949987",
"h  c #939887",
"j  c #949988",
"k  c #949989",
"l  c #959989",
"z  c #949A88",
"x  c #959A89",
"c  c #969A89",
"v  c #969B89",
"b  c #969B8A",
"n  c #979B8A",
"m  c #979C8B",
"M  c #969A89",
"N  c #989D8D",
"B  c #999D8D",
"V  c #999E8E",
"C  c #9A9E8E",
"Z  c #9A9F8E",
"A  c #999E8E",
"S  c #9B9F90",
"D  c #9CA091",
"F  c #9CA191",
"G  c #9DA191",
"H  c #9EA291",
"J  c #9DA192",
"K  c #9DA292",
"L  c #9EA293",
"P  c #9FA394",
"I  c #9DA292",
"U  c #A0A496",
"Y  c #A0A596",
"T  c #A1A597",
"R  c #A1A597",
"E  c #A1A698",
"W  c #A2A698",
"Q  c #A3A699",
"!  c #A3A799",
"~  c #A3A799",
"^  c #A4A89A",
"/  c #A4A89B",
"(  c #A5A99C",
")  c #A6AA9C",
"_  c #A6AA9D",
"`  c #A7AD9E",
"'  c #A5A99C",
"]  c #A9ACA0",
"[  c #ABAEA2",
"{  c #ACAFA3",
"}  c #ABAEA2",
"|  c #ACB0A4",
" . c #ADB0A5",
".. c #AEB1A6",
"X. c #AEB2A6",
"o. c #AFB2A7",
"O. c #ADB1A5",
"+. c #B0B3A8",
"@. c #B0B3A9",
"#. c #B0B4A8",
"$. c #B1B4A9",
"%. c #B2B4AA",
"&. c #B3B6AC",
"*. c #B4B6AC",
"=. c #B4B7AD",
"-. c #B2B5AA",
";. c #B5B8AE",
":. c #B6B8AF",
">. c #B6B9AF",
",. c #B6B8AF",
"<. c #B6B9B0",
"1. c #B7B9B0",
"2. c #B7B9B0",
"3. c #B8BAB1",
"4. c #B8BBB2",
"5. c #B9BBB2",
"6. c #B9BBB3",
"7. c #BABCB4",
"8. c #BABDB5",
"9. c #BBBDB5",
"0. c #BBBEB5",
"q. c #B9BCB3",
"w. c #BDC0B8",
"e. c #BEC1B9",
"r. c #BEC1B9",
"t. c #C2C4BD",
"y. c #C3C5BE",
"u. c #C3C5BE",
/* pixels */
"                            5 : - *                             ",
"                        8 4 2 r l 0 > =                         ",
"                      6 w i W 2.7.n w , *                       ",
"                      4 l ;.;.7...g y 4 * *                     ",
"                    : 8 S J S y w 0 w 2 = : : * *               ",
"                6 > * 8 u d 0 w 5 = > : 1 w w 2 > @             ",
"            i ! S p 0 4 t i a W g 2 * = 0 y t 3 1 *             ",
"            ` t.e.{ H w 8 d H b l w : , w i 8 < , %             ",
"          8 Y 6.+.W d 4 6 } ..} ^ y , , y 8 2 3 , * @           ",
"          : 8 d 0 8 q , r 2.:.2.^ t < > q 2 2 5 : * * @ +       ",
"        , 5 w w 5 4 8 < r J $._ m q 1 : 4 2 4 2 = : * - * X     ",
"      8 H Y y w N m t 1 t t N y w 3 > : : < < = < < > 5 : *     ",
"      H $.! y l +.! r < 8 8 e w , , : = * : ; > 5 , < 2 = -     ",
"    9 ^ 9.Y u ` *.p 2 > > 1 5 4 = > = * * * < 5 5 , 1 5 5 : o   ",
"    w _ 7.y i ;.W 7 7 k u < > 4 , 5 , * * = : , 4 > < 5 4 , #   ",
"    t _ H e W | S 4 W y.9.J p { Y N w 1 : 5 5 2 : = 1 4 , > *   ",
"    t t t e ! i y t 6.w.$.J Y 2.;.| y , 9 y i w 7 : - , > : :   ",
"    y 8 4 u Y r 4 t @.*.! l $.6.5...s : u u i r 5 = = = - > >   ",
"    4 = 2 S P 2 2 e y d w t | 7...i 8 - 7 w w 5 : - > : - > : . ",
"      % 0 l p > 5 w t 3 1 5 N W ^ 9 1 > 2 3 5 , : - 1 3 = * =   ",
"        w e 8 < t H [ 8 > 2 t d t , > , 3 q 4 : : ; < 2 * +     ",
"        4 < , r _ 5...5 , q t 8 8 2 < > 5 w 7 > < > : < * X     ",
"          $ , H 5.| Z 8 < P m w 8 : , : 4 w 2 , 1 < * > =       ",
"            1 K K v y 5 5 #.W f i 5 4 = , w 1 , , : * ; :       ",
"            2 f p e w 5 p 2.7.! p w 8 * : 5 2 > = * % O         ",
"            8 y q 6 6 < J 2.=.W y w 5 * * < 2 , @ + X           ",
"              9 3 < < 6 _ =.} k w 8 4 * * , : $                 ",
"                : : : e D J b y 4 5 4 * * = *                   ",
"                  =   < e y y 0 : 3 4 * % * +                   ",
"                        * 8 w 5 - : * .                         ",
"                            , : % * o                           ",
"                                                                ",
"                            5 : - *                             ",
"                        8 4 1 r l 9 , =                         ",
"                      6 w i W 2.7.m w , *                       ",
"                      4 m ;.;.7.| g y 3 * *                     ",
"                    : 8 N U n y w 0 w 3 - : : * *               ",
"                7 > * 7 i f 9 w 4 - : : < w w 2 > @             ",
"            i ! S i 0 4 r i d ! f 3 * - 0 u t 3 1 %             ",
"            ` t.w...H w 8 f S m f w : , w i 7 1 > *             ",
"          8 Y 6.$.^ d 4 5 } @.[ ^ y , , y 0 2 4 > * @           ",
"          : 8 s 0 8 w > e 2.2.2.! r < > 9 1 2 5 : * * @ +       ",
"        , 5 w w 4 5 8 < r H =._ l q 1 : 5 1 5 3 * : = : * o     ",
"      8 H Y y w N l t 1 t t N y w 4 > : : < , * < < : 4 = *     ",
"      H =.W y f @._ e 1 8 8 r w , < : = * : = > 5 < < < - -     ",
"    w W 7.P y [ =.p 2 > > 1 5 3 = > = * * * < 5 6 , 1 5 5 : o   ",
"    w _ 6.y p *.W 7 7 b y < > 4 < 4 < * * = : > 4 > < 5 3 , #   ",
"    t ^ D e W } S 4 W y.7.H i [ W N w 1 : 5 5 2 : = 1 5 < > *   ",
"    t t r r ~ i y t >.w.$.K Y 2.;.| t , 8 y i w 5 : - < > : :   ",
"    y 8 3 y U t 4 t #.;.W m $.6.6.o.s : y i i t 6 * = = ; > >   ",
"    4 = 2 H H 2 3 r y p w t [ 7...i 0 - 8 w w 5 : ; > : = : : . ",
"      % q n i : 5 w y 3 1 5 N W ^ 0 1 > 2 3 5 , : ; 1 4 = : *   ",
"        w r 7 1 t H [ 8 > 2 t f t , > , 3 9 3 : : - < 2 * @     ",
"        4 < , t _ 5.| 5 , q t 8 8 1 1 , 5 w 7 : 1 : : < * X     ",
"          $ > H 5...N 7 < P l w 7 : , : 3 w 3 , 1 < = : =       ",
"            1 J K m y 5 5 #.W k i 5 3 - , w 1 1 , : * ; ;       ",
"            2 g i w w 5 p 2.7.! i w 7 - - 4 2 > : * % O         ",
"            8 y w 5 7 1 J ;.=.W u r 5 = = 1 1 > # + X           ",
"              9 3 1 1 6 _ =.{ f w 8 3 % * > : $                 ",
"                : : : w H J l y 4 7 4 : * = =                   ",
"                  *   < r y y 0 : 2 3 % % - +                   ",
"                        * 8 e 4 - : = .                         ",
"                            , : % * O                           ",
"                                                                ",
"                            4 > : *                             ",
"                        8 4 2 r g 0 , =                         ",
"                      6 w i W ;.5.l w , *                       ",
"                      4 m *.2.6...g y 4 * *                     ",
"                    : 8 D J N y w 0 w 2 - : : - *               ",
"                5 , * 8 u d q w 4 - > : 1 w w 1 > @             ",
"            i ^ D i 0 4 r p a W l 2 * = 0 y t 4 2 %             ",
"            ` t.w...D w 8 d H l l w : , w y 7 1 , *             ",
"          8 W 5.+.! g 4 5 { ..[ _ y , , y 8 2 3 > * @           ",
"          : 8 d 0 7 q , e 2.:.6.^ r < : q 2 3 5 : * * + +       ",
"        , 5 w w 5 4 8 > r J *._ m 0 1 > 5 1 4 2 = : = : * o     ",
"      8 H Y y w N m t 2 t t S u w 3 , - : 1 , = < < : 4 : &     ",
"      H +.W y g +.! r 1 8 8 r w , , : = * : = > 6 , < 1 - -     ",
"    w ^ 7.Y y [ *.p 2 > > 1 5 4 - > = * * = , 5 5 , < 5 5 : o   ",
"    w _ 9.y p ;.^ 8 7 l y , > 4 < 4 , * * = - , 3 > 1 5 3 , #   ",
"    t _ H w Y | N 4 Y y.9.S i ..Y N w 1 : 5 5 2 > = 1 4 < > *   ",
"    t t e e ! p y t 4.w.$.H P 2.;.| y , 8 y i r 7 , - 1 : > :   ",
"    y 8 4 u P t 4 r $.;.! m $.5.5.#.s : u y i r 5 % = = : > :   ",
"    4 = 2 J H 2 2 w i p q t ..7.| i 8 - 8 r w 5 : = : : - : > . ",
"      $ q l p > 6 w y 2 1 5 N ! ! 9 1 , 2 3 4 , : - 2 3 = * =   ",
"        w e 7 < t H [ 8 , 2 t d t , , , 3 w 5 : : = 1 2 = @     ",
"        4 < < t _ 6.[ 5 , q t 8 8 1 , , 5 w 5 : 1 : : , % X     ",
"          $ > H 4.| Z 8 < P l w 7 , , : 4 w 3 , 2 , = , :       ",
"            1 H P l y 5 5 $.W f i 5 3 - , 8 2 , , : % : :       ",
"            2 g i e w 5 p 2.7.! i r 7 = - 5 3 > - * % +         ",
"            8 y w 5 6 < K 2.<.P y w 5 = % 1 1 , @ + X           ",
"              9 4 < < 6 ( =.| k r 7 5 * : , : #                 ",
"                : : : e D H m y 3 5 3 : % : =                   ",
"                  ;   < e y t w : 4 4 % % * +                   ",
"                        * 8 w 4 * : * .                         ",
"                            > : * & o                           ",
"                                                                ",
"                            5 : - *                             ",
"                        8 4 2 r l 0 > =                         ",
"                      6 w i W 2.7.n w , *                       ",
"                      4 l ;.;.7...g y 4 * *                     ",
"                    : 8 S J S y w 0 w 2 = : : * *               ",
"                6 > * 8 u d 0 w 5 = > : 1 w w 2 > @             ",
"            i ! S p 0 4 t i a W g 2 * = 0 y t 3 1 *             ",
"            ` t.e.{ H w 8 d H b l w : , w i 8 < , %             ",
"          8 Y 6.+.W d 4 6 } ..} ^ y , , y 8 2 3 , * @           ",
"          : 8 d 0 8 q , r 2.:.2.^ t < > q 2 2 5 : * * @ +       ",
"        , 5 w w 5 4 8 < r J $._ m q 1 : 4 2 4 2 = : * - * X     ",
"      8 H Y y w N m t 1 t t N y w 3 > : : < < = < < > 5 : *     ",
"      H $.! y l +.! r < 8 8 e w , , : = * : ; > 5 , < 2 = -     ",
"    9 ^ 9.Y u ` *.p 2 > > 1 5 4 = > = * * * < 5 5 , 1 5 5 : o   ",
"    w _ 7.y i ;.W 7 7 k u < > 4 , 5 , * * = : , 4 > < 5 4 , #   ",
"    t _ H e W | S 4 W y.9.J p { Y N w 1 : 5 5 2 : = 1 4 , > *   ",
"    t t t e ! i y t 6.w.$.J Y 2.;.| y , 9 y i w 7 : - , > : :   ",
"    y 8 4 u Y r 4 t @.*.! l $.6.5...s : u u i r 5 = = = - > >   ",
"    4 = 2 S P 2 2 e y d w t | 7...i 8 - 7 w w 5 : - > : - > : . ",
"      % 0 l p > 5 w t 3 1 5 N W ^ 9 1 > 2 3 5 , : - 1 3 = * =   ",
"        w e 8 < t H [ 8 > 2 t d t , > , 3 q 4 : : ; < 2 * +     ",
"        4 < , r _ 5...5 , q t 8 8 2 < > 5 w 7 > < > : < * X     ",
"          $ , H 5.| Z 8 < P m w 8 : , : 4 w 2 , 1 < * > =       ",
"            1 K K v y 5 5 #.W f i 5 4 = , w 1 , , : * ; :       ",
"            2 f p e w 5 p 2.7.! p w 8 * : 5 2 > = * % O         ",
"            8 y q 6 6 < J 2.=.W y w 5 * * < 2 , @ + X           ",
"              9 3 < < 6 _ =.} k w 8 4 * * , : $                 ",
"                : : : e D J b y 4 5 4 * * = *                   ",
"                  =   < e y y 0 : 3 4 * % * +                   ",
"                        * 8 w 5 - : * .                         ",
"                            , : % * o                           ",
"                                                                ",
";.[ y , 0 y i r 7 - = < > 1 1 : - = q w t w W p y t 2.w.$.U Y >.",
"5.@.p : y y i r 7 % = : 4 4 1 r l 9 , = , i Y r 5 r +.;.! l $.6.",
"..p 0 - 8 w w 5 , = > 2 r i ~ ,.9.n w , * y H 1 2 e y d w r | 9.",
"W 9 1 > 2 3 5 , : - 2 3 g ,.>.5.| g y 3 * : r > 5 w t 3 1 5 N Y ",
"t < > , 3 q 4 : - : : 8 Z H Z y w 0 w 2 - : : = < N [ 8 > 2 t s ",
"8 1 < , 5 w 8 7 4 > = 7 i s 9 w 4 - > : 1 w w 2 : u ..5 , q t 0 ",
"8 : , : 4 w t ^ J u 9 3 t u s ~ g 3 * = 8 y t 3 1 < N 8 , Y l w ",
"i 5 4 = , w ^ t.e.+.C r 8 f C m g w : , w i 8 1 , = 0 5 4 $.W f ",
"p w 7 = : 0 Y 6.%.! l 4 5 { @.[ ^ y , , y 0 1 3 > * < 5 i 6.5.^ ",
"y w 5 = = : 8 s 9 8 q > r :.*.6.^ r < > 0 2 3 5 : * * = 5 | ;.Y ",
"w 8 4 * > 5 w w 4 4 8 , t J *._ l q 1 > 5 1 5 2 = ; = ; * y | f ",
"4 5 4 6 U Y y w B l t 2 t t N u w 3 > = : , , = < < > 4 ; > g y ",
"> 2 5 H +.( y k +.( r 1 7 8 r w , < : = * : ; > 6 > < 1 = : 0 q ",
"= : 3 ! 7.U y [ =.p 1 > > 1 5 4 = > ; * * = < 5 5 < 1 5 5 : 2 4 ",
"& & 4 _ 6.y p :.W 7 7 b y < > 3 < 4 < * * = : > 3 > < 5 3 , - : ",
"    q _ H e U { S 4 W y.9.H i { Y N w 1 : 5 5 2 : = 1 5 < > *   ",
"; + 0 w t w ! i y t 6.w.$.H W 2.2.[ t , 8 y i r 5 ; = < > < 1 : ",
"l 0 , = , i P t 4 t +.*.! l $.6.2.@.s > y y i r 6 = = : 5 4 2 r ",
"7.l w , * y K 2 2 r y d w t { 7...p 8 ; 7 r w 5 : ; > 2 w i W ;.",
"..l i 3 * = t : 5 w t 3 1 5 N W ! 0 1 > 2 3 5 , : ; 1 4 m *.;.7.",
"w 0 w 3 - : : - < B [ 7 > 2 t d t , > , 3 9 3 : : : : 8 S J S y ",
"4 - : : < e w 2 > y { 6 , q t 0 7 2 < , 5 w 7 7 4 , = 7 u d 0 w ",
"l 4 * - 0 y t 4 1 < m 7 < Y l w 7 > , : 3 w t ^ S p 0 4 t i a W ",
"l 0 : > w i 7 < > * 9 7 4 +.W d i 5 3 = 1 w ` t.e.{ H w 8 d H l ",
"^ y , , y 8 2 3 > * , 5 p 6.6.! i r 7 % : 9 Y 6.o.! f 4 4 { +.[ ",
"^ t < : 0 2 3 5 : * * - 4 { *.W y r 7 - = : 8 s 9 7 q > r :.:.6.",
"m 0 1 > 5 1 4 2 * : = : * y { f r 7 4 % > 5 w w 4 4 8 , t H *._ ",
"w 3 , - : < < = < 1 : 4 : > f y 3 7 4 9 U ~ y w N m t 2 t t C y ",
", < : * = - = > 5 , < 1 ; : q q : 3 5 H #.~ y g +._ r 1 7 8 r q ",
"= > = * * = < 5 5 < 1 5 5 : 2 4 % : 3 ! 5.Y u ` +.s 2 > > 1 4 4 ",
", 5 , * * = ; , 3 > < 5 2 < - : % - 5 ) 5.y i *.! 8 7 k y < > 3 ",
"Y Z w 1 : 5 5 2 : = 1 5 < > *       w ` U r ~ | C 4 U u.9.H s { "
};
