/* XPM */
static char *_2ac5e7d71d14c2981dd11f5fe26e043CmI5RdaBSgBuYsqy[] = {
/* columns rows colors chars-per-pixel */
"32 160 147 2 ",
"   c None",
".  c #7D4D36",
"X  c #7F4E38",
"o  c #804F37",
"O  c #824F38",
"+  c #855037",
"@  c #85523A",
"#  c #8A563D",
"$  c #8E593F",
"%  c #915A3F",
"&  c #8D5740",
"*  c #8E5A40",
"=  c #945D42",
"-  c #995E44",
";  c #966144",
":  c #9B6142",
">  c #9A6243",
",  c #996143",
"<  c #996044",
"1  c #986144",
"2  c #996144",
"3  c #986045",
"4  c #986145",
"5  c #996145",
"6  c #9A6144",
"7  c #9B6144",
"8  c #986244",
"9  c #996244",
"0  c #9A6245",
"q  c #9B6245",
"w  c #9B6345",
"e  c #996046",
"r  c #9B6046",
"t  c #9A6146",
"y  c #9B6146",
"u  c #9B6246",
"i  c #9A6346",
"p  c #9B6346",
"a  c #9A6347",
"s  c #9C6045",
"d  c #9D6145",
"f  c #9E6145",
"g  c #9C6245",
"h  c #9D6245",
"j  c #9C6345",
"k  c #9C6046",
"l  c #9C6146",
"z  c #9C6247",
"x  c #9F6347",
"c  c #9B6547",
"v  c #9C6445",
"b  c #9D6445",
"n  c #9D6546",
"m  c #9D6447",
"M  c #9D6547",
"N  c #9E6447",
"B  c #9F6447",
"V  c #9E6547",
"C  c #9F6647",
"Z  c #9B6246",
"A  c #9D6348",
"S  c #9E6248",
"D  c #9F6348",
"F  c #9C6448",
"G  c #9D6448",
"H  c #9D6549",
"J  c #9C6649",
"K  c #9F6748",
"L  c #9F6649",
"P  c #9E6749",
"I  c #9F6749",
"U  c #9E664A",
"Y  c #9F674A",
"T  c #9E6549",
"R  c #9F6849",
"E  c #A06447",
"W  c #A06547",
"Q  c #A06547",
"!  c #A16548",
"~  c #A06549",
"^  c #A06649",
"/  c #A16749",
"(  c #A26648",
")  c #A1654A",
"_  c #A1664A",
"`  c #A0674A",
"'  c #A3664B",
"]  c #A2674B",
"[  c #A16649",
"{  c #A06849",
"}  c #A26949",
"|  c #A1684A",
" . c #A1694A",
".. c #A1684B",
"X. c #A1694B",
"o. c #A2684A",
"O. c #A2694A",
"+. c #A2684B",
"@. c #A3684B",
"#. c #A3694B",
"$. c #A26A4A",
"%. c #A36A4A",
"&. c #A36B4B",
"*. c #A4684A",
"=. c #A5694B",
"-. c #A66A4B",
";. c #A36A4D",
":. c #A36B4D",
">. c #A46A4C",
",. c #A46B4C",
"<. c #A46B4D",
"1. c #A36E4C",
"2. c #A56C4D",
"3. c #A76F4C",
"4. c #A46C4E",
"5. c #A56D4E",
"6. c #A56C4F",
"7. c #A66C4E",
"8. c #A76C4E",
"9. c #A76D4E",
"0. c #A56E4F",
"q. c #A76F4E",
"w. c #A66E4F",
"e. c #A76E4F",
"r. c #A46B4C",
"t. c #A86E4E",
"y. c #A7704F",
"u. c #A7704E",
"i. c #A9724F",
"p. c #A8734F",
"a. c #A9724F",
"s. c #A76F51",
"d. c #A76F50",
"f. c #A86F50",
"g. c #A86E50",
"h. c #A77150",
"j. c #A77150",
"k. c #A87050",
"l. c #A87051",
"z. c #A87351",
"x. c #AB7250",
"c. c #AC7351",
"v. c #AA7552",
"b. c #AA7351",
"n. c #AF7D57",
"m. c #AF7D57",
"M. c #AF7B5A",
/* pixels */
"                                  T                             ",
"                                ; e.d.-       o.M.              ",
"              = B       B o.$   @ ; *         u.m.T             ",
"              +     = ^ = =   % T E   4 o.o.=   o.$             ",
"                @   $ -.T $   $ o.e.    h T   B p.e.>           ",
"          B -   # =   @   ; - # =   # $       = z.e.# =         ",
"        = >.4   @ - .   = $ . % p.= o h 4 T =   &   @ - X       ",
"        # & #     o @   h '   % o.4 # @   = # $ 4   > T +       ",
"      $ 4 % = - * * ; o @ = $ ;.e.  B @ $ >   = B $ @ = O       ",
"        $ $ o.^ =   % %   ; - -.e.  =   - ^   T ;.@ T % $       ",
"        o.$ @ -.@       @ e.-.- > = T # S o.@ S 4   % ^ B       ",
"    : = = $   =   h T - # e.3.    o.e.4 # ;     ; >   4 = 4 -.  ",
"  $ >.T # 4 o.h   h ^ =   # $ =   B o.#     c ; @ = = $   o.T   ",
"    h 4   = E $   - T       - o $ j.= & o.4 o.$   @ S e.4 = #   ",
"      = c =     @     = - # @   * j.  ; B * e.o # = # h 4 d.d.  ",
"        = T   * S 4   - h $ o -   #   = 4 = $   # # R ; ; v.e.  ",
"    = h #     % 4 =     = $ @ B = *   @ = z.-.  $ & e.p.= ;.    ",
"    $ = @ = 4 *   @ @ T >.  R o.= - . c 4 e.; @ B 4 = e.- o.    ",
"        = T ;.o.  ^ = - z.>.;.o.# = @ c   c #   # = o.4 4 v.o.  ",
"    h ^   o ; =   % =   * $     T ^ $ = T c.4 - B o.v.j.= 4     ",
"      .   4 c.o.  # R     g.^   e.e.h T = # = T @ c v.=         ",
"      # $   o.B   @ h $   - 4   @ = ; = = =   = = ; o.=         ",
"      @ 4 4   = #   T h @   T - = p.y.= :.o.= e.j.;.= -.B       ",
"        . 4 - B *   $ 4 = % # @   B R   R h   4 c T 4 4         ",
"          o.;.$ . -   e.>.c   = =   $ = # > e.>.                ",
"          B &.$   #   = = @ h E - $ >.e.T $ B #                 ",
"                  # = T B     =     c T   R c.o.                ",
"                  @ = =   $ o.z.B * h   h y.c.^                 ",
"                          = c o.= = :.4   o.;.                  ",
"                                    $ @                         ",
"                                                                ",
"                                                                ",
"      d.R   # S ^ $ = h ^   = O $ c = = #     ^ y.>.& >.#       ",
"      e.=   . $ ;   4 ) = = =   ; :.z.= 4 4 * o.p.$   S *       ",
"        T = @ = c   # # B o.=   @ - *     @ # :.m.4 T z.)       ",
"        e.-   o     = ;.= =   % T E   > >.o.=   ^ % * o.h       ",
"            @   #   $ -.T $   $ o.e.    B R   T c.e.;   #       ",
"          ^ -   # %   @   4 - $ ;   # $       = z.e.# = % 4     ",
"        $ o.4   o - .   = $ . $ j.% @ h 4 T =   *   @ - o       ",
"        $ % #     @ @   - ^   = o.- # @   = @ $ ;   > T #       ",
"      $ ; = - = & * = o @ = $ >.e.  4 # $ =   - ^ & @ = #       ",
"        $ # T ^ =   % %   - = e.y.  =   - ^   ^ ^ @ h $ =       ",
"        ^ * @ 3.#       @ e.-.- 4 ; R @ T o.+ T 4   = ^ h       ",
"    : = = $   =   h ^ - # p.e.    o.e.c $ =     ; 4   4 %       ",
"  % ;.B # - ^ h   h ^ =   # $ =   B o.#     c ; @ = = %         ",
"    4 -   = B $   4 B       = o * j.= # o.4 T &   @ h e.h       ",
"      = c =     @     = - @ #   * j.  ; B * y.+ @ - # h 4 p.d.  ",
"        = T   = - >   - E $ o -   #   = T * *   # # R - ; v.-.  ",
"    - - #     % 4 -     = $ @ c = %   @ = c.-.  # = e.p.= ;.    ",
"    $ = @ = 4 *   @ @ o.e.  o.E ; = X h 4 d.- @ B 4 = o.; o.$   ",
"        = ^ o.>.  B = 4 z.;.o.e.# = @ 4   > #   # = o.4 4 v.e.  ",
"    h o.  o - =   $ %   * $     T o.# = T c.4 4 T ;.v.j.= ; #   ",
"      .   F v.^   # o.    d.o.  e.e.h T = # * R @ T c.=         ",
"      + #   ^ T   @ T $   = ;   @ = ; = = =   = = = &.=         ",
"      # 4 4   = #   ~ h @   B ; = y.y.= e.^ = j.j.;.= >.S       ",
"        . h = B *   # 4 = = # @   R o.  E h   4 c ^ 4 - @ =     ",
"          o.;.* X ;   e.e.4   = =   $ = $ > 3.o.= c *   ; 4     ",
"          T o.*   #   = = @ h o.- $ -.e.R $ h # ; v.z.4 ; =     ",
"    = 4 *         # = R E     =     a B   R a.o.  y.z.- -.:.$   ",
"      - -   - - @ @ ; $   % ^ z.T * 4   B z.c.R   T ; O o.e.    ",
"            @ - @   * =   = c ^ ; * y.8   R &.$ > # ; c =       ",
"      >.F     #     o.=   @     = $ # #   ;   * ^ - o.u.>       ",
"      h F @   T 4 & =   $ ^ % $ -.e.B @ c e.B   = # = =         ",
"      - @ .   = h @ ^ @ $ = =     @ = % @ .   B c.e.  e.        ",
"                                  T                             ",
"                                4 e.g.=       B 3.              ",
"        B = o = c       T o.*   @ = *         :.m.4         T   ",
"      c.z.=   o     = ^ = =   % R E   > ^ 3.=   ^ %         >.* ",
"c.T   e.o.  @   @   $ -.T $   # o.>.    B T   B z.e.>     # $ - ",
"y.4       ^ -   # %   @   - - $ ;   # $       = z.t.# = * ;   ; ",
"  4 =   $ >.S   O h .   = $ . % y.= o h 4 T =   &   o - @ + @ @ ",
"  #     # & #     o @   h ^   % o.- # @   = # $ 4   h T # $ @   ",
"@ = # $ ; % = - = * = . O = $ -.e.  4 # $ =   - B * @ = @ = h $ ",
"  B #   $ $ T T =   % =   - = e.y.  =   - T   ^ ;.@ E $ & @ 4 X ",
"4 = $   o.% @ >.@       @ e.-.; 4 ; T # B -.@ 4 >   % ^ h     - ",
"e.T c = = *   =   h ^ - # g.e.    o.e.4 $ =     ; 4   4 = 4 >.;.",
"- = ;.B # ; ^ h   h ^ =   # $ =   B o.#     c 4 @ = = $   R c @ ",
"e.= c 4   = E *   4 S       % @ # j.= * o.4 ^ $   @ ~ e.4 = # B ",
"j.c   = c =     @     - : # @   * j.  = B * e.o @ 4 # h c z.y.R ",
"@       % o.  * - >   - - $ @ 4   #   = 4 = $   # # R - = v.e.= ",
"    - - #     % 4 -     = $ @ F = *   @ = c.o.  $ = e.y.= ;.E y.",
"$ * % = @ % 4 %   @ @ o.>.  o.^ = - X 4 4 d.- @ B 4 = o.; -.* * ",
"h h     = T ;.o.  E = 4 v.o.o.>.# = + h   c #   # = o.4 4 z.e.  ",
"j.>.S T   @ ; =   $ %   * *     Y o.# = T c.> 4 T >.v.g.= 4 # $ ",
"c o.  .   4 v.^   # o.    d.^   e.e.4 ^ = # = ^ @ c c.=   R o.$ ",
"e.e.; @ $   R B   @ S $   ; 4   @ = ; = = =   = = ; o.= $ R d.4 ",
"p.@   @ - 4   = #   S h @   T ; = p.p.= :.R = y.j.o.* 8.h # B o.",
"-.  - # . h - B *   # h = = & o   B o.  o.4   4 c R 4 - @ =     ",
"=   = #   R ;.* X ;   e.>.c   = =   $ = $ 4 3.o.- 4 =   ; - = 4 ",
";.#   #   T o.*   #   = = @ h { - $ >.e.B $ B # a c.g.4 = = @ ^ ",
"4   * S *         # % o.B     =     c E   B z.o.  y.z.= -.e.= 4 ",
"      4 =   ; - @ @ = *   % ^ p.c       c j.c.o.  J ; @ &.o.4 = ",
"            # = @   % =   % c ^ %         o.o.* ;             - ",
"              #     o.=                         R >             ",
"                                                                ",
"                                                                ",
"            # S o.$ = h ^   - + $ > = ; #     T y.>.$ o.#       ",
"            . * 4   4 ^ = * =   ; e.z.= 4 4 = o.t.*             ",
"        S = @ = 4   & $ T o.*   @ - *     @ @ :.m.c             ",
"      v.z.=   o     = ^ = =   % c E   > ;.&.=   ^ %             ",
"c.^   e.o.  @   @   $ -.T $   $ o.e.    h T   B z.e.-           ",
"j.4       ^ -   # =   @   ; - # =   # $       = z.e.# = * 4     ",
"  4 &   $ >.4   @ - .   = $ . % z.% @ h 4 T =   $   @ > @ @     ",
"  #     $ & #     o @   h '   % o.4 # @   = # $ 4   4 T @ *     ",
"@ ; # # 4 % ; - & * ; o @ = $ ;.e.  h @ $ ;   - B * @ = @ = - = ",
"  B #   $ $ ^ ^ =   % %   - - -.e.  =   - ^   ^ o.@ ^ $ * @ - X ",
"4 ; #   o.$ @ -.@       @ e.-.= 4 = R # S o.@ h 4   % o.B     = ",
"e.c c - = $   =   h T - # p.t.    -.e.4 # ;     ; >   4 = 4 ;.>.",
"= = e.B @ 4 o.h   h ^ =   # $ =   B o.#     c 4 @ = = $   T B @ ",
"e.- 4 4   = E $   - T       - o $ j.= # o.4 ^ $   @ T :.4 ; # c ",
"j.T   = c =     @     - - # @   * j.  ; B * e.o # = # B 4 j.e.o.",
"@       = T   * h 4   - h $ o -   #   = 4 = $   # $ R = ; v.e.= ",
"    - - #     % 4 =     = $ @ B = =   @ = c.o.  $ = g.p.= ;.E y.",
"$ & $ = @ = 4 *   @ @ Y >.  o.^ = ; X 4 4 e.4 @ h 4 = >.- >.$ = ",
"E h     = T Y ;.  ^ = - z.-.;.;.$ = @ 4   4 #   # = R 4 4 v.:.  ",
"d.>.h T   @ - =   % =   * $     T o.$ = R c.4 - T o.v.d.= 4 # $ ",
"4 o.  .   4 c.o.  # R     t.T   >.e.h T = # = T @ T c.=   B &.$ ",
"e.3.; @ $   o.B   @ h $   - 4   @ = = = = =   = = ; o.= $ B d.4 ",
"i.@   @ ; 4   = #   T h @   T - = a.y.; :.o.; e.y.;.= 8.h # B R ",
"t.  = # o 4 - B *   $ 4 = % # @   T R   { 4   - c R 4 4 @ =     ",
"=   = #   R ;.* . -   e.>.c   = =   # = # > e.-.= 4 *   ; 4 = ; ",
";.#   #   T o.$   #   = = @ h E - $ e.e.R $ B # a v.p.4       ^ ",
"h   * S *         # = R B     =     c B   B a.-.  y.z.        ; ",
"      = =   ; ; @ @ ; $   $ o.z.B * h   c y.v.R   T ;           ",
"            $ = @   = =   = c o.- * y.;   ;.R * >               ",
"              #     T =   @     * # $ @   =   * E 4             ",
"              T 4 & %   $ ^ % # 3.u.J @ h e.B   = $             ",
"              = S @ B # $ = =     @ ; = @ .   h z.e.  e.        ",
"; 4 % d.R   # S ^ $ = h ^   = O $ c = = #     ^ y.>.& >.# R d.  ",
">.8.- 8.=   . $ ;   4 ) = = =   ; :.z.= 4 4 * o.p.$   S $ * = $ ",
"t.p.= E S = @ = c   # # B o.=   @ - *     @ # :.m.4 T z.^ * 4 = ",
"o.;   v.z.=   o     = ;.= =   % T E   > >.o.=   ^ % * o.h $ >.= ",
"v.R   e.R   @   @   $ -.T $   $ o.e.    B R   T c.e.;   $ # $ = ",
"y.4       o.-   # %   @   4 = $ ;   # $       = z.e.# = * -   ; ",
"  4 =   $ -.4   @ - o   = $ . % j.% @ h 4 T =   *   @ - o @ @ @ ",
"  #     # % #     @ @   - ^   = o.- # @   = @ $ ;   > T # $ @   ",
"@ = # * ; = - = & * = o @ = $ >.e.  4 # $ =   - B = @ * # = 4 $ ",
"  c #   $ # T ^ =   % %   - = e.y.  =   - ^   E ^ @ S $ $ # > X ",
"4 - #   ^ * @ 3.#       @ e.-.- 4 ; R @ T o.@ T 4   = T 4     ; ",
"e.T B = = $   =   h ^ - # p.e.    o.e.c $ =     ; 4   - = h ;.o.",
"= = ;.h # - ^ h   h ^ =   # $ =   B o.#     c 4 @ = = %   T B @ ",
"p.= F 4   = B $   4 B       = o * j.= # o.4 ^ *   @ h e.c - # c ",
"z.T   = c =     @     = - @ #   * j.  ; B * e.X @ - # h 4 j.d.R ",
"@       = T   = - >   - E $ o -   #   = B * *   # # R - ; v.e.= ",
"    - - #     % 4 -     = $ @ c = %   @ = c.-.  # = e.p.= ^ B y.",
"# = & = @ = - =   @ @ o.e.  o.E ; = X h 4 d.- @ B 4 = ;.4 :.$ = ",
"h h     = T o.;.  B = 4 z.;.o.e.# = @ 4   > #   # = o.4 4 z.e.  ",
"d.>.h Y   o - =   $ %   * $     T o.# = T c.4 4 T ;.v.j.= > # $ ",
"4 {   X   4 c.o.  # o.    d.o.  e.e.h T = # * R @ T c.=   R >.$ ",
"e.3.; @ #   o.T   @ T $   = ;   @ = ; = = =   = = ; &.= $ B d.4 ",
"p.#   @ ; 4   = #   ~ h @   B ; = y.y.= e.^ = j.j.) % t.h # B ^ ",
"t.  = # . B = B *   # 4 = = # @   R o.  E h   4 c ^ 4 - @ =     ",
"%   - @   o.;.* X ;   e.e.4   = =   $ = $ > 3.o.= c *   ; > % 4 ",
"o.#   #   T o.$   #   = = @ h o.- $ -.e.R $ h # ; v.z.4 = = @ ^ ",
"c   * c =         # = R E     =     a B   R a.o.  y.z.- ;.e.= 4 ",
"  @ @ - =   - - @ @ ; $   % ^ z.T * 4   B z.c.R   T ; O &.-.4 = ",
"h ^ =       # = @   * =   = c ^ ; * y.8   R &.$ > # ; c =   ; = ",
"o.S @ ;.4     @     o.=   @     = $ # #   ;   * ^ - o.u.4 e.R # ",
"e.;   c S #   T 4 & =   $ ^ % $ -.e.B @ c e.B   = # = =   :.c # ",
"c -.$ - @ .   = h @ ^ @ $ = =     @ = % @ .   B c.e.  e.# = B   "
};
