/* XPM */
static char *_3e6a79c86504d49dc3edbf9c29ec291sLqyRhachW4zKpaS[] = {
/* columns rows colors chars-per-pixel */
"32 160 185 2 ",
"   c #64882C",
".  c #698D2E",
"X  c #6E932F",
"o  c #6B8A32",
"O  c #718B38",
"+  c #6F9231",
"@  c #729533",
"#  c #749C34",
"$  c #799D35",
"%  c #769339",
"&  c #7C953D",
"*  c #779939",
"=  c #7C9B3B",
"-  c #76A236",
";  c #7BA436",
":  c #7EA937",
">  c #7DA539",
",  c #7EA938",
"<  c #7B8D41",
"1  c #7E9442",
"2  c #809E3F",
"3  c #80A637",
"4  c #80A937",
"5  c #82A53B",
"6  c #83AD39",
"7  c #88AE3D",
"8  c #86B03A",
"9  c #8BB43C",
"0  c #8FB83C",
"q  c #90B73E",
"w  c #92BA3E",
"e  c #849547",
"r  c #849C43",
"t  c #879948",
"y  c #8B9B4B",
"u  c #929E4F",
"i  c #8D9B51",
"p  c #989759",
"a  c #85A241",
"s  c #8AA445",
"d  c #86A940",
"f  c #8CAB44",
"g  c #8DA648",
"h  c #8EAE49",
"j  c #92A54D",
"k  c #93AC4B",
"l  c #8EB143",
"z  c #92B343",
"x  c #94B943",
"c  c #94B14C",
"v  c #9BB34E",
"b  c #98B94A",
"n  c #97A552",
"m  c #99A456",
"M  c #96AC52",
"N  c #9BAD54",
"B  c #95A258",
"V  c #9CA45C",
"C  c #9FAC5A",
"Z  c #9CB252",
"A  c #A3AC57",
"S  c #A2A45C",
"D  c #A3AB5C",
"F  c #A1B354",
"G  c #A0B853",
"H  c #A3B55A",
"J  c #A9B35E",
"K  c #A5BA5A",
"L  c #ABBE5C",
"P  c #A29963",
"I  c #A7A267",
"U  c #A9A366",
"Y  c #A5AC62",
"T  c #ACAC65",
"R  c #ACA568",
"E  c #ABAC69",
"W  c #B1A46C",
"Q  c #B3AB6D",
"!  c #ABB263",
"~  c #ACBB62",
"^  c #ABB768",
"/  c #B1BD63",
"(  c #B8BD67",
")  c #B4B26B",
"_  c #B5BA6B",
"`  c #B9B86C",
"'  c #B5A572",
"]  c #BAA774",
"[  c #B5AD74",
"{  c #BAAC74",
"}  c #BCA778",
"|  c #BDAC79",
" . c #B7B270",
".. c #BBB372",
"X. c #BBBA71",
"o. c #B7B778",
"O. c #BEB17C",
"+. c #BEBE79",
"@. c #C1AF76",
"#. c #C4AD7D",
"$. c #C2B577",
"%. c #C3BC77",
"&. c #C3B27B",
"*. c #CAB57E",
"=. c #C3BA7C",
"-. c #CABB7E",
";. c #AEC064",
":. c #B4C267",
">. c #BBC26E",
",. c #BAC473",
"<. c #C8C477",
"1. c #C8C57C",
"2. c #BFAF80",
"3. c #BEB582",
"4. c #C6AE81",
"5. c #C9AF81",
"6. c #C5B382",
"7. c #CCB483",
"8. c #C4B982",
"9. c #CEBA85",
"0. c #CEB789",
"q. c #CEBA8A",
"w. c #D0B785",
"e. c #D2BA86",
"r. c #D8BF87",
"t. c #D0B788",
"y. c #D4BD8A",
"u. c #D8BF8A",
"i. c #D4BF91",
"p. c #C5C782",
"a. c #CEC386",
"s. c #CFC58E",
"d. c #CDC989",
"f. c #D4C085",
"g. c #DAC187",
"h. c #D7C18B",
"j. c #D4C08C",
"k. c #D6C08D",
"l. c #D9C18B",
"z. c #DAC28A",
"x. c #DBC38B",
"c. c #DEC68B",
"v. c #D9C18C",
"b. c #DBC38C",
"n. c #DBC58D",
"m. c #DAC58F",
"M. c #D7C988",
"N. c #DFC88D",
"B. c #D7C191",
"V. c #D7C292",
"C. c #DBC593",
"Z. c #DBC692",
"A. c #DBC594",
"S. c #DDC891",
"D. c #DFC991",
"F. c #DEC994",
"G. c #D7C398",
"H. c #DBC598",
"J. c #DECA9A",
"K. c #DFCB9C",
"L. c #E0C78C",
"P. c #E0C98D",
"I. c #E2CB8E",
"U. c #E1CB95",
"Y. c #E3CC94",
"T. c #E3CD96",
"R. c #E5CF95",
"E. c #E2CD9B",
"W. c #E6D096",
"Q. c #E3D19E",
"!. c #E5D19C",
"~. c #E6D39E",
"^. c #E8D29F",
"/. c #DFCEA1",
"(. c #E2CFA1",
"). c #E3D0A2",
"_. c #E4D1A0",
"`. c #E5D3A3",
"'. c #E6D4A2",
"]. c #E6D5A4",
"[. c #E8D5A4",
"{. c #E6D6A9",
"}. c #E8D7AA",
"|. c #E9D9AC",
" X c #E9DAB0",
/* pixels */
"9 4 8 9 4 6 6 9 6 : 8 6 8 9 7 9 9 , 6 9 4 7 4 8 4 4 8 , 8 8 6 9 ",
"- 6 4 4 , 9 0 6 9 9 9 : 9 : , 7 - 7 4 , 4 8 w 8 9 9 9 8 9 : , 8 ",
"l 0 8 9 w w x 0 0 9 x 6 - - # - 9 5 $ , w w z 0 0 9 x 8 , , 8 , ",
"9 6 8 : 4 8 9 8 7 : @ - i Y V ) { B V 1 # + 8 8 8 , 8 : ; , 9 8 ",
"6 : : 4 8 6 8 - # X o V &.*.*.*.#.9.e.$.U y = $ - : 0 : 9 9 , 9 ",
"6 8 0 w w 8 : X * V E 9.l.e.7.e.n.c.e.#.#.&. .> 4 8 8 0 9 9 0 8 ",
"9 - 8 : 9 4 X % m 8.q.h.7.6.y.P.l.w.#.y.c.e.` y * X : , : , , 0 ",
", 8 9 0 : @ f [ 9.l.c.l.y.J.T.e.7.7.L.'.).U.y.*.{ s - - : # # 9 ",
"6 0 9 9 6 5 E #.-.u.L.E.).).v.7.e.L.R.[.A.w.y.l.e.{ y 3 4 8 w 8 ",
"6 8 : : 6 k W } #.w.V.E.].R.l.c.L.l.k.v.y.S.!.'.T.*.{ 2 8 : 4 8 ",
"6 9 , ; & T @.e.C.K.(.(.U.P.P.P.n.y.x.L.S._.!.W.W.k.{ f 4 : ; 8 ",
"6 9 6 a J $.7.y.A.A.C.y.e.T.W.!.!.T.I.I.I.Y.P.T.W.!.9.Q * 0 9 : ",
"x 0 6 g Q ' 4.k.C.y.7.e.E.].|.).c.v.T.W.I.c.e.i.E.E.U.*.& : - 8 ",
"8 6 - Y 8.V.E.E.v.7.v.].|.}.K.t.V.).E.U.e.7.e.y.A.U.U.$.r ; 8 8 ",
"9 6 r s.H.).J.t.e.v.}.|.].J.t.H.}.[.U.y.e.v.R.E.W.U.e...G 9 q w ",
"0 , c o.q.q.7.y.U.!.).!.A.i.G.(.W.L.c.L.R.!.E.y.0.7.*.&.U 4 8 4 ",
"9 * s Q } 7.A.`.[.U.U.i.i.A.E.E.Y.x.Y.E.E.i.5.#.w.l.e.' j 6 6 9 ",
"- > s U | E.}.(.U.A.i.A.A.U.L.L.l.C.T.C.q.7.y.Y.T.S.q.R y 4 > 9 ",
"9 9 9 N =.E.E.U.E./.E.U.C.u.u.U.C.J.C.y.y.Y.W.).(.U.=.j r : 7 : ",
"9 6 5 r  .v.A.(.(.i.i.y.y.y.E.Q.E.C.u.c.W.].}.}.).R.) j * : 9 8 ",
"4 : , 5 N &.U.E.i.u.y.u.C.E.).E.i.y.P.W.W.W.W.T.h.7.] g 8 8 4 0 ",
"6 8 7 * A &.l.S.i.i.i.E.W.R.W.y.y.W.[.}.!.P.f.y.k.9.{ B $ 0 w 8 ",
"9 - : @ N { 7.i.i.(.^.T.I.c.u.n.E.}.[.T.I.I.R.!.!.=.f h X 8 > 0 ",
", 8 8 9 9 N ! i./.U.T.R.e.e.l.c.R.R.e.7.v.).[.'.V.O.i ; ; + - 8 ",
"6 w 9 9 9 l Z _ 6.y.K.Y.c.c.h.e.c.y.7.!. X|.).D.O.k $ 9 6 9 w 6 ",
"6 7 : : : : 6 m [ =.( 9.e.e.7.9.y.k.!.}.|.!.9.R U j w 9 8 4 : 9 ",
"8 9 : 8 : 9 8 7 Z A F ) e.k.C.J.T.T.T.T.T./ n 2 7 $ 9 0 8 : ; 4 ",
"6 9 0 0 w q 9 : x z ; j 1.C.d.).U.y.-.D =.Z 6 @ 9 9 - : 8 0 9 : ",
"w w 9 9 7 : : 4 : - 3 f M _ k =.&.D F * r 5 4 , : - ; ; : 8 - 8 ",
"9 9 9 : 3 7 : # : 9 6 9 6 f z l c x l : : 8 : # 4 8 4 0 4 : 8 8 ",
"9 8 4 9 8 9 : 8 9 6 9 0 0 9 0 0 0 8 4 8 8 9 4 8 8 8 9 0 0 9 0 0 ",
"0 : 8 8 : - 4 3 : 6 9 8 - 8 8 7 9 : 8 8 : - : 4 4 8 8 8 - 8 8 4 ",
"9 , 8 l 8.V.t.t.U.|.E.u.7.c.P.P.T.!.!.L.w.7.l.e.y.!.J._ K l 6 8 ",
"- 8 > j =.7.y.E.[.`.U.u.A.v.v.y.u.A.Y.P.c.P.e.y.).!.e.T l , , 8 ",
"9 9 7 k ` C.E.E.A.V.i.A.c.J.U.F.u.P.R.(.J.n.k.J.'.x.&.Q Z , 7 6 ",
"l 6 , r { J.J.y.7.7.7.A.E.W.E.T.L.c.J.E.U.N.h.J.u.6.#.| C , 9 8 ",
"6 , > s T 7.y.6.4.7.S.(.!.T.L.u.y.S.U.L.l.e.y.y.7.t.q.Y Z 9 , 8 ",
"8 8 9 Z F ' 7.0.i.(.(.!.T.e.7.e.c.x.e.7.9.y.c.c.A.i.6.[ v 8 0 0 ",
"9 - , * n | V.).(.].!.L.7.#.y.P.u.w.7.y.Y.Y.R.L.y.t.6.O.M 8 4 8 ",
", 8 + ; A 6.).E.U.R.T.l.y.J.Y.e.7.7.c.'.'.U.v.e.y.y.y...M # $ 8 ",
": w ; 5 [ k.A.l.t.l.S.E.(.!.v.7.e.c.R.].A.y.l.v.v.C.c...f 9 9 8 ",
"7 7 + * ) 7.e.#.#.9.V.E.`.E.v.c.P.l.V.n.9.C.W.^.W.T.c.Q c : : 9 ",
"4 9 : s m &.e.u.A.E.(.(.U.P.U.L.c.y.v.L.C.^.!.W.W.E.e.Q j : - 8 ",
"8 9 7 % ) f.l.C.A.A.V.y.y.P.W.!.E.T.P.P.R.P.I.W.^.).` s 9 q 8 : ",
"w w 0 6 E 9.0.k.C.v.7.e.E.].}.'.L.S.R.E.P.l.y.y.E.).u.T 4 8 - 7 ",
"8 9 : D O.G.!.E.v.7.y.].}.}.J.y.l.'.(.L.y.7.w.u.S.T.C.@.f ; 8 8 ",
"l 8 > Z 3.q.A.y.e.v.}.|.{.E.q.A.}.).L.u.e.c.E.E.R.Y.n.&.Z 0 0 0 ",
"9 : 6 Z | } 5.y.T.!.).K.A.i.V.(.E.T.x.c.R.!.E.u.7.7.w.&.V 8 8 8 ",
"9 , 6 H ' 7.C.).`.U.A.i.u.A.(.U.U.L.U.E.E.i.7.5.7.x.l.W j 9 6 9 ",
"- 8 > 5 { K.}.'.U.i.H.H.H.U.L.Y.u.C.U.H.0.7.y.L.Y.C.i.) Z 7 : 7 ",
"9 9 $ y =.J.E.J.E.(.U.U.i.u.u.A.C.J.v.e.y.U.E.).'.(.T.$.k , 8 : ",
"0 6 ; g Q 9.C.(.E.H.i.y.u.u.(.(.U.A.v.R.E.[.}.|.!.Y.e.T j : 0 7 ",
"4 4 ; r W &.T.E.A.i.t.y.A.E.`.R.y.y.P.W.W.W.W.I.h.7.] S l 0 , 8 ",
"7 6 8 j W e.c.C.i.i.A.U.R.R.Y.y.y.W.}.}.!.I.g.y.j.C.y.O.! 9 0 9 ",
"9 - : t @.e.y.C.i.(.R.R.Y.L.l.x.R.}.'.W.P.R.R.E.W.!.D.| s 6 , 0 ",
"6 4 8 x ..e.C.(.{.U.Y.R.y.t.l.P.E.R.e.7.v.!.[.).!.J./.8.m # # 8 ",
"6 0 # * Q q.F.!.V.G.!.Y.x.L.r.e.c.e.7.!. X|.}.J.C.C.T.%.k 9 9 8 ",
"6 8 # r R a.).'.).!.Y.h.y.y.7.t.u.l.!.|.}.).c.y.9.C.J.J l , 4 9 ",
"7 9 : u O.G.].}.^.c.w.*.y.u.A.E.T.P.U.R.R.U.y.y.T.!.y.Q l > - 6 ",
"6 9 4 r 8.(.).T.y.5.6.l.U.(.`.).U.l.y.v.E.].C.y.k.y.*.R z w 8 , ",
"w w 9 ^ q.N.y.4.5.C.R.R.E.^.E.u.0.y.L.E.[.R.y.t.A.A.4.R f 6 - 8 ",
"8 0 k Y E &.#.C.!.}.'.E.E.C.e.w.e.T.^.^.R.T.U.E.A.y.@.! Z ; 8 8 ",
"9 8 ; k { 9.E.].(.U.(.|.L.y.x.I.P.W.W.[.}.).R.7.7.e.&.K b 9 x 0 ",
"0 , 8 ..e.E.E.i.t.E.|.R.L.w.L.I.P.W.[.[.R.t.5.7.e.#.8.Y 5 8 8 , ",
"l 4 6 9 4 6 4 7 7 : 7 6 7 7 7 8 9 4 7 8 4 4 7 8 6 , 8 > 8 8 7 0 ",
"- 4 $ > 4 8 9 7 4 4 8 : 8 : , 8 $ 4 : 3 ; 8 0 4 8 9 9 0 8 , ; 4 ",
"# .   7 9 @ @ : ; ; # 7 ; X @ : + - # : : # 8 @ 4 - 8 4 @ 4 - o ",
"V V V o o n I < O p p j B V Q S y V = e n O o r t 1 e r B s $ B ",
"6.y.q.o.Q | | ' P W | 6.6.e.9.&.@.y.=...&.{ { O.@.#.6.| O.y E 9.",
"A.U.E.H.9.#.7.0.y.J.`.F.c.e.7.e.n.c.y.4.*.e.c.c.H.A.q.0.V.E.!.A.",
"E.R.[.C.y.y.A.E.].).].D.7.4.y.P.u.w.5.u.P.T.T.C.y.7.q.K.E.(.H.H.",
"C.R.W.g.l.J.).).T.T.D.k.y.J.T.e.5.7.L.).}.U.l.e.y.v.C.J.U.v.A.E.",
"u.R.P.v.J.(.J.u.e.y.S.J.(.!.k.7.e.L.R.].A.e.y.y.C.L.L.Y.u.w.y.0.",
"E.P.y.y.U.v.w.#.4.7.A.E.).E.k.c.L.l.V.c.y.A.(.!.W.U.C.e.5.*.7.7.",
"^.u.e.L.P.y.e.u.A.E.(.(.R.P.I.P.l.y.l.x.P.^.!.W.Y.R.v.7.7.7.5.J.",
"A.e.6.R.U.P.c.v.H.A.V.y.y.P.W.!.!.R.P.P.T.W.I.I.[.).R.v.x.L.U.[.",
"7.#.A.E.v.q.t.y.S.u.7.w.U.[.|.(.S.c.W.E.I.c.e.y.E.).W.R.P.E.).V.",
"w.l.T.R.J.!.!.E.u.7.u.}. X}.E.t.u.).).c.e.7.e.y.A.U.U.u.y.(.y.7.",
"L.I.W.|.}.`.J.y.y.n.}.|.{.K.i.H.|.'.Y.y.y.c.W.W.E.R.n.v.E.C.7.g.",
"I.W.|.}.H.t.5.y.T.W.).E.i.i.V.).W.P.l.c.W.E.E.i.7.7.e.c.y.n.I.I.",
"I.[.|.c.7.7.A.).'.F.A.C.y.A.E.E.L.c.N.E.E.j.7.5.7.l.l.7.q.E.P.I.",
"^.[.c.#.e.E.}.).J.A.A.H.H.U.L.L.l.C.K.K.0.7.e.T.T.C.i.l.c.T.y.y.",
"E.P.y.u.E.[.E.H.J.E.K.U.C.u.u.A.C.K.n.e.y.T.E.'.E.E.E.Y.P.v.V.].",
"y.y.C.U.!.D.U.(.E.A.i.y.y.V.E.).E.C.v.P.W.'.{.}.[.T.L.x.v.J.'.A.",
"7.y.!.Y.e.e.U.E.A.y.y.u.v.!.).E.V.y.N.W.W.W.W.N.u.7.t.y.A.E.y.7.",
"y.A.W.l.e.h.n.A.y.i.A.R.E.R.T.l.y.W.{.}.!.P.h.y.y.A.L.T.L.y.7.6.",
"H.].T.e.g.u.l.V.i.).E.R.P.c.l.u.U.}.[.W.I.I.T.!.!.E.U.A.y.e.u.v.",
"y.D.e.e.e.e.c.E.{.E.R.R.e.e.l.L.W.T.e.7.v.'.].].E.E.!.E.L.A.y.0.",
"n.e.g.l.9.k.F.Q.i.H.!.U.c.P.g.e.c.e.7.!. X|.].U.N.C.Y.Y.y.9.7.y.",
"y.n.c.9.y.E.'.'.(.(.T.y.t.y.7.w.h._ M.|.|.).C.9.9.C.!.n.7.7.y.n.",
"D.1.! &.M.'.d.p.A.c.7.@.e.V.A.J.C.%.Z M.T.D.y.e._ a.n.9.*.e.C.k.",
"K f * > s ;.l f Z D S 7 ~ :.,.s.=.N > r >.K ^ H x j Y Q { X._ =.",
"x 9 : 5 $ 5 4 6 : ; 5 5 6 7 5 C v l 4 , 7 - @ 6 6 $ a s 7 f - l ",
"8 0 9 , 4 8 : # : 8 7 9 6 ; 8 8 8 0 8 4 ; 8 : # 6 9 6 9 8 : 9 8 ",
"l 9 6 8 9 8 4 8 8 6 9 9 0 9 x w 8 0 4 8 0 8 : 8 9 6 9 9 0 9 0 0 ",
"9 , 6 8 : - 4 : 4 8 9 8 - 7 9 4 0 , 8 7 4 - , : , 8 9 8 - 8 7 8 ",
"9 , : = V 7.7.q.T.[.E.u.7.l.P.P.T.[.^.c.9.7.f.e.e.q.9.D f 7 6 9 ",
"- : o $ C 8.y.E.}.).U.k.c.n.h.y.g.c.Y.c.c.c.y.y./.D.*.S *   - 7 ",
"> 4 y R | k.J.E.H.A.C.C.C.Y.C.D.v.c.W.!.K.h.k.E.].A.9.' R V * $ ",
"J N ^ 6.n.E.U.y.7.4.7.A.E.).E.T.D.x.J.!.E.c.l.E.k.7.6.y.G.8.Q Q ",
"9.V.C.U.F.A.q.7.#.7.V.(.W.Y.N.r.y.C.U.L.u.y.e.e.7.6.A.K.K.j.9.8.",
"V.U.W.E.y.7.7.0.V.E.).W.Y.e.7.e.c.c.e.7.w.y.u.c.A.H.i.y.D.).).A.",
"!.U.`.C.y.y.A.(.(.}.!.Y.7.4.y.N.l.7.6.u.P.R.U.R.y.t.y.H.E.Q.J.A.",
"C.W.R.l.y.J.).E.E.T.L.v.y.J.R.e.7.7.L.'.).R.c.t.e.V.A.U.T.n.C.J.",
"l.T.c.l.J.E.J.v.r.l.D.E.).).l.7.e.L.R.].A.e.y.v.S.c.T.L.u.t.y.t.",
"E.P.r.l.U.u.7.#.#.7.V.E.'.W.l.c.L.l.V.c.y.S.!.^.U.U.c.t.5.7.5.0.",
"[.v.e.c.L.y.e.r.C.K.(.(.T.L.U.P.c.y.c.l.C.!.!.W.R.E.x.7.7.7.4.J.",
"J.7.7.J.R.P.l.A.V.A.C.y.e.Y.Y.!.!.T.I.I.P.T.I.Y.!.[.T.u.P.L.U.).",
"7.#.L.E.l.e.t.V.A.v.7.w.E.].|.(.c.v.T.W.P.l.e.i.E.).W.!.P.E.).V.",
"7.c.P.R.E.!.E.E.v.7.k.'.|.|.K.0.V.).).D.e.e.w.u.C.U.U.y.y./.y.7.",
"L.I.^.|.}.(.J.w.e.C.}.|.].J.t.H.}.[.T.y.e.l.W.E.E.R.c.v.K.S.7.y.",
"P.W.|.}.J.q.7.y.U.W.(.!.A.i.H.(.E.P.c.c.R.!.E.y.7.7.t.c.y.c.P.I.",
"I.'.}.u.5.7.H.[.}.R.U.i.i.C.E.E.P.c.U.U.!.i.7.5.7.c.v.7.t.U.R.U.",
"^.}.S.4.y.U.}.).U.i.H.i.S.U.L.U.l.S.U.J.7.7.y.P.D.C.i.u.P.U.r.y.",
"E.P.t.l.E.`.U.H.E.(.R.U.V.u.u.A.V.U.S.y.y.Y.E.).].(.R.U.Y.v.S.(.",
"e.y.A.R.!.L.U.(.(.i.i.y.y.u.E.(.E.V.u.c.W.[.}.}.(.U.c.c.y.U.[.V.",
"7.q.U.E.y.e.Y.E.i.u.y.y.A.E.`.E.i.y.L.R.W.W.W.T.y.7.w.y.A.E.y.7.",
"t.U.!.l.7.u.L.C.i.i.A.U.R.R.R.u.y.!.[.}.^.I.f.y.y.V.R.U.U.y.6.7.",
"J.).T.e.u.u.i.i.i.(.E.R.P.c.u.u.E.}.[.Y.P.P.R.!.^.E.U.V.y.e.e.v.",
"y.c.e.g.u.y.L.(.}.U.E.R.e.e.x.L.Y.R.y.7.v.[.].'.W.E.E.E.P.c.y.q.",
"n.e.y.l.e.h.J.!.i.A.(.Y.L.L.u.y.c.e.7.).|.|.).T.S.V.R.P.u.7.7.y.",
"y.n.N.e.e.E.!.).(.E.Y.u.e.y.7.t.l.l.!.|.|.).C.y.9.U.).S.7.w.y.L.",
"F.U.l.7.D.[.}.}.'.L.w.7.e.u.H.U.E.P.Y.Y.Y.E.y.y.U.(.R.l.f.f.X.e.",
"!.1.*.c.}.].!.U.t.5.w.u.Y.^.[.).U.u.l.v.E.'.C.v.y.i.x.y.y.a.z h ",
"L 9 K E.].Y.h.6.5.A.R.R.^.E.W.u.0.e.l.E.[.T.e.y.H.C.y.&.^ N - 7 ",
"7 : j H =.7.4.l.(.[.'.U.E.U.t.*.u.Y.W.^.E.U.A.E.A.e.7.y.^ - 8 8 ",
"9 7 + Z O.9.T.].(.E.).[.L.u.P.P.P.W.W.[.{.'.Y.7.7.7.9.,.a 4 0 0 ",
"9 ; . f =.y.G.i.0.E.|.R.c.w.I.W.I.P.}.}.W.y.&.7.7.&.+.G * : 8 4 ",
"Y.c.e.y.E.E.0.t.H.[.E.u.7.c.P.U.R.).).L.e.7.y.e.y.).'.h.w.w.y.Y.",
"e.7.y.!.E.t.i.E.}.[.U.i.S.v.u.y.u.c.I.P.L.c.e.y.!.!.P.u.v.E.}.E.",
"y.F._.F.y.S.U.(.V.A.i.L.C.U.U.C.v.L.R.(.J.n.k.E.(.S.e.9.C.).(.U.",
"P.E.!.A.J.E.U.y.7.5.7.A.E.!.R.U.A.c.U.E.U.N.h.J.v.6.4.v.E.).U.c.",
"H.).E.E.T.C.y.7.4.5.S.E.W.Y.L.r.y.V.R.L.l.e.y.y.7.7.A.K.H.F.E.J.",
"C.T.W.E.t.*.7.t.V.(.).R.Y.y.7.y.c.c.e.7.w.e.c.c.A.H.y.y.F.).).A.",
"E.W.).U.y.y.A.(.(.].).Y.7.4.y.L.x.w.5.l.Y.Y.R.P.y.t.y.J.E.E.U.A.",
"C.W.W.g.l.J.(.E.E.U.T.l.y.J.P.e.7.6.c.'.'.T.l.e.y.y.A.J.J.A.C.J.",
"u.R.L.u.J.!.U.v.t.l.C.E.).'.k.6.e.c.R.`.A.y.r.l.V.C.L.Y.u.7.y.y.",
"E.P.y.l.U.C.7.#.#.7.V.E.'.U.l.L.P.l.V.c.9.A.^.'.R.L.c.e.7.7.4.7.",
"!.v.e.n.C.e.e.y.S.E.(.(.U.P.I.I.c.y.l.x.C.!.!.W.R.W.l.7.7.7.4.J.",
"J.7.9.U.T.L.c.A.A.H.C.y.e.P.R.!.E.Y.P.Y.T.P.W.I.).[.U.A.c.c.J.].",
"7.5.v.R.v.y.t.y.A.v.7.y.!.].|.(.L.S.R.!.L.c.w.i.R.).'.R.U.S.].V.",
"7.c.T.U.E.(.E.E.v.7.y.].|.}.J.y.u.).(.L.y.7.t.u.A.U.I.u.y.K.y.7.",
"L.T.W.|.|.).A.y.e.c.].|.{.K.y.A.}.).L.u.t.L.E.R.E.R.c.u.E.S.w.x.",
"P.W.|.}.U.t.5.y.U.).(.K.A.i.V.(.E.R.c.L.R.E.E.y.w.5.y.v.y.c.L.I.",
"R.^.[.i.7.7.A.(.(.U.A.i.i.A.E.E.Y.L.U.E.E.i.5.5.t.c.v.0.t.U.R.P.",
"^.[.c.#.e.E.}.].U.i.H.H.U.U.L.Y.u.i.U.A.t.7.y.Y.L.A.i.u.C.U.y.y.",
"^.I.e.l.!.).E.J.E.E.U.H.i.u.u.A.C.A.C.e.y.R.E.).`.(.T.Y.P.i.C.).",
"e.e.U.U.!.D.F.E.(.U.i.y.y.u.E.(.E.U.u.Y.W.(.}.}.!.T.c.l.v.T.).D.",
"7.y.R.Y.y.e.U.E.C.i.y.y.A.E.(.E.y.v.P.W.W.R.W.R.l.7.e.y.C.E.k.7.",
"0.U.!.f.7.l.C.S.i.i.A.Y.W.R.R.y.y.W.}.[.^.I.r.y.y.C.F.W.Y.q.7.6.",
"J.!.Y.e.l.v.l.V.i.(.R.R.Y.L.u.c.U.}.).W.I.I.Y.E.!.E.D.C.y.e.y.n.",
"y.U.e.l.e.y.v.E.{.U.E.R.e.w.u.L.E.R.t.7.S.!.[.).E.E.E.E.P.l.k.7.",
"v.e.e.l.e.k.U.!.V.H.!.U.L.L.u.e.c.e.7.!.|.|.}.U.A.V.Y.Y.v.7.7.y.",
"y.C.P.e.e.J.).'.!.!.U.y.e.e.w.w.l.l.E. X|.).c.q.9.U.(.L.7.w.y.c.",
"C.T.g.7.J.'.}.].).L.w.6.y.i.A.E.U.T.R.R.R.U.y.y.U.).E.l.e.l.c.v.",
").Y.w.c.'.}.(.Y.y.#.7.x.Y.(._.'.J.u.u.u.(.].A.y.u.y.c.e.y.C.J.E.",
"W.e.y.!.}.U.y.7.#.S.Y.Y.W.'.E.u.7.e.x.W.}.Y.y.w.A.A.y.w.J.).!.[.",
"u.e.c.(.U.7.#.V.`.[.^.'.^.i.e.w.r.Y.^.^.R.U.U.E.A.y.w.U.}.}.`.R.",
"w.e.P.c.e.y.E.].`.U.(.}.L.u.u.I.P.W.W.[.}.).I.7.7.y.R.[.}.!.R.u.",
"c.T.L.e.l.!.J.i.t.E.|.W.x.t.L.I.I.W.[.[.E.e.7.7.e.y.).`.R.g.w.w."
};
