/* XPM */
static char *_a51056319484a16e9b728a31b63aaddG5CKwUNgqq0eKjQL[] = {
/* columns rows colors chars-per-pixel */
"32 160 143 2 ",
"   c None",
".  c #252413",
"X  c #2B2917",
"o  c #35341C",
"O  c #39361F",
"+  c #3E3E20",
"@  c #403E23",
"#  c #3F4120",
"$  c #454425",
"%  c #4A472D",
"&  c #4C4B29",
"*  c #504E2A",
"=  c #4D5128",
"-  c #55542D",
";  c #58562E",
":  c #57582D",
">  c #545234",
",  c #595631",
"<  c #5D5B32",
"1  c #5E5E38",
"2  c #605F35",
"3  c #615D39",
"4  c #5E6033",
"5  c #636236",
"6  c #656439",
"7  c #68663A",
"8  c #6C6A3D",
"9  c #676640",
"0  c #6E6C41",
"q  c #726F44",
"w  c #706E4E",
"e  c #747344",
"r  c #787646",
"t  c #747844",
"y  c #7A7846",
"u  c #76744A",
"i  c #79754A",
"p  c #7D7B4B",
"a  c #7C7B51",
"s  c #807E4E",
"d  c #817F53",
"f  c #827F59",
"g  c #848155",
"h  c #888255",
"j  c #86835A",
"k  c #89855D",
"l  c #8C8A5F",
"z  c #858263",
"x  c #8A8662",
"c  c #8D8B63",
"v  c #8E8969",
"b  c #918E67",
"n  c #928E6B",
"m  c #94906E",
"M  c #94916F",
"N  c #95936F",
"B  c #95926C",
"V  c #95926E",
"C  c #938F72",
"Z  c #918E71",
"A  c #949071",
"S  c #969371",
"D  c #959172",
"F  c #979172",
"G  c #969471",
"H  c #959374",
"J  c #959375",
"K  c #969374",
"L  c #979374",
"P  c #969275",
"I  c #969273",
"U  c #989073",
"Y  c #989173",
"T  c #999274",
"R  c #999774",
"E  c #999576",
"W  c #9A9477",
"Q  c #9A9776",
"!  c #999575",
"~  c #999975",
"^  c #9A9877",
"/  c #9B9876",
"(  c #989578",
")  c #989579",
"_  c #999779",
"`  c #9A9679",
"'  c #9C9779",
"]  c #9A9679",
"[  c #9B9879",
"{  c #9B9979",
"}  c #9B987B",
"|  c #9E997B",
" . c #9B987D",
".. c #9B9A7C",
"X. c #9D997D",
"o. c #9E987C",
"O. c #9D9A7C",
"+. c #9C987F",
"@. c #9E987E",
"#. c #9F997E",
"$. c #9C9A7E",
"%. c #9D9A7E",
"&. c #9D9A7F",
"*. c #9F9C7E",
"=. c #9F9D7F",
"-. c #9D9A7D",
";. c #A09E7E",
":. c #9E9881",
">. c #9C9A80",
",. c #9D9B81",
"<. c #9E9B82",
"1. c #9F9B83",
"2. c #9F9C80",
"3. c #9E9D80",
"4. c #9F9D83",
"5. c #9E9B81",
"6. c #A09D80",
"7. c #A09E81",
"8. c #A19D83",
"9. c #A19E83",
"0. c #A09D84",
"q. c #A19E84",
"w. c #A19F84",
"e. c #A09E85",
"r. c #A19E85",
"t. c #A29F85",
"y. c #A39D86",
"u. c #A19E87",
"i. c #A19F87",
"p. c #A39E86",
"a. c #A29F87",
"s. c #A19E84",
"d. c #A39F89",
"f. c #A1A083",
"g. c #A2A086",
"h. c #A2A087",
"j. c #A3A187",
"k. c #A2A086",
"l. c #A2A088",
"z. c #A3A189",
"x. c #A2A08A",
"c. c #A4A188",
"v. c #A3A189",
/* pixels */
"                                                                ",
"                                                                ",
"                            - - < -                             ",
"                          , 7 c k 7 - -                         ",
"                        1 i ~ ,.+.g r < &                       ",
"                    $ e x 7.y.u.$.B p p < =                     ",
"                  - e v :.u.k.4.E >.g p e - -                   ",
"              O < q x [ u.u.+.G k g r q 8 < - - o               ",
"            3 1 a v n R =.4.c g q q 8 e 5 < , : - +             ",
"          p u z >.C B ,.$.$.d 0 8 5 8 6 e < 5 < e , $           ",
"      d g d v ,.` c [ k.v n q d n e 0 5 8 2 5 5 e 8 - &         ",
"      J ~ v u.J c G k.O.j d j ` 4.T e 7 < , < 8 6 r 7 - -       ",
"    ` E c E $.v c u.6.U d a J z. .G j 7 7 5 - 7 8 y p 6 - = .   ",
"  k D k g ,.>.n =.7.W n j n d.d.u.c l 0 6 8 8 e s 8 8 p 5 - -   ",
"  j j e j C C [ k.,.T b k / c.d.k.n g i < 5 y h p 7 7 e q 2 -   ",
"    e 2 f x n c.7.T Y b b u.u.;.m j g p 7 4 8 p g y 5 5 8 2 -   ",
"    1 1 x N =.k.W Y n c ' y.;.;.k j d p g 8 8 8 s g 8 4 : - O   ",
"      p +.,.k.N j x k B u.;.o.W l s h p 8 s 7 4 7 8 h 8 : $     ",
"      B j.f.{ k s p k =.y.! ' U j p s p p 8 8 < : 5 8 8 2 $     ",
"      / 7.E v s d d +.;.E b F Y v e 8 8 t p y 6 4 : 5 7 7 2     ",
"      [ ) x a d 0 m +.R c g N 7.O.e 6 < 2 g p e 7 5 ; - *       ",
"        g a a p 0 +.R B g s D c.;.k e ; < e l e 7 8 < $         ",
"          r 0 9 p ~ b B d p [ d.=.l s < 5 6 g k 7 6 ,           ",
"            1 1 g m l l e e 7.y.+.l g 5 : < 5 h p 8 *           ",
"                w k g p 7 a u.u.W l h 8 ; , 5 e p 8 &           ",
"                  r r 7 , v 6.E b h h q - & = 6 y 7             ",
"                  p 5 ; 1 x J n x j d r -     o #               ",
"                          i k c l i r 0                         ",
"                            p g a 3 6 &                         ",
"                                                                ",
"                                                                ",
"                                                                ",
"                                                                ",
"                                                                ",
"                            - - < -                             ",
"                          : 7 x k 7 : -                         ",
"                        1 i ~ 4.$.d e < &                       ",
"                    $ q k 7.u.u.=.A g y < *                     ",
"                  - q b +.c.u.u.` :.g p e - *                   ",
"              O < q x +.f.u.+.m k d r e 8 < ; - O               ",
"            3 1 a v n R =.4.c g e 0 9 q 5 < ; ; ; #             ",
"          a u z :.C b f.{ =.g 0 0 6 8 6 e 2 2 2 e , $           ",
"      d g a v ,.` c O.k.c v 0 g n e 8 5 8 2 5 2 e 7 - &         ",
"      R ~ c u.J v m k.O.k f j  .4.J r 7 2 ; , 8 6 y 7 ; &       ",
"    ' E c ` $.v b 7.6.U d a H h.[ G g 6 6 5 : 7 e e y 6 ; * .   ",
"  x D k g :.$.n ;.u.` n j m x.x.k.b c 8 5 e 8 e y 8 8 p 5 ; -   ",
"  g j e j C C ' u.;.T b k ~ z.z.c.b g i ; 5 p h p 7 8 t q 2 -   ",
"    e 5 f x n d.6.T U b c k.k.+.m j g p 7 < 8 p g y 6 6 8 2 -   ",
"    1 1 x B =.u.E D n b ' y.;.;.k j s p i 8 8 8 p s 8 < : - O   ",
"      p +.7.f.D k l k n u.;.O.' k s h p y y 4 5 7 e g 8 : $     ",
"      n c.u./ j p p l =.y.! ' F j p s i s 8 8 4 : 6 e 8 5 $     ",
"      O.7.E b s g a $.;.E b F Y b q 8 q y y s 6 < - 4 5 7 ;     ",
"      $.E c a g 0 Z $.R c k D 7.;.t 6 < 5 h s 8 7 5 ; - &       ",
"        f a p p 0 :.G N g s D d.;.l 8 : < r b 8 7 8 < $         ",
"          t 0 7 a ` B B s y ' d.O.l p < 4 6 h h 7 6 ,           ",
"            1 1 g n l l e e 7.u.;.l g 6 : 5 6 h p 8 *           ",
"                u k f p 6 d u.u.W l d 8 ; ; 5 r p q &           ",
"                  r r 7 , c 6.` b f h e - & = 6 r 5             ",
"                  p 6 , 1 k G v c f d s -     o @               ",
"                          i k v l r r 8                         ",
"                            p g s 3 7 %                         ",
"                                                                ",
"                                                                ",
"                                                                ",
"                                                                ",
"                                                                ",
"                            - - < -                             ",
"                          - 8 c k 7 - -                         ",
"                        2 i ~ ,.+.g e < &                       ",
"                    $ e k ,.d.u.=.m g p < &                     ",
"                  > q v :.k.k.4.` ,.g y e - *                   ",
"              O < q x  .k.u.+.G k g y 8 8 2 ; - o               ",
"            3 1 a v n ~ ,.k.v g e q 8 q 2 < ; ; 4 #             ",
"          p u z :.m b f.{ +.g 0 0 5 8 6 r 2 2 2 8 4 &           ",
"      d g a v ,.E l O.u.c v e a n e 8 2 8 2 5 2 8 8 - =         ",
"      J ~ v 1.P v D y.;.k g j _ 7.J u 7 < , < 7 8 8 7 : *       ",
"    O.E c ) $.v c u.;.Y d p H z.{ H j 7 7 2 - 7 8 e s 5 - * .   ",
"  k D k g 4.>.m 7.7.E n j m x.z.x.c l 8 5 e 0 e y 8 8 g 6 - -   ",
"  j j q j A C [ d.=.T n k _ z.k.h.b h i ; 5 p h p 7 7 e 8 6 -   ",
"    e 2 f x n z.7.T J c c h.k.$.m k h p 7 , q p g y 5 6 8 2 -   ",
"    1 2 x N =.u.E Y n b O.u.6.' k k d p y e 8 8 s s 8 4 ; * O   ",
"      p +.f.f.D j k k n u.;.;.W l p g p y e 4 4 7 e s 8 : $     ",
"      n c.k.[ k s p k $.y.! W U k p p p p y 7 ; ; 6 e 8 5 $     ",
"      / ,.[ c p g g $.=.! b F T c e q 8 y p y 7 : ; 2 7 7 <     ",
"      $.R x a g 0 m O.R b g F ;.=.e 6 < 5 h s e 7 5 : : &       ",
"        f a a p 0 O.R B g s D y.;.k e ; < e l e 7 8 < $         ",
"          r 0 6 p [ B B p p O.y.+.l p < 4 5 d j 7 5 <           ",
"            1 1 a C c l e e 7.d.=.l g 6 ; < 6 g s 7 *           ",
"                w l g p 7 a d.u.W l d 8 : ; 2 r p e &           ",
"                  i r 6 , v 7.E b j h q - & * 7 e 3             ",
"                  p 6 ; 2 x J n c j h e *     O $               ",
"                          i g v l i r 0                         ",
"                            p g a 3 5 %                         ",
"                                                                ",
"                                                                ",
"                                                                ",
"                                                                ",
"                                                                ",
"                            - - < -                             ",
"                          , 7 c k 7 - -                         ",
"                        1 i ~ ,.+.g r < &                       ",
"                    $ e x 7.y.u.$.B p p < =                     ",
"                  - e v :.u.k.4.E >.g p e - -                   ",
"              O < q x [ u.u.+.G k g r q 8 < - - o               ",
"            3 1 a v n R =.4.c g q q 8 e 5 < , : - +             ",
"          p u z >.C B ,.$.$.d 0 8 5 8 6 e < 5 < e , $           ",
"      d g d v ,.` c [ k.v n q d n e 0 5 8 2 5 5 e 8 - &         ",
"      J ~ v u.J c G k.O.j d j ` 4.T e 7 < , < 8 6 r 7 - -       ",
"    ` E c E $.v c u.6.U d a J z. .G j 7 7 5 - 7 8 y p 6 - = .   ",
"  k D k g ,.>.n =.7.W n j n d.d.u.c l 0 6 8 8 e s 8 8 p 5 - -   ",
"  j j e j C C [ k.,.T b k / c.d.k.n g i < 5 y h p 7 7 e q 2 -   ",
"    e 2 f x n c.7.T Y b b u.u.;.m j g p 7 4 8 p g y 5 5 8 2 -   ",
"    1 1 x N =.k.W Y n c ' y.;.;.k j d p g 8 8 8 s g 8 4 : - O   ",
"      p +.,.k.N j x k B u.;.o.W l s h p 8 s 7 4 7 8 h 8 : $     ",
"      B j.f.{ k s p k =.y.! ' U j p s p p 8 8 < : 5 8 8 2 $     ",
"      / 7.E v s d d +.;.E b F Y v e 8 8 t p y 6 4 : 5 7 7 2     ",
"      [ ) x a d 0 m +.R c g N 7.O.e 6 < 2 g p e 7 5 ; - *       ",
"        g a a p 0 +.R B g s D c.;.k e ; < e l e 7 8 < $         ",
"          r 0 9 p ~ b B d p [ d.=.l s < 5 6 g k 7 6 ,           ",
"            1 1 g m l l e e 7.y.+.l g 5 : < 5 h p 8 *           ",
"                w k g p 7 a u.u.W l h 8 ; , 5 e p 8 &           ",
"                  r r 7 , v 6.E b h h q - & = 6 y 7             ",
"                  p 5 ; 1 x J n x j d r -     o #               ",
"                          i k c l i r 0                         ",
"                            p g a 3 6 &                         ",
"                                                                ",
"                                                                ",
"                                                                ",
"x j d p y 8 8 8 s g 8 4 : * +       - 1 x B ,.k.E Y n b / c.7.O.",
"l s h p g 8 5 5 7 8 g 8 : &     .   $ p :.,.f.N j l k n u.;.+.' ",
"j p s p p y 8 4 : 5 8 8 5 $ @ - < = $ v c.4.[ k s p k +.y.! ' Y ",
"c e 8 8 e p y 8 4 : 5 5 5 ; 8 c k 7 - w $.R v s d g +.;.' b m T ",
"O.e 7 5 5 g p 8 7 5 ; ; 2 i E ,.+.g e < 6 j d d 0 n O.R l h m 7.",
",.k 8 ; < e l e 7 7 < q k 7.y.u.>.m g y 1 , e p 0 :.R B g g D d.",
"=.c s ; 4 5 g k 5 ; e v +.c.f.u.` >.g p e - , 6 a ` n B s p ~ z.",
"+.l g 6 ; 5 5 q < q x O.y.u.+.N k f r q 8 < - - 0 B x l 8 y k.k.",
"W l g 8 - 1 u 1 a v b ~ ,.f.c g e 0 9 q 5 < ; ; - 9 d p 7 d y.u.",
"b h h q 8 i u z :.D b f.O.+.g 0 0 6 8 6 e 2 2 < e , 1 6 , x 7.E ",
"v h d d a d v ,.` c O.k.c m q a n e 8 5 8 2 5 2 e 7 - - < k Y n ",
"l u i R ~ v 4.R v m k.O.j d k [ 4.J r 7 2 ; < 8 6 y 8 - > q g v ",
"a q ' E c ` $.v c u.6.U a a H z.O.G g 6 6 5 : 7 e e p 6 - - 8 a ",
"> f Y k g :.>.n ;.7.' n k m x.x.k.c c 8 5 e 8 e y 8 e y 5 ; - 1 ",
"  u g 0 j C C ' y.;.Y b k ~ z.k.c.b g i < 4 p h p 7 7 8 q 2 - X ",
"  % 3 1 f x n c.7.T U v b k.k.+.m j g p 7 < 8 p g y 7 7 8 2 -   ",
"    % 1 x N =.k.J D n c ' y.6.' l j d p y q 8 8 p s e ; ; - O   ",
"    # u $.,.f.D k l l n u.;.;.! k d h y y e 2 2 7 e s 8 : $     ",
"< - $ v k.u./ k p p k =.y.! ' F f s s s s 8 8 4 ; 6 y 8 5 $ # - ",
"k 7 - u $.E b p g d $.;.' b F F b q 8 8 y s y 6 ; - 2 6 5 : 8 c ",
"[ g e < 6 g a s 0 Z $.R c k D 7.;.y 7 < 5 h h 8 7 2 ; ; 1 i ~ ,.",
"+.B g p 1 , r a 0 =.! B g s D d.;.k 8 : < 8 B 8 7 8 < q k 7.u.u.",
"E =.g p e - , 5 p [ B B p p ` d.O.l s : 4 6 h h 5 , q b :.k.k.4.",
"k g r e 7 1 - > 0 B l k e e 8.d.+.l s 7 ; 4 7 t < q x +.u.u.+.G ",
"u 0 8 q 5 < ; - ; 8 a p 6 d d.u.' l d 8 - < e 1 a v v ~ =.h.c g ",
"8 5 8 5 e 1 5 2 e ; 1 6 , x 6.` b f h e 8 a u z :.A b f.{ +.d 0 ",
"n e 8 5 8 4 5 5 e 8 - , 1 j J n c f d s g a v ,.R c =.k.v n q a ",
"u.D u 7 4 , , 8 6 r 7 - - u j c l r s W ~ v 4.J c G k.O.j d k ` ",
"` D g 8 6 1 , 7 e e g 5 : : 7 p i u E E c E +.n v 7.;.U d d J z.",
"u.b l 8 5 q 0 e y 7 8 g 5 : - , > k J k g :.+.n 7.7.W n j n d.d.",
"k.n g r ; 5 p h p 6 6 8 8 5 - X   u g q j C C [ k.=.T n k E c.d.",
"m j g s 7 < 8 p g y 6 6 8 5 -     % 5 1 f x n c.7.T J c b u.u.;."
};
