/* XPM */
static char *_5e38b94afad42ecd5b42733e52667e77uY19NLfzLEfpt18[] = {
/* columns rows colors chars-per-pixel */
"32 160 99 2 ",
"   c #446733",
".  c #486734",
"X  c #466B35",
"o  c #4A6E36",
"O  c #4A6F38",
"+  c #4C7237",
"@  c #4D7339",
"#  c #517636",
"$  c #557B37",
"%  c #5A7B36",
"&  c #53753A",
"*  c #557B3D",
"=  c #597D3E",
"-  c #5B7F40",
";  c #5E8337",
":  c #5A813E",
">  c #618637",
",  c #658B37",
"<  c #698E37",
"1  c #61863B",
"2  c #658B3B",
"3  c #698E3A",
"4  c #6C9336",
"5  c #6E9933",
"6  c #6C933A",
"7  c #719636",
"8  c #739D35",
"9  c #799E36",
"0  c #71973A",
"q  c #739B3A",
"w  c #76A236",
"e  c #7CA537",
"r  c #7EA837",
"t  c #77A038",
"y  c #7BA43A",
"u  c #7EA938",
"i  c #5D8341",
"p  c #618643",
"a  c #648A41",
"s  c #648B42",
"d  c #678C42",
"f  c #618844",
"g  c #628944",
"h  c #658A45",
"j  c #648A46",
"k  c #668C46",
"l  c #678C46",
"z  c #668D46",
"x  c #668E46",
"c  c #678E47",
"v  c #688F43",
"b  c #6A8E47",
"n  c #6A8D48",
"m  c #6C8F48",
"M  c #699140",
"N  c #6B9140",
"B  c #6A9048",
"V  c #6C9148",
"C  c #6D9149",
"Z  c #6E9248",
"A  c #709441",
"S  c #719941",
"D  c #79A040",
"F  c #80A537",
"G  c #80A937",
"H  c #80A738",
"J  c #80A73C",
"K  c #80A938",
"L  c #81AA3B",
"P  c #81AC38",
"I  c #83AD39",
"U  c #82AC3B",
"Y  c #84AC39",
"T  c #84AF39",
"R  c #85AE3D",
"E  c #88AF3A",
"W  c #85B03A",
"Q  c #86B03A",
"!  c #86B13A",
"~  c #87B23B",
"^  c #8AB33B",
"/  c #8BB43B",
"(  c #8AB53B",
")  c #8BB53B",
"_  c #89B33C",
"`  c #8AB53C",
"'  c #8CB63C",
"]  c #8DB73C",
"[  c #8EB83C",
"{  c #8FB93D",
"}  c #90B63E",
"|  c #90BA3D",
" . c #91BB3D",
".. c #92BB3E",
"X. c #94BB3E",
"o. c #93BC3E",
"O. c #96BC3E",
"+. c #98BD3E",
"@. c #88AE40",
/* pixels */
"Q u Y Q r K K Y u y I u Q Q u _ Q u u _ u I u W u e I e W Q u ] ",
"8 I u u r ^ { Q ~ _ _ u / u u Q w I u u u o.{ ~ Q Q / u ] e e W ",
"Q ' Q / | O.| { | ' | I u t Q u _ { u I @.@.{ ' o.] o.Q u e u u ",
"' I I r K Y Q ^ Y y I r 2 3 S 2 l 0 1 q y y _ _ W r I r w r ] ~ ",
"r I u I Y I Q w q t D 2 i l = i = = i & d 6 r r 8 e _ e W ] u W ",
"I I { @.o.Y u q 6 6 d l l i l i = i i B l i : y r W / { ] W { / ",
"Q 5 I u _ U y q ; & * i @ i i i i X i = i i s M M y u I w I u ] ",
"u Q Q { Q _ t i O & & @ * X X i = i i i i i i i @ 8 q w e 5 5 W ",
"u { ~ _ Y K d = l : = b = i B i = n p p i p p = l d S o.u _ ' Y ",
"I Q r e y , = & & b C f i = = i = i * @ = & & & & l N W _ u u _ ",
"u _ u Q 0 d i & = = p l i = @ i * i * i & p i & i = i 0 t y w Y ",
"W _ o.y q n f = l l o = i n i * i i p b C b p * l l + * y { Q u ",
"{ o.] t = * * - = O & @ * i o i l l f f * * * - * o & @ 8 I 8 Y ",
"Q / Q 6 * i = X - a i l * @ i : = f i & * i * X : d * * q y ^ Q ",
"_ Q t i i i : i i = i i n i B f i i = i i p = p : = d = q / { ' ",
"' r 6 s * @ = & = i i i @ = i = i = i i * @ = & = = i = + q I I ",
"Q u 4 1 = i i i i * = * i i = f i * i i * i - i = X + + ; q W ~ ",
"8 r 2 + & i f i i i i = f * * i @ i * * = i i i i i : + ; e u Q ",
"Q _ 4 : i B f f l i B i = * i = i l i f v B j i x - = , w e W e ",
"/ Q q ; @ : i i i - = * @ = f i f = = * : : i i i * & 6 w u / ! ",
"r I y 4 2 @ = & @ & f & i f = i * = = & i - i & + X & 2 r _ u ~ ",
"u I ' ' 2 o o & i i i l j i f i i i i n B : = * i : $ 3 ~ ~ { Q ",
"Q 8 I t ; @ X i i * * i & i * l i X i = i i i @ i * , 5 w I u { ",
"u Y _ ' y 4 * = o & & & & X X i = i i i i i i X X + , e y 5 8 Q ",
"I { Q _ I y 2 $ & + * b = p B i = l p f i + * o @ 8 / O.W / ] Q ",
"u Q u e I u 8 > o + 3 : & * = i = i * & = @ X # @ r @./ Q e u Q ",
"I ' u I w ' Y w < > > $ + * & i * * * @ X % > 0 Q Q ] ] Q e w W ",
"u ' ' { +.| / K } Y 4 > * : 1 * @ X @ > * y K u ] / 8 r W { Q e ",
"{ o.{ / Y y G G r 8 w 9 r ; , + * 2 4 4 4 r r r r 9 w w e r w I ",
"I ' Q e H Y r 7 u _ G | r w u 0 0 Q Q u K Y r 7 G ' G / W e / I ",
"' Q Y Q Q / r Q / u / { o./ { { { _ I Q ^ Q I Y ^ I / / ] / { / ",
"_ r Y Q u w G F I I Q Q w Y Q u / u W W r w r r r I / W w Q I I ",
"Q r I Q : $ = i * & i * i i i i i = i i * = = i = @ - ; , ~ Q ~ ",
"8 I u w : @ i : i i i i i * = i X i * * * i l : i i @ * 2 t r Q ",
"_ ' ~ _ 6 @ * i l i B i : @ i * i l i l x n l l l i = + ; 4 Q u ",
"' u u 6 @ : i i i * i * @ i i i i = i * * - i i i & * o $ w / Q ",
"u u u y $ = i & @ & i & i l i i * * * * = = i * @ @ : ; 4 _ u Q ",
"I I _ @.> = = = i f i x i i f i i i i V l : * = i i X * y Q { ~ ",
"Q 5 Q y 6 = : i f * * i @ i i f i X i = i i i i i @ @ + 6 u u _ ",
"u Q U y i * i i @ & & @ = X X i * i i j i i i i @ @ o + 4 5 8 Q ",
"u o._ _ 2 i i = j - - n = p b i - l i i i i i : i : @ $ 2 Q { Q ",
"I Y u 7 - & & & * l C p i * = i - i * @ i i & & = s : @ , y u Q ",
"u _ K u ; p i * - = i j i * @ i = i = i @ f i * : = a @ q e w W ",
"u { _ _ 2 & - = l l @ * i B p * i i i f B n i = l f $ , e { Q y ",
"{ { { q 2 & * - * O & & * i @ - j b p f * * = i = @ o @ 4 u w W ",
"I { / 6 = i * X - a = l * & i - i f i & * i * X i i + @ ; w I Q ",
"_ W u I a i i i i : i f l f l j i i * i i i = i i = = + 5 Q { { ",
"{ u W y * @ * & * i i i @ : = * l & i i = @ = & = = = + : u Q u ",
"W u I 6 @ @ & : = * = * - i = i i = i i * = = i = & i * , Q u _ ",
"8 U y 6 = i f : i i i - f * * i X i * * * p l = i @ O @ 7 e u Q ",
"W { W D : n l l l p n i = * i * i f i p n C l f a = + * 2 e u u ",
"_ I I r $ : i i i = = * @ = f i f i i * = : i i i $ + : ; r ' Q ",
"u u u t & : i & @ * l & i l * i * i * * = = i & @ @ X $ 4 _ u Q ",
"u ~ ' ~ : + * * i i i l f i l i = i i B x = * * i = * i 6 _ { Q ",
"Q w Q 6 i : i i i = * i & i - l i X i = i i i i i = & @ 2 I u ' ",
"u Q ~ y @ i i i O & @ & & X X i = i i f i f i i @ @ o $ ; 5 8 Q ",
"u | Q 6 @ $ i = l : = b = i B i - l i f i p i * p @ & l 3 Q { Y ",
"u Q y 2 * & & & = l C i i * = i * i * @ - & & X o @ @ 2 K u u _ ",
"u ^ u 6 @ = i & - = a l i * @ i i f = i & f i & - = i = y y w I ",
"u { { t + i i = x l O * i n p * - i i f C B i = l 2 + @ 4 ' Q K ",
"{ | { 6 * i * = * O @ & * - o i f l i i i = & i = o + + , r w K ",
"Q { u ; = i = X i i - x - & i - i f i @ * i * O = i @ ; 6 w ^ Y ",
"_ Q u q + = = i i = a i j i x i i i i i i i i i i @ + 2 y ' | ' ",
"{ r Q : X + * & i = i i @ i i - f = i i * @ * & * = @ ; 8 K Y Y ",
"Q u Y Q u u u W u r Q u ~ _ u _ / u I Q u r W ~ u r Q u u _ u _ ",
"w Y u u u ' { ~ Q / { u _ u u ~ w I u u u / { ] ] Q / Q { u u Q ",
"~ ' u ' o.{ D _ { u { u y e ~ u Q u / / { { @.@.~ Q @._ u r u u ",
"S 2 i w r q i q u ; s t 2 ; > 6 D 1 u 4 q t r W 2 6 8 u : y ' t ",
": = & @ : : : + : = i + @ * O i : = & * * @ * # + @ * + : ~ 3 i ",
": i l i @ & * $ i i i & - i @ i i : + B v i @ * i & * : = & f i ",
"i X : * i i i i i = * * @ i i i i X * $ i i i i i @ $ i @ * i i ",
": i i i i i i i @ & @ & & X X i = i i f i j i i @ @ & @ & X X i ",
"i B i i i i i i l i = n i i n i i l i i i i i i l i = l i i n i ",
"= i * @ i * & * & l v i i * - i = i = & i * * & * f B p i = * i ",
"= i = i @ p i & i = p l i * @ i = i i i @ i i & i = i l i * @ i ",
"* i i B C x i - n j @ & i B f * * i i f C B i = n l O & i l i = ",
"x B d i - * * - * @ @ & & i o i l x p p i * & i * o @ & * i @ i ",
"- i i & * i * X - d = p = @ i i - x i & * i * X i f = l = @ i i ",
"p i - i p p - i p = f p n p j f p i * i f i = i i - f i b p i f ",
"p * - p & @ * & * i i - @ i - = p * i p & @ * * * i a - @ i i : ",
"i - i i * - - i - & i @ i i i i i - i i - * i i i * - * i i : i ",
"O - * * - i i i i i i * i = i i O i & * * i j i i i i * i * * i ",
"i l i i M B j j l i B i i @ i * i x i i n j i v j i B i = = i * ",
"i = - = = i i i i * i i + i i i i i i @ = i i i i * - - @ = i i ",
"= - = & i = i @ @ * f & i f i i = @ - - * i i & @ & l & = l * i ",
"= i f B l @ @ + * i i j i i f i i i i l f & * - i i i l l i j i ",
"i X i @ i * O = * * * i & i i i i X i * * & i i i i * i @ i * = ",
"= * @ - * @ @ X X & @ & = X X i i + # @ + i i @ X @ @ @ * X X X ",
"@ = @ @ * X * o @ * @ i @ i b i * o @ o # : + $ + = # * * * : = ",
"@ + o o @ o X . @ @ $ & @ @ = i * ; & X * X + o X @ * o o o @ X ",
"@ ; 1 # o i $ % i @ i = X @ @ i @ * 2 * O & @ * : $ o @ o @ o @ ",
"> 0 K J q 0 y y y > & 2 2 4 2 + ; q ^ y 0 6 : 2 y 0 $ $ : ; 1 $ ",
"| { ' ' G u r K r 8 7 8 y u w q K | ' ' K 8 q r e w w 8 w r 8 q ",
"I { ~ y r Y r 5 G / r / P e ^ Q I { Q u F E r 5 u _ K ' P e ^ I ",
"_ Q u _ Q / I Y / P / ] ] / ] ] ' Q I Q / ^ K Q ' u ' ' ] / { { ",
"{ u Q Q u w r r G I / Q w Q Q I ' u I Q u w u e K I ^ Y w W W u ",
"Q r I W 2 o @ i i & - * i i = f i = : i = = = i = & i 6 u _ u _ ",
"8 I 0 r q : i : i i p = f * * i X i * = = i f i i i @ > t w u Q ",
"Q @.t b : = i f l i n i = * i * p f i f l B f f f i = * : 6 W u ",
"t u 6 * & : i i i = = * @ = i i f = = * = i i i i = : * + @ M s ",
"* i @ = : : i & @ & l & i f * i = = = & - - i & @ * l @ & i : i ",
"i i i l v i * * i i i n l i l i = i f B l i * = i i i d f i f i ",
"i X i * i i i i p * * i & i - l i X i * i i i i i = * i & i i i ",
"* i i l i i i i O & @ * @ X X i = i i i i p i i O & @ @ = X X i ",
"i j i i i p i = l = = n i i B i = b i p i p i - l i i x = p n i ",
"* i i # = & & & * b C p i @ = i = i * & * * & & * j C i i * = i ",
"i i * i @ l i @ i * f l i * & i = i = i @ j i & i i i l i = @ i ",
"i i j i C n p - l l o * i n p * i i p j C n p * j i @ = i n i * ",
"j x i i i - * - * O @ & & i o : l l f p * - & - * @ & & * i O i ",
"i i i O * i * @ - a i B i @ i i = p i @ * i * X i i = x * @ i - ",
"i i - i i i i i i = i i j f l f i i i i i p i i i - a i B i l l ",
"j - i i * @ * @ = i i i @ = i * f * i i * @ * & * i i i @ : = * ",
"i = i i i i - i - * = * i i - i i * i i * = - i * @ i * - i : i ",
"X i * = & i i i i i i = i * * i + i * = * a f i i i i * f * = i ",
"i j i i l B f l x i B i i * i - i l i i l B f f n i B i = * i * ",
"i i i & * i i i i = = = @ - i i f = = * = : i i i - i = @ - i i ",
"= = * @ - - i & @ & x & i i - i = = * & i - i & @ * i & i f = i ",
"i i f n n i * * i i i x j i x i = i f n x i * - i f i f f i l i ",
"i X i = i i i i i * & i O i i i i X i * i i i i p = * i @ i = i ",
"= : i i i p i i @ & & & -   X i = i i f i i p i O & & & = X X i ",
"i i + i i i i i l i = B i i x i = b p f i p p - l - * i - i $ @ ",
"= @ + @ : @ X @ * f B i i = i i = i * @ = & & & & l j @ = @ X @ ",
"@ o + : X @ * $ i = i l i * @ i * i = i O l i * i i i @ @ * * : ",
"* * & + @ i i - n l @ & i l i - i i f p C n i * l = X X @ 1 2 , ",
"S q 2 @ X @ * i - X @ & & i @ i l l f f i @ * - & X X @ ; ; 4 u ",
"^ / 0 2 $ i @ X i i i f - @ i i = p i = = i *   + o = a > 2 I Q ",
"] Q u 4 $ @ @ i i - f i n i v i i i = i i i * @ @ o i l q y { { ",
"{ r I q O o * & = i a i @ i i : i & i i * @ * & @ $ 2 7 w ~ I I ",
"i * i i * = i i = & i * - i = i i - i i * = = i = * - * : i = i ",
"+ i * * * a i i i i i = i - - i O i * * * i l : i i i * p * = i ",
"i l i i l B f f x i B i * * i * i x i f x n l l l p n i = * i * ",
"f = = = = : i i i * i - @ i i i i = i = * = i i i * = i @ = f = ",
"= - - & - = i & @ & i & i f i i * * * & - = i & @ & j & = j * i ",
"= i f x x i * - i f i x i i x i i i i B l : * = i i i x b i j i ",
"i X i = i i i i p = * i & i - i i X i = i i i i p * * - @ - - p ",
"= i i i i i f i O & & @ * X O i * i i f i f p : @ & & & * X X i ",
"= B i p i p p = k - - n = p n i - x i p i i p = i i i l i i n i ",
"= i * & = & & & & x C p i * = i - i * @ - * & & = l B p i * = i ",
"= i * i @ j i * i - i j i * @ i = i - i @ f i * i = f l i * & i ",
"i i p j C n i * x k O * i B p * i i i f B n i : n i X * i l i * ",
"l l f p - & * - = O & & * i O - n x p p * * * i - @ & & * i X i ",
"= p i & * i * X - i - l * & i = - p i * * i * X i i * l i @ i i ",
"i i i i i p i i i i d i l p n f i i = i i i i i i = i f i j B i ",
"i * i i * @ * & * : i - @ i : = x & - i = @ = & = i i i @ i i = ",
"i = i i * = = i = & i * i i = i i = i i * - = i i = = * i i = i ",
"X i * = * i f i i p i - i * * i X : * * * p i i i i i = i = * i ",
"i f i f b C l f l p n i = = i = i f i p B C n f j i n i - * i = ",
"f : i = * : i i i * = * @ = i i f i i * = : i i : = - - @ = i i ",
"= : * * = - i & @ * j & i f * i * i * & = = i * @ * i & i i = i ",
"= i i B n : = * i i i l l i l i i i f B x : * = i i i B B i j i ",
"i X i = i i i i i = = i & i - l i X i * i i i i i = = i & i = i ",
"= i i f i i i i @ & @ @ & X X i * i i j i i i = O & & @ & X X i ",
"i l i i i i f = l = = n = i n i = b i i i i i i j = = n = i B i ",
"* i * = = = & & & n C f i * = i * i * * = * & & * l C f i = = i ",
"i x * i @ f i @ : * f l i * @ - i f - i @ p i * - = p l i = @ - ",
"- i i i C n i = l l o = i n p * - i i i C b i * j l o = i B i * ",
"i B i i i - * i = o & & & i O i f n i f i i * i * @ & & & i o i ",
"i f i * * i * @ - a = B i @ i i i i i @ & i * X = a = l - @ i - ",
"i i - i i i i i i = i i f f x p i i i i i i i i i = i f l i B f ",
"i - i i - O = @ - - i i @ i i = j = i i = @ - & = i i i @ i i = "
};
