/* XPM */
static char *_173ab53e6384395cf48bea5c9aa71c2Mm0hINIDLwJ901wA[] = {
/* columns rows colors chars-per-pixel */
"32 160 211 2 ",
"   c #564B34",
".  c #5B4E35",
"X  c #5A4F38",
"o  c #5E5235",
"O  c #5D5A34",
"+  c #5D523A",
"@  c #635436",
"#  c #695735",
"$  c #625C35",
"%  c #6B5937",
"&  c #63553A",
"*  c #685739",
"=  c #655A3B",
"-  c #6B5B3C",
";  c #775F33",
":  c #705E3D",
">  c #5F762C",
",  c #5E6232",
"<  c #61732F",
"1  c #637C2E",
"2  c #646335",
"3  c #6A6236",
"4  c #646C33",
"5  c #6A6D36",
"6  c #656239",
"7  c #6A643B",
"8  c #6B6B3B",
"9  c #76643A",
"0  c #647132",
"q  c #6A7534",
"w  c #667930",
"e  c #6B7C34",
"r  c #6D733A",
"t  c #6F7B3C",
"y  c #737937",
"u  c #74733C",
"i  c #737B3B",
"p  c #36576A",
"a  c #3A5B6D",
"s  c #3D5F71",
"d  c #3F6273",
"f  c #5B5847",
"g  c #625741",
"h  c #645942",
"j  c #6B5E43",
"k  c #625C4A",
"l  c #695F48",
"z  c #705F40",
"x  c #625F51",
"c  c #5C655D",
"v  c #6E6147",
"b  c #65604E",
"n  c #6C624B",
"m  c #736343",
"M  c #746A43",
"N  c #796847",
"B  c #72654A",
"V  c #75694C",
"C  c #7A6B4C",
"Z  c #7A7747",
"A  c #666657",
"S  c #6B6653",
"D  c #6C6C5D",
"F  c #756B54",
"G  c #7A6D53",
"H  c #726F5D",
"J  c #7B7156",
"K  c #7E735A",
"L  c #405C6A",
"P  c #5D6B68",
"I  c #436576",
"U  c #466877",
"Y  c #466778",
"T  c #46687A",
"R  c #4A6C7D",
"E  c #516D7A",
"W  c #5F787D",
"Q  c #636E69",
"!  c #6A7169",
"~  c #747364",
"^  c #7A7866",
"/  c #687878",
"(  c #737C74",
")  c #767E78",
"_  c #81765A",
"`  c #837A63",
"'  c #857D68",
"]  c #65852D",
"[  c #698C2E",
"{  c #6D902F",
"}  c #6C8533",
"|  c #6D8C32",
" . c #6F8538",
".. c #728436",
"X. c #728C35",
"o. c #74813C",
"O. c #778A3A",
"+. c #7A8C3B",
"@. c #6F9431",
"#. c #6F9832",
"$. c #729433",
"%. c #789537",
"&. c #749C34",
"*. c #7A9D36",
"=. c #779139",
"-. c #7B9339",
";. c #7D9B39",
":. c #76A235",
">. c #7CA536",
",. c #7DA837",
"<. c #7EA339",
"1. c #7EA938",
"2. c #7C8643",
"3. c #7F9942",
"4. c #7A8076",
"5. c #83973E",
"6. c #80A637",
"7. c #80A837",
"8. c #82A539",
"9. c #88A33E",
"0. c #83AC39",
"q. c #89AF3C",
"w. c #86B03A",
"e. c #89B23B",
"r. c #8AB43B",
"t. c #8BB53B",
"y. c #8CB63C",
"u. c #8FB83C",
"i. c #8FB83D",
"p. c #90B73E",
"a. c #91B93D",
"s. c #92BA3D",
"d. c #859946",
"f. c #84934E",
"g. c #878858",
"h. c #87A544",
"j. c #87826B",
"k. c #80857B",
"l. c #869978",
"z. c #82A078",
"x. c #4C6E80",
"c. c #4E7283",
"v. c #517686",
"b. c #537887",
"n. c #537688",
"m. c #557A89",
"M. c #5A7D8D",
"N. c #5A7F92",
"B. c #687E84",
"V. c #5D808F",
"C. c #5E8291",
"Z. c #6D8287",
"A. c #60818F",
"S. c #738484",
"D. c #798886",
"F. c #738689",
"G. c #7A8B8B",
"H. c #638593",
"J. c #6B8794",
"K. c #668896",
"L. c #698997",
"P. c #628699",
"I. c #658A9B",
"U. c #6C8C99",
"Y. c #738B92",
"T. c #7B8E91",
"R. c #718F9C",
"E. c #6E909D",
"W. c #7C9294",
"Q. c #73919D",
"!. c #7E969D",
"~. c #648CA2",
"^. c #698EA2",
"/. c #6D92A4",
"(. c #6492AA",
"). c #6E95A9",
"_. c #7494A3",
"`. c #7A96A2",
"'. c #7D99A5",
"]. c #7196A9",
"[. c #7499AC",
"{. c #7B9CAC",
"}. c #6F9CB2",
"|. c #769DB0",
" X c #7A9FB1",
".X c #7CA2B5",
"XX c #75A2B9",
"oX c #7DA5B9",
"OX c #7BA9C2",
"+X c #838D89",
"@X c #879E89",
"#X c #81969A",
"$X c #84989A",
"%X c #8EAC86",
"&X c #839CA4",
"*X c #849FA8",
"=X c #8AA0A4",
"-X c #83A1AE",
";X c #83A4B4",
":X c #8AA9B4",
">X c #81A7BA",
",X c #83A9BD",
"<X c #8BACBC",
"1X c #90B0BE",
"2X c #91B4BC",
"3X c #85ADC1",
"4X c #89AFC2",
"5X c #8AB1C5",
"6X c #8CB4CA",
"7X c #91B5C6",
"8X c #92BBD1",
/* pixels */
"q.,.0.e.,.7.0.0.,.>.7.,.0.0.0.r.0.,.0.e.7.7.7.0.7.1.0.,.0.e.0.r.",
"&.0.7.1.,.r.i.e.y.r.i.0.r.,.,.0.:.0.7.7.7.y.a.e.w.r.r.0.r.,.,.w.",
"e.y.e.y.a.a.a.i.a.r.s.0.,.&.*.*.7.>.:.7.a.a.a.y.a.y.a.w.1.1.0.1.",
"r.0.0.7.7.e.r.e.0.,.&.*.< 4 0 6 $ 4 4 1 $.@.7.e.w.1.0.0.:.1.r.e.",
",.0.,.7.0.w.w.:.$.@.] , & * & * - & X @ 2 < ] >.:.,.r.,.e.i.1.e.",
"0.0.i.s.h.i.,.$.[ 5 , o * & g * l + j X & @ $ :.7.w.w.i.i.e.i.e.",
"w.:.0.0.r.,.{ [ i o o . & & z * B l G & - - $ w [ $.,.w.,.1.1.i.",
",.w.r.i.7.&.*.O # @ # o . @ C g g S j @ - & * .   X.&.:.,.#.:.w.",
",.i.r.r.w.*.2 o & o o D A g G F g B @ & * * m . o 6 0 ,.,.e.a.0.",
"0.w.,.>.1.=.$ % % % h S.;X>X>X;X*X;XB.k . . & l N m @ $.e.,.,.r.",
"7.r.,.:.X.5 o % 9 j.!.[.[.6XP.C.P.~.5X*Xf h C m m - @ %.0.,.>.0.",
"0.i.7.$.i o   + ' =X,X.XoX[.)._. X).3X6X].!.S . : % m O @.i.e.,.",
"a.h.0.X.# o % & S.<X6X^.^.].b.b.C.K.N.3XP.n.T.S % & z * 1 7.:.q.",
"w.r.&.q o o 9 V $XoX^.R v.b.m.M.P.H.M.P.>XP.c &Xf * * 7 | :.w.q.",
"i.0.[ o o   % C ( >XM.R c.v.n.M.B.H.n.v.m.].>X#X& o . 3 ;.r.i.i.",
"r.,.;.5 ; @ @ F W.P.M.M.n.n.b.n.v.H.H.m.M.H..X5XD . * @ O &.w.0.",
"0.&.X.$ m N m ~ -XP.b.H.Q.L.H.V.P.L.R.`.L.M.v.^.G.* o o } ,.,.r.",
"&.,.-.6 j m V k.;XoXm.b.H.V.m.V.L.H.m.C.J.U.^.>XY.= h 8 e 1.,.q.",
"r.y.0.+.M n B D.;X,XV.H.V.b.b.b.M.H.M.H.M.v.>X4XD.n 7 ..} >.0.1.",
"y.0.<.| Z F & '..X5XE.V.V.E.U.K.H.J.U.Q.Q.M./.4X#X% 5 X.$.0.r.q.",
",.0.1.%.5.G ' :X,XXX].H.K.U.U.b.v.v.v.v.M.U.L.oX;X% % } 0.i.1.r.",
"7.7.0.&.o.m F 1X`.,Xb.v.v.m.V.b.v.v.v.v.v.M._.5XD.$ 6 e &.h.i.r.",
"w.&.1.@.+.$ k 2X{..X).b.v.V.U.L.K.C.m.m.C./.4X<X^ 8 $.} #.1.1.i.",
"7.w.e.y.8.-.i F $X.XV.[.L.H.V.b.M.I.[.>X).|. X4.V - < :.,.#.:.w.",
"0.a.e.r.e.8.-.u m #X;X.X[.v.v.V.^.]. X4X3X_.A h - X.$.a.0.w.a.0.",
"0.w.,.>.0.,.*...2 % f.2X6XoX)./.oX>X!.B.( C C 5 v +.a.y.r.,.7.r.",
",.r.0.w.,.y.w.<.+.+.d.%X1X6XoXY.W.~ m = + 5.+.X.>.&.r.y.r.,.>.0.",
"0.r.i.i.s.a.e.7.e.0.;.=.M J @X^ m N _ i 7 5.7.{ i.r.:.,.0.i.w.,.",
"a.a.i.r.0.7.7.7.,.:.*.%.;.y =.8 9 2.d.$.} *.7.,.,.&.>.,.,.0.:.e.",
"0.y.r.,.7.w.,.&.0.e.0.r.8.%.8.,.;.q.q.>.,.0.,.&.0.r.,.y.0.>.e.e.",
"r.r.0.e.e.e.7.w.y.0.y.a.p.y.i.i.e.e.7.e.e.e.,.e.r.0.r.r.i.r.i.r.",
"r.,.w.0.,.:.,.7.7.0.e.0.:.0.w.w.r.,.0.q.,.:.,.0.,.0.r.0.:.r.0.0.",
"e.,.q.>.$ j N g ^.).Y T n.M.H.H.H.U.L.L.V.U /.;X* * 7 Z f.e.,.e.",
":.7.*.} $ = # g  Xc.a R M.M.C.M.m.m.M.H.H.E T OXA - - 2.r.,.7.e.",
"w.y.q.-.u & X k  XI.p I x.M.H.H.M.M.M.H.L.M.I ~.S.# o * +.,.0.0.",
"y.1.>.e 6 m & f P.N.x.n.A.H.H.H.H.L.R.U.M.P.(.OX/   * @ e ,.r.w.",
"7.1.>.X.5 @ . m _.^.m._.K.v.v.v.v.m.L.H.K./.P.)./ X = y -.r.,.w.",
"1.w.y.-.O.& : - Q 3Xv.v.U.L.V.V.J.U.M.c.c.C.|.)./     $ ;.e.a.y.",
"r.&.1.$...+ # - Q oXL.c.M.H.U.H.V.H.V.M.L.K..XoXW . . & } ,.0.e.",
"1.w.&.&.i o . * F.N.P.U v.M.K.K.A.M.M.M.].[.XX].h n V 7 ..&.&.w.",
"0.a.<.*.6 * = + Y.N./.n.J.Y.P.M.b.b.b.b.m.}.(.A - _ B $ %.e.a.w.",
"0.0.$.} 2 h - F ].^.H.J.Y.I.J.N.C.H.U.K.M.XXXXn C N m 6 %.,.,.r.",
"7.r.1.$.o.= - _  X].Y n.N.L.N.m.m.m.b.v.M.oX}.b : * o = %.,.:.0.",
"0.r.7.| 7 o . H  X^.I m.H.N.N.B.m.m.b.b.C..X).f & . 8 $.8.y.e.,.",
"i.a.r.8.5 ; ; k  X^.Y M.B.N.N.H.K.K.K.K././.J.H - - - 5 ,.0.:.e.",
"0.i.7.q @ 9 9 _ ;XI.R M.N.H.M.H.K.H.H.U.oX.X<X( + - * o 5.:.r.0.",
"r.r.>.X.@ # # B / [.v.R v.v.n.M.V.H.b.P./.>X^.( o . @ o ;.e.i.i.",
"r.,.w.+.# # @ X f {.H.v.v.v.n.v.b.H.H.M.H.6X[.#Xh @ * @ 4 0.w.0.",
"0.,.7.o.7 m C C F  XP.R H.U.P.A.H.L.Q.!.L.>X>X+Xj * @ O -.w.0.r.",
":.0.6.&.= & v J `  X~.a b.m.m.M.U.A.n.A.K.m.N.T.@ # & O +.,.,.w.",
"r.y.&.q & j F S ! P.P.U R v.n.b.V.K.M.H.n.s x.#X= +   O =.,.0.,.",
"r.7.,.X.$ j ' ' &Xn.oXR b.R.U.J.H.H.U.Q.U.M.^.*Xb . + 2  .,.r.w.",
"7.,.:.} $ m J ' <X5X[.x.M.U.R.m.n.c.n.v.N.3X6XD.j % m 2 <.i.1.w.",
"7.0.r...@ & & S 6X^.a T v.m.M.n.n.v.c.v.N.C.>XH % m m = q e.i.e.",
"w.:.7.e # - & Q 5Xx.d E v.A.U.U.K.V.m.n.].v.{.! V m v h =.7.1.i.",
",.w.w.e.7 h - F.[.R v.A.U.H.M.v.m.V.C.N.U.[.L.Y.n + = = e #.&.w.",
"0.a.&.] 2 = g Z.x.c.U n.M.v.v.v.m.m.V.V.m.).R {.J B - 6 =.0.a.w.",
",.w.$.$.2 m v `.d ^.Y v.M.M.M.M.V.C.C.V.C.I.I.-XJ j j i <.1.,.r.",
"7.y.,.q - C B F.M.[.a Y c.m.N.L.Q.E.I.H./..X,XD.m & j $ *.1.>.0.",
"0.y.7.} 7 m m Q 3Xn.a Y v.M.M.L.K.m.m.m.C.).M.! j m j $ %.i.e.,.",
"a.a.i.t o o * A 3XN.a v.J.J.H.M.K.V.M.M.m.[.;XF j B & 7 ;.q.:.w.",
"0.y.3.r q + * l {.).x.n.Y.n.v.n.b.K.'._.H.,X{.V & X B i =.>.w.w.",
"y.r.*.-.% = = j J.x.x.v.U.M.M.n.b.A.U.{./.^.5Xv & - V -.6.e.i.i.",
"y.,.q.2 & 9 m S >Xx.x.M.C.N.M.H.U.V.b.m.M.I ;XF # # - y *.q.0.0.",
"0.7.0.0.7.7.0.0.1.>.0.,.0.e.7.r.q.,.7.q.,.,.0.0.7.,.7.7.0.e.7.r.",
":.0.&.,.7.0.p.0.e.7.e.7.r.,.,.q.&.0.,.7.<.r.a.,.w.e.r.r.e.,.,.0.",
"&.[ [ 7.y.$.$.,.&.:.&.0.:.$.[ :.@.&.&.6.<.$.r.$.7.>.w.0.&.,.:.] ",
"2 4 , 1 [ 0 O > ] 2 ,  .0 , O 2 w 4 { 1 1 1 1 ] 1 < 0 } 4 $.$.4 ",
"G F F o o o X @ $ & = X . @ & & j j $ o . . @ @   . . o o 1 4 & ",
"m v C + X @ * - = j v & - # @ & m _ S = B o @ @ .   . .   o . @ ",
"o + +   z * o * @ o @ o # @ = j - m g - N o & & . X . o & . .   ",
"z j + h m z o * @ o @ @ @ j G m G . . - - X j - + j = m 9 o # f ",
"S.Q f F ` ^ D ( D.`._.'.D.G ` ~ +Xb + h b ) {.'.;XQ.F.H ^ G.Y.E.",
"N.[.3X>X5X6X8X8X>XI.M.I.6X&X;X5X3X6X5X4X8X3XXX.X.X,X6X8X4X|.).T ",
"m.).5X>X>X{..X>XoX5X8X6X>X|.^.~.].).).^.,X]..X/.I.)..X3X5X.XC.c.",
"C.P.].[.^.^.H.b.v.M.P.K.B.N.n.M.U.[. X).L.M.M.M.m.H.U.M.n.n.P.C.",
"V.b.b.v.v.M.K.M.V.C.K.A.H.C.V.C.K.K.K.K.M.b.C.P._.Q.H.c.c.v.H.C.",
"E.K.C.M.M.K.U.U.U.H.H.K.C.C.C.C.K.H.K.K.K.H.K.A.C.c.v.J.U.U.C.M.",
"m.H.U.U.V.n.m.M.K.L.L.n.v.v.b.M.M.H.v.v.v.m.V.H.b.c.v.m.H.C.c.b.",
"m.C.H.V.V.M.m.M.M.M.L.V.m.v.b.v.v.H.H.M.A.L.L.M.H.H.C.V.m.V.V.b.",
"U.M.c.v.m.V.U.V.b.v.b.H.U.U.H.H.H.L.R.`.L.M.m.m.V.L.P.A.b.b.U.U.",
"K.M.M.C.H.K.V.c.b.b.b.b.K.m.m.V.L.H.n.H.L.U.H.L.K.b.b.V.L.U.U.H.",
"m.V.L.H.V.b.m.V.V.H.C.K.m.m.v.m.M.H.M.H.M.v.v.b.C.K.H.V.K.H.V.C.",
"C.V.C.b.b.b.m.m.V.E.E.V.H.E.E.H.H.K.U._.Q.H.M.v.v.b.M.V.C.M.M.m.",
"m.V.K.C.H.H.H.U.K.m.C.K.K.U.E.m.c.c.b.b.M.R.U.P.V.M.C.K.V.m.b.b.",
"K.C.m.V.L.Q.Q.H.m.v.c.v.c.m.V.b.b.b.v.c.c.V.R.`.Q.L.V.H.K.K.U.K.",
"m.m.m.I.V.v.V.H.C.m.b.b.b.V.U.L.L.V.m.m.v.m.L.H.P.v.b.v.b.V.E.C.",
"/.,X,XoXK.K./.[.|.E.`.K.[..XK.M.m.M..X,XoX|./.M.].[.I.V.K.].XX.X",
"_.'.B.I.I.[.>X>X,X4X5X6X3XOX3X>X,X).|.3X=XT.{.,X;X6X6X,X]..XoXoX",
"K S h b ~ ! k & n D ! 4.B.Q Z.'.&Xz.l.K N h j V k ^ G.;X;X{.<X*X",
"' g.o.$ C C 8 r 8 - = N - # # G J Z -.M m $ % M i Z m g k B j J ",
"d.<.&.*.} d.q.<.d.+.8 <.+.+.o.M M -.$.X.d.+.2.2.r.-.u 2 8 M f.g.",
"h.i.,.,.$.,.,.0.,.:.*.%.8.7.%.-.9.e.8.,.7.&.&.,.1.=.$.-.;.<.:.h.",
"i.i.e.,.7.0.,.$.7.e.0.y.0.:.e.0.0.i.q.,.,.q.,.$.7.e.7.y.0.:.e.0.",
"r.r.7.e.r.r.7.w.r.0.r.i.a.r.a.a.r.e.0.w.e.e.,.e.e.,.r.y.i.i.i.i.",
"r.,.0.w.,.:.,.7.7.0.w.w.:.w.0.0.r.,.w.w.>.>.,.,.0.q.r.w.:.w.w.0.",
"e.,.>.$.i = m D n.n.~.C.N.N.C.H.K.L.L.U.A.C.C.-Xj * - 2.h.q.,.r.",
"&.:.[ $.e o @ n ;X,X.XL.V.C.V.M.b.m.m.K.^..X XoX^ = o 2 [ ] *.0.",
",.8.1 6 $ & o f .XR  XV.v.M.H.H.V.M.m.H.R.3X5X_.#Xj &   O 0 $.$.",
"y X.u + h m B W./.T [.].K.H.H.C.H.L.Q.U.M.P.oX3X>X) X j - o O 6 ",
"C l j g B f G.M.n.{.[.U.H.m.v.v.b.m.J.K.J.K.M.M.^._.! K m   o m ",
"z V l & B 4._.>X.X.X[.P.U.L.C.M.K.L.M.v.v.n.M.^.N.U.B.C =   B - ",
"@ x g ! &XR C.|. XK.J.H.M.H.L.H.V.H.V.M.K.U.Q.U.N.T |.&XB.Q ^ @ ",
") *X1X{.M.T C.oX^.v.v.n.M.M.J.J.V.M.M.V.N.J.H.M.].[.].M.{.N._.P ",
"L n. X^..X.X.X|.I.H.H.H.L.U.K.M.v.v.b.b.M.J.J.H.n.n.v.^.^.].). X",
"I.,XN.I R M.P.U.L.H.R.U.U.L.H.N.H.H.U.U.L.n.M.H.H.H.N.M.I.[.].C.",
"C.I.n.B.H.U.L.M.v.v.M.M.V.J.H.m.b.b.m.m.L.v.v.v.n.M.U.`.Q.K.M.n.",
"M.n.n.n.H.L.m.n.v.v.M.V.H.H.M.M.m.m.b.m.H.C.M.V.M.H.J.M.v.m.I.C.",
"N.m.m.b.v.V.H.M.V.V.K.H.V.H.M.C.K.K.K.K.M.m.M.P.Q.R.H.v.v.v.H.H.",
"U.K.C.M.M.K.U.U.E.H.H.H.H.A.M.H.K.P.H.K.H.H.K.H.M.v.v.K.L.U.M.M.",
"m.P.U.U.M.b.m.M.H.U.L.b.v.v.m.M.V.H.b.v.v.m.M.H.M.v.v.m.H.H.n.v.",
"M.C.A.V.V.M.m.M.M.V.L.V.v.v.b.v.v.H.K.m.C.J.U.M.H.H.C.M.m.V.M.b.",
"L.M.c.v.m.C.L.C.b.c.b.H.E.E.H.H.H.U.Q.Q.L.V.m.m.V.L.H.C.b.b.U.U.",
"K.M.V.C.H.K.V.b.b.b.v.m.K.m.b.M.U.V.b.H.L.U.H.L.H.m.b.V.U.U.U.C.",
"M.V.K.H.M.m.m.V.V.C.H.H.m.b.b.b.A.H.M.H.M.v.v.m.H.K.H.V.K.H.V.V.",
"V.V.V.m.b.b.b.m.C.Q.U.C.H.Q.U.P.H.L.U.Q.Q.V.M.b.v.v.M.V.C.M.M.M.",
"m.V.P.V.H.K.H.U.K.b.C.K.K.U.U.M.v.v.n.v.m.Q.L.H.V.M.C.K.V.n.b.m.",
"K.C.m.V.K.Q.Q.K.m.v.c.v.c.m.M.m.v.v.c.v.v.V._.`.Q.U.V.H.K.L.U.K.",
"m.m.m.V.M.b.V.L.V.V.m.b.b.C.L.U.H.V.m.b.v.m.L.H.m.b.b.v.v.C..X].",
"V.E.H.V.H.L.H.H.K.U.U.I.U.K.M.m.M.M.H.V.M.M.M.v.v.b.b.M.I.>X).m.",
"H.C.V.m.V.U.A.v.b.m.H.H.m.b.c.b.m.m.V.V.m.b.v.v.V.V.V./.4X[.I.Z.",
"_.|.|.{./.m.v.v.v.m.H.L.K.M.M.V.V.C.V.V.C.M.m.M.C.U.[.3X6X&XD J ",
"Q.{.K.m.).|.K.m.V.K.H.V.n.M.V.L.E.E.I.H.H.K.E.'.U..X3X{.W.K r _ ",
"j.z.W.E.I..X4XQ.`.Q.H.M.m.m.M.K.L.m.m.b.m.b.b.P..XC.>XA @ 8 h.<.",
"h.q.d.b W.7X7X}.C.b.m.H.U.U.H.V.L.V.M.V.C.P.H.oX,X/.#XM o...:.w.",
"q.,.=.O.Z 4.;X/.E.P.C.I.E.b.v.b.m.K.'.Q.L.C.U.5X4XW.k & e >.e.w.",
"y.7.[ -.O o x {.P.;X[.H.U.M.m.m.m.V.J.U.M.^.4X3X/ g @ r $.,.i.i.",
"e.>.| *.@ = m 4.6XoX.XU.A.M.V.A.E.M.b.v.H./.6XY.* @ 5 $.| ,.0.0.",
"b.P.v.b.U.R.H.M.M.M.M.M.M.V.V.H.K.L.L.L.P.A.C.U.m.b.m.V.H.H.m.b.",
"M.N.U.K.U.m.b.m.M.H.H.K.H.V.V.M.m.m.m.K.H.H.H.V.H.Q.Q.K.C.V.m.m.",
"U.H.M.V.M.K.H.K.H.M.v.v.b.M.K.H.M.M.M.H.U.K.V.H.K.K.V.V.H.U.K.U.",
"m.V.L.H.H.K.L.Q.L.M.m.H.K.H.H.V.H.J.R.U.M.M.M.m.v.b.U.U.V.b.m.m.",
"m.m.C.H.v.v.v.b.H.U.L.U.H.b.b.b.v.m.L.K.L.K.V.H.V.H._.R.H.M.b.b.",
"V.V.K.V.b.v.v.m.L.H.M.H.U.K.V.C.L.L.m.v.v.m.M.R.U.H.b.A.J.R.H.V.",
"Q.K.V.H.V.m.K.H.H.A.L.H.M.C.L.C.N.H.B.M.K.U.!.C.b.M.H.A.H.A.M.P.",
"U.V.m.V.K.K.U.H.M.v.v.v.M.V.K.L.C.N.N.V.M.K.H.M.H.H.M.n.M.v.b.m.",
"m.H.K.m.m.m.v.m.M.J.K.H.K.U.H.M.b.v.b.b.m.U.L.H.m.v.v.v.v.V.m.m.",
"b.V.C.m.b.b.H.U.J.H.U.U.U.L.H.N.C.K.U.U.L.b.M.H.H.H.V.V.V.H.m.m.",
"K.U.V.L.U.U.L.M.n.v.m.C.H.L.H.m.m.m.m.m.I.v.c.v.m.m.U._.E.L.V.V.",
"m.b.b.m.H.L.m.v.c.b.M.C.H.N.M.B.m.m.m.m.H.V.V.V.V.H.U.m.v.m.U.K.",
"C.b.b.b.v.M.K.V.V.V.H.H.N.A.B.C.K.K.K.K.V.m.V.H.Q.E.A.v.v.v.A.V.",
"E.H.C.m.M.J.U.U.U.C.K.K.H.N.N.C.K.C.H.K.H.A.K.H.V.v.b.K.U.U.A.V.",
"m.H.E.E.V.n.n.M.K.L.K.b.v.c.M.M.V.H.c.b.b.b.V.H.m.c.v.m.H.V.b.v.",
"m.H.C.V.V.M.m.M.M.C.I.C.b.n.n.v.b.K.H.M.V.K.U.V.H.A.V.V.m.V.V.v.",
"U.M.c.b.m.V.U.V.b.c.b.P.E.U.C.H.H.U.Q.`.U.V.m.m.V.K.H.C.m.m.U.U.",
"K.M.V.C.K.L.M.b.b.v.c.m.K.m.m.V.U.V.b.A.K.U.A.U.K.m.m.V.K.U.U.A.",
"m.V.K.C.M.b.m.V.V.H.H.H.M.m.b.b.V.H.V.H.V.b.b.b.V.K.H.V.K.H.V.V.",
"C.V.V.m.b.b.b.m.V.Q.U.C.A.Q.E.H.V.J.U.Q.Q.C.m.b.v.v.V.V.V.V.V.m.",
"m.V.K.C.K.P.H.U.P.v.V.K.K.U.U.m.v.c.v.v.m.U.U.P.V.V.V.K.V.b.m.m.",
"K.C.b.V.K.Q.Q.H.M.n.v.v.v.m.V.b.v.v.v.v.c.C.Q.'.Q.K.V.H.K.K.U.H.",
"m.m.b.C.M.b.V.L.C.M.m.b.v.C.U.L.K.C.b.b.v.b.U.A.m.v.v.v.v.m.C.V.",
"C.E.K.M.H.L.H.K.L.U.L.L.L.K.M.m.m.V.H.V.V.M.M.v.v.m.m.V.V.V.m.V.",
"H.V.m.V.V.U.V.v.b.m.H.H.m.b.v.v.m.m.m.C.m.m.c.b.V.V.V.H.V.v.m.m.",
"H.V.V.C.H.b.c.v.v.m.V.U.K.C.M.V.V.C.C.C.V.M.m.V.C.U.C.V.V.K.U.K.",
"m.b.V.V.V.m.m.V.V.K.K.V.m.m.V.L.Q.E.U.H.P.K.Q.'.E.C.C.V.V.V.U.M.",
"V.m.m.V.V.A.E.Q.!.Q.H.V.m.m.M.K.L.m.m.m.b.b.b.V.U.b.V.L.E.J.V.V.",
"U.L.K.b.b.b.V.m.v.b.M.C.U.U.H.M.K.V.M.M.V.H.H.H.U.L.m.m.m.V.V.U.",
"C.m.V.V.C.C.V.V.M.m.M.L.U.m.v.v.b.H.'.`.L.H.m.m.K.V.b.m.b.c.b.K.",
"K.L.U.E.C.m.V.C.C.V.V.M.U.M.M.b.m.H.L.L.M.m.M.M.K.L.H.H.H.H.H.E.",
"V.C.V.C.V.V.m.C.U.U.H.H.H.M.M.H.U.V.v.v.H.m.m.C.V.b.m.H.V.H.E.V."
};
