/* XPM */
static char *cc48535f63684f0cae410303990350a0JJesE8jOdEOFXxMM[] = {
/* columns rows colors chars-per-pixel */
"32 160 87 1 ",
"  c None",
". c #0F1D0D",
"X c #1B1513",
"o c #241C19",
"O c #1B250E",
"+ c #132612",
"@ c #162B13",
"# c #182D15",
"$ c #1A3216",
"% c #1F3D1B",
"& c #243717",
"* c #25361E",
"= c #223D1C",
"- c #3A2E29",
"; c #393028",
": c #4C3E35",
"> c #22421E",
", c #26481F",
"< c #2B4A1F",
"1 c #32431B",
"2 c #304E1F",
"3 c #254520",
"4 c #2A4C22",
"5 c #334E22",
"6 c #374E2A",
"7 c #2D5527",
"8 c #2E5925",
"9 c #2D5628",
"0 c #2F5C2A",
"q c #325525",
"w c #335B27",
"e c #3F5A25",
"r c #325729",
"t c #3B562F",
"y c #335E2B",
"u c #375831",
"i c #356027",
"p c #3B6727",
"a c #36612C",
"s c #3B652C",
"d c #3E692D",
"f c #53453B",
"g c #57483E",
"h c #405530",
"j c #475C35",
"k c #476228",
"l c #436D2E",
"z c #496F2F",
"x c #46702E",
"c c #49732F",
"v c #537C2D",
"b c #456E30",
"n c #4C653A",
"m c #477130",
"M c #4B7531",
"N c #4F7832",
"B c #517531",
"V c #537C33",
"C c #587F34",
"Z c #5B4C40",
"A c #5E5346",
"S c #614D44",
"D c #65554A",
"F c #6B574D",
"G c #6A594D",
"H c #4C7141",
"J c #577944",
"K c #53754B",
"L c #577C4E",
"P c #5A7E4C",
"I c #578034",
"U c #5C8436",
"Y c #608737",
"T c #628937",
"R c #658C38",
"E c #688F39",
"W c #6C933A",
"Q c #70963B",
"! c #749A3D",
"~ c #799E3E",
"^ c #7CA23F",
"/ c #779C41",
"( c #6F9453",
") c #7D9D57",
"_ c #7EA340",
"` c #81A641",
"' c #84A941",
/* pixels */
"                                ",
"                                ",
"                                ",
"                                ",
"             N~!UNss            ",
"    )(PLK   !!WRWTNNd           ",
"  VE~R!Mlp 2W~`'~U~Wlq          ",
" I'W~WWVYCyUQ!'~UUWUNWWVxi8     ",
" IQ`'^WW^CsN!/^W~RCWW!T!IMxa    ",
"W_E^^EUCTUlaU'W~`WC~~'^WC!Epy   ",
"EQ!'Q^'UNVdsQWURWTWE~'~RU~Uly   ",
"TW!!I_!E^WIyWW'!EW`W~~WQUUUls@  ",
"/'~RRWTW^!IaIRTUYVRW'W^`WCIMy+  ",
"Q!W/_~WEWCmM~!WIldC!WI!WT`^Rd$  ",
"BV/W!W!WIV~~WWWUVVlUW~WRR^!Va   ",
" VWURUElICW/''!U^WlsW_!!WTNbs   ",
" JclsCIldITW`!YIRTNaMW!ETCTMy   ",
"   ax!^ETldVQ!_QNVbsbNCUbMMs=   ",
"   W_WQWENVll~_EWWUaysCWIbay    ",
"   R!_'~U~~xaUWY~_WlbTW!T!Mbd#  ",
"  T~W_^TITEVsmWRQWNaT`W`!RIRVy  ",
"  ~Q~^W_~VVlsM!!YVBlWW`'!Y!!Ms> ",
"  RR^!W_WWQTdaTINTMQ_R_~RRCTIdy ",
"  ``WETWY!_QNaUBddsRT``W'^IVVsr ",
"  ^^W__QRW!Vaadar=&Q!!WI_RE_!Ny ",
"  VUE!QQ!RVNlnDg; O`'!QWEY!^Wc9 ",
"  MRWR!YYMTNa*oo   WWR``!WEWNsq ",
"   NcllUVddd=      zU!E!WWTIUdr ",
"    4yals0,@       2VRCUCRlUMa$ ",
"      AFgf          4blaVBdya#  ",
"       oo             3tjt6@    ",
"                       fFS:     ",
"   ~E_`EUUEUxa!W~WUMN_!_!WCRTsy ",
"  W~!`Q~^UBVssWWRVITUW_'_RT_Uly ",
"  IR!^U`~RQEV0lCUlmU_W!_WRIUYls ",
"  !'~RTWTW^~UasxbsaVW!'W_'WVVxy ",
"  !^!~`!WW~Ubb!!TVssU!~I~QT_~Rs ",
"  cCETVNVTIM~!WRWUNMlRR!RTW~!Ia ",
"  BW~EQcldNIW/''~I~WldR/~QERIls ",
" U'W~WWVUCsUQ!'~TUWUM!WCbdcCUNa ",
" IQ_'^EW^VsN!/~Q/ECWW!T!CcldVd4 ",
"W^W^^EYIEUbaU`W~'WC~/``WI!Edy4  ",
"EW~_W_`UNNpsWWUWWUWW^`~TT!Ib0   ",
"RW!~I`QE^WIyWW`!WW_W~~WQUIUbs@  ",
"/'/ERETW_!IaIRTUTCRW'W^_WCIcy+  ",
"Q!W^`~WEWImN~!WIdpC!QI!WR_^Ed#  ",
"NVQE!WQWIV~~WWWIVNlTE^EEE~!Vy.  ",
" VQUEUEbCCW/''!Y^WlpE^~!WTVld   ",
" qcldIUbsITW'~TIWTNyNWQEYCTMy   ",
"   al!^RTddVW!^WNVbpbNCYbMMs=   ",
"   W_WWERVVlx~_WWWTaysCEClsy    ",
"   E!`'~U~~laUWU!^WlmTW!Y!ccd#  ",
"  W~E'_YIRRVsMWRQWNaY`W_QRURVw  ",
"  ^Q/_W_~NVMsm!!RNNlWW`'!TQ!Md> ",
"  TR^WW`WWQRdsUUNYMQ_R_~RRCTUsy ",
"  `'QETWU!`WMaUMslsRR``W'^INVdr ",
"  ~^W`_WRW~VsI_WUbsbW!WU_WW`QNy ",
"  VYW!WQ~RNC_WWTQVNMlWWWEU!^WM9 ",
"  MEWT!TUMUU~~'_WR/UaN__!WRRNsw ",
"   cMlbICdN~W_'WUTWIbyT~QWTUUdq ",
"    4acMsaI!Q`!Q~CCCssVUITdIMa# ",
"    5T^WWMddR_T'^REUM8ssVNdsa#  ",
"   C_W!RWNVVdUU!RE_~TadTUxd8=   ",
"   v!^'^WR_IsC_WRE^EMUE~R!Ixx9  ",
"                                ",
"                                ",
"                                ",
"WMla                        NT_W",
"WNVNa        N!!UNds       I`W!R",
"EW^UIBHPK   !!WEWUNcd      IQ_'_",
"UUTE~RQMll qW~``!U~Wl7     ^R_`E",
"_R'W!QWvUvyYQ!'^TUWUNQWVp8M!!`Q~",
"!YW`'_RW_VsN!/~W~ECWWWT!CMlsW^T'",
"W_E__RYCRUlaU`W~`WI~~'_WC!EsNRUW",
"EQ~`W_`UNVssQWURWTWW_'^TT~Ula!`!",
"lU!!I`QE_WIyWW'~WW^W~~WQYIUNIUNN",
"llUEWRTW_!IaCRTUUCEW`W^`WVCR~R!c",
"UCaQ`~WEQIMM~/EIdpC!QI!WRR`W~WWC",
"^CpMQQ!WIN_!WWWUVVlUW^WRRTW_'^RW",
"RUlyTUElIVE~''!U_WlaW_!!W_W^_RYI",
"NBdaaCUbdIT!`!YIERNyMQ!RRW_'Q_'U",
"^WIdb!/RTlpVW!`WBVlslNVTTW!!I_!R",
"_!I!_WWRRVVxb~_WWWYaysCWUMmbCETW",
"WCMR~''~U~!laIWT!`WlbTW!T!mxlUWE",
"CCW/W`_TIYRVsMWTQQNyT'W^!RIRCaEW",
"II_Q^^W_~NVMsM!!YNNbWW`'~U!!Nslb",
"dbTR_WW`WEQTdsUIMRcQ^R^^RTCTIdsl",
"=e``WETWY!`QNaIVdddRE_`W'_IVVsyr",
"X1~^E`_WRW!Vaaly9=&Q!!WU^EE'!Naf",
" #VUW!QQ~RVNdnDZ- O`'!QWEU!^Wm7 ",
"  zRQR!YYmTNd*oo   !WR^_~WEWMsq ",
"   cMllUCdds=      lU!E!WWTIUdr ",
"    4yads04@       5CRIUITdIMa# ",
"      AGZ:          4bdsVNdaa#  ",
"       oo             3tjh6@    ",
"                       gFS:     ",
"   ~W_`EUURUxa!W^WUMN_!^~WCRUsu ",
"  E~!`Q~^UVVasWWRVUUUW_'_ET^Ux8 ",
"=#bU!^Y`^EQRVylCUlmU_W~^WRIUUMm5",
"WMllRRYWUW_~UasmbsaVEQ'W^'WNNT_W",
"WVVVd!`!EW~Ulb!~UVsdU!~I~!TW'W!R",
"EW/UCIVNCTCM!!WRWUNMdREQRTWIW_'_",
"UUTE~RQNldNIW~'`~U/!ldE^!WE^R_'W",
"^R`W~WWVUCsUW!'~UUWUN!WVmdM!/'W~",
"!YW_'^EW^CsV!/~W!ECWW!T!IMxsW^U`",
"W_W^^EUIRUlyT_W~`WC~~'^WIQEdNETW",
"EQ~`Q^'UNBps!WURQYWE^`^TT~Ula!`!",
"lU!!U_QR_QIyWW'~WW`W~~WQUIUBCUNN",
"llIWRERW_!IaIRTUUVRW'W^_WCIR~T!M",
"UCsW_~WEWCbM^!RIldC!WI!WTR'W~WWV",
"^Csc!W!WIV/~WWWUVVlUW~WRRUW_'^RW",
"RUlaTUElICW~''!U_WlsW_!~Q_W^`RUI",
"NVsssIUlsUUQ_~UIRTNyMW!RR!~`W``U",
"^WIsb!^RTldN!!`WNVbsbNVYUW!!I`!E",
"_!I!_EWWRNVxl~_WWWUaysCWTMmbIWTW",
"WCmR/_'^U^!xaUWU~^WbMUQQT/mxlUWR",
"ICW~E`^TUTEVsmWRQWNaY`Q`QRURVaEW",
"IU_Q^^W^~NVxdm/!TVNlWW``!YQ!Mslx",
"sbTR^QW`WWWTdsUINTM!_R_~ERCYIdsl",
">e``!TTWU!_!MsUMsdsTT``W`^IVVdyr",
" 1~_W`^WRW~VsU_EUxsmW!WU^EE'!Nyf",
"  VUWQQ!~RNI_W!U!NNxdQQWEY!^Ec8 ",
"  zRQR!YUMUU~_'_ER^UaN_'!WEENdr ",
"   MMlbICdN!R_'WUUWIxaU/QWTCIdq ",
"    ,acMsaI~!^Q!^IIVsdNUITlIMs# ",
"    <R^EWMddE^T'^REUM0ssVNday#  ",
"   k`W!RWNVNdUU!RE'^RadUUmsw=   ",
"   CQ_'^WE^IdI^WTE^TMUW/R~Ixx4  ",
"WER~E_`EUUEIxy!Q~WUMN_Q_!WCEUdM~",
"IYW~!`Q~_UNVpdWWRVITUW_'_RR/UlaN",
"bbMI!_U`~EQEVybVUbmU`W/^WEITTMbl",
"WMllTRTWTE^~UydbbsyVWW'Q^'EVNT^W",
"WVVNp!`!EW!Ybb/!TVssTW!I!QRW_W!R",
"EE^YCUVNCTIN!!WRWUNMdRW!EREUQ^'_",
"IUYE/R!MlpNIQ~``!U~WldR~!QE~W^`E",
"`R'W~WWVUCaUQ!'/RIWUN!WCllc!!`Q~",
"!YW^'^WW_CsN!/~Q/ECWW!T!CcldW^U`",
"W^W^^EUIRUbaU`W~`WC~~`_QI!EdNETW",
"WW~`W_`UNBdsQWUWWTWW/'~TT!UlyQ`!",
"lU!~U_WE^WIyWW_!WW_W~~WQUIUNIUNN",
"llUWWETW_~IaIRTUUCRW`W^`WVCR^R!M",
"UIsW_~WEWImM~!EIpdI!QI!WRE'W~WWV",
"^Csc!WWWIV^~WWWUVVlUW~WTRYW`'^RW",
"TUlaTUEbCCE/''~U^WlsW^~~W_E^_RYI",
"NVdadCUbsITW'~TIWTNaMW!EEW/`W_`U",
"^WIsb!~RTddVW!^WNVlslNVTYW!~I`!R",
"^!U!/WWERVVlm~^EEWTaasCWUNMlIWTW",
"WIlE~`'~U~~laUWT~^WlxUW!Y!cllUWE",
"CCW~E`/TITRVsMWRQWVaT`W^!RIRVaWW",
"II_!__W`~NVMsm!!YNNbWW`'!T!!Nabb",
"sdUR^!W`WWWTdaUUNTmQ^E^~RRCTIdsb",
"TNldCTTWY!`!NaUMsldTR`'W'^IVNdU!",
"U/mmdU^WRW~VsI_WUbdbW!WU_WW'WWWW",
"_TRQCaT!~TNI_WWT!NNMxWWWEUQ!T_~'",
"QUWWNdmUUMUU~~'_WT~UaM__~WRWWW_'",
"WWCUIsdICdN~W_'WITWCbaT~WWU^_W_!",
"'^UUIlbmsaI~W_!!~ICCadNUITdUU'`W",
"^RW^UR_WWMddR`U'^REUc0ssVNm~_!EU",
"EU!W'W!RWNVVdTU!EE_~TadTUxdMU!!W",
"Q!EUQ_'_WR_IsV_WRW~ENUE~E!Ixlb^^"
};
