/* XPM */
static char *_bb787e3cd494e8cd764f0c9fed97d8d23EX4Tj7CUUxgX9l[] = {
/* columns rows colors chars-per-pixel */
"32 160 157 2 ",
"   c #667C2F",
".  c #6E7C34",
"X  c #717C36",
"o  c #7F7B36",
"O  c #75763B",
"+  c #79763C",
"@  c #747B3A",
"#  c #7C7B3D",
"$  c #7D7A42",
"%  c #817D36",
"&  c #827E3B",
"*  c #817D43",
"=  c #827E4A",
"-  c #65832C",
";  c #65882D",
":  c #6A8D2E",
">  c #6D912F",
",  c #6E8333",
"<  c #6E8C31",
"1  c #728435",
"2  c #728B34",
"3  c #798F37",
"4  c #768439",
"5  c #7C833D",
"6  c #778938",
"7  c #7C8C3B",
"8  c #6F9431",
"9  c #6F9832",
"0  c #739433",
"q  c #799536",
"w  c #749B33",
"e  c #7A9D36",
"r  c #7B9439",
"t  c #7D9B39",
"y  c #76A135",
"u  c #7CA436",
"i  c #7DA837",
"p  c #7EA438",
"a  c #7EA938",
"s  c #7E8142",
"d  c #7F8A41",
"f  c #8A8637",
"g  c #8C8934",
"h  c #85813C",
"j  c #89853E",
"k  c #828A3D",
"l  c #8D893B",
"z  c #928D36",
"x  c #918D3B",
"c  c #82943C",
"v  c #839C3C",
"b  c #88993D",
"n  c #979332",
"m  c #999534",
"M  c #96923A",
"N  c #9A953B",
"B  c #9C993C",
"V  c #80A537",
"C  c #80A837",
"Z  c #83A23A",
"A  c #8AA33D",
"S  c #83AD39",
"D  c #8AAE3C",
"F  c #86B03A",
"G  c #8AB43B",
"H  c #8FB83C",
"J  c #90B93D",
"K  c #91BA3D",
"L  c #94BB3E",
"P  c #93BC3E",
"I  c #96BC3E",
"U  c #868240",
"Y  c #858243",
"T  c #878445",
"R  c #888342",
"E  c #898540",
"W  c #8A8541",
"Q  c #8A8642",
"!  c #8A8643",
"~  c #8B8743",
"^  c #888447",
"/  c #8A8647",
"(  c #848B42",
")  c #8D8943",
"_  c #8D8A44",
"`  c #8E8A44",
"'  c #8D8947",
"]  c #868348",
"[  c #86824B",
"{  c #89864A",
"}  c #8A854D",
"|  c #88854F",
" . c #8D8948",
".. c #8D8A4B",
"X. c #8E8A4B",
"o. c #8C884F",
"O. c #8F8B4F",
"+. c #8F8C4C",
"@. c #908D46",
"#. c #918D46",
"$. c #928E47",
"%. c #918D4B",
"&. c #938E4C",
"*. c #859343",
"=. c #8A9345",
"-. c #869941",
";. c #8A9B44",
":. c #8D974A",
">. c #8E9B4B",
",. c #939146",
"<. c #9A9647",
"1. c #94914D",
"2. c #99954F",
"3. c #929E4B",
"4. c #9E9A4C",
"5. c #868250",
"6. c #8B8751",
"7. c #8A8752",
"8. c #8E8A53",
"9. c #8F8B58",
"0. c #928E52",
"q. c #938F56",
"w. c #938F58",
"e. c #949151",
"r. c #959253",
"t. c #959156",
"y. c #989455",
"u. c #9A9654",
"i. c #929954",
"p. c #9E9B54",
"a. c #96925A",
"s. c #97935A",
"d. c #9A965C",
"f. c #99955F",
"g. c #979E5E",
"h. c #9B985E",
"j. c #A09C5C",
"k. c #85A343",
"l. c #8CA343",
"z. c #8EAA42",
"x. c #93A343",
"c. c #92AC4E",
"v. c #96A156",
"b. c #94A258",
"n. c #9A9661",
"m. c #9D9A64",
"M. c #9D9967",
"N. c #9C9869",
"B. c #9E9A6A",
"V. c #9F9C6B",
"C. c #A19D65",
"Z. c #A19D6D",
"A. c #A19D6F",
"S. c #A39F72",
"D. c #A49F73",
"F. c #9DA662",
"G. c #A3A070",
/* pixels */
"F C F F i S S S S i S a F F S G F a S F a S i F C C S a F F S G ",
"y S i a i G H F F G G S G a a S y S C S C G H S F F G S G a a F ",
"F H F H K I K H H H K S u w w y S V w C H L K H I H P F a a S a ",
"z.F F i C F G G F a 0 e , 4 4 # $ 4 4 < 0 8 F F F a S a y a H F ",
"S S i C S S F w w 0 ; X + + $ ] 8.6.} $ 5 , < y y i G i F H a F ",
"S S G P P F i 9 < 4 @ # U f / M.A.B.d.{ { # 5 u i F G H H F H H ",
"F y S S G C > : 4 + # U h & a.D.S.S.a.Q _ * # , < 0 i S a a a H ",
"a S G H C w p O # h Q j & h N.D.S.m._ & h # Q & # q y y i 9 y F ",
"S H G G S p 5 # % h h o o h n.N.M.q.h & # j @.,. .s , a S G G F ",
"S F a u C r # j f j Q h & h 8.} 7.U h j h h Q e.&.* # q F a i G ",
"S G a u 0 k & x M N u.u. .R 0.7.= $ # h j Q t. ._ & + v S i u S ",
"S G C w 7 + j <.p.4.C.V.d./  .= $ $ h Q _ y. .j _ * ] @ 0 H F i ",
"K z.S q # o x j.C.C.V.n.a._ Q & & Q h Q +.d.{ Q Q / / # ; i u S ",
"F F w 6 o g B m.S.A.m.u.e.j j & / _ h * % * R / & R # $ q u G S ",
"H a 8 # f m B p.C.m.h.%. .u.+.h j j Q j h j Q U U $ T ( A G K H ",
"H i Z 5 j g z N u.%._ %.m.A.m.e.Q j j h h _  .{ [ +.9.$ O u S S ",
"S w q 5 / ,.2.u.1. ._ #.m.m.n.&._ Q j h h d.h.0.%.+.w.$ r a S G ",
"y a r ] h t.n.A.Z.m.u._ &.u. .h f / &.=.e.h.1.Q & ..0.# 2 p a D ",
"S K S v Y B.G.G.S.A.d.2. ._ j _ ~ _ y.s.s.1._ / j Q s r < i S a ",
"z.S p 0 s a.G.G.S.m.h.#._ ,.j j @.~ y.h.t.$.%.j & & 7 r 0 a G F ",
"a a a w c } s.a.a.1._ _ e.e.u.Q j j _ 1.e._ R h _ Q # 3 S z.a G ",
"F F S w c * Q j ,.%. .0.d.d.%._  .q._ #.j j Q &.j / d 6 e F H G ",
"F y a 0 v # U a.m.+. .a.u.0.u.1.&.e.1.~ Q &.d.h.:.U w r 9 a a H ",
"C S F H C Z k * ] 0.y.%.&.e.a.a.1.&.1. .%.0.n.n...+ , i i 9 y F ",
"S K F H F S v 5 * %.0.+.Q _ #.%.u.e.n.h.e.1.d.a.] r 0 G F F H F ",
"S F i a S i u r @ ] >.1._ _ _ e.V.A.V.h.u.1. .h + t L H F a i G ",
"S G a F u G D V v b l.3.+.Q h t.n.m.t.1.{ A r 0 u y G H F a y F ",
"S G H H I K G C D D t v =.h k _ /  . .r Y A S > z.H y a S H F a ",
"K K H G S C C C i y y V V k q k =.b b 2 > e C a a y u u a S y F ",
"S H G i C F i w S G C G S t D S Z F S u i F C 0 C G C H F u F F ",
"G G S F F G C F G S G G H G H H G G S G G F C F G S G G H G H H ",
"G a S F a y i C C F G F y F F S G a S F a y a i C S G F y F S S ",
"F C S S 5 / 1.{ j  .w.n.n.w.0.& j l Q Q j 1._ % & % h =.c.F a G ",
"y S e r h j Q Q h { s.d.s.%.& / _ j #.j #.#._ & % h & *.z.a a F ",
"F H S Z =.%.&.& % Y w.w.} j Q Q _ j j _ #.#.j h & / * $ t a F a ",
"z.C i 6 * 0.t.* #  .0.0.#.j j _ %.#.&.Q #.Q j # R a.8.$ 3 a G F ",
"a F u q 5 = 7.%.#.%.1.e.#.#.Q %.n.d.s. .&. .j = 8.a.8.7 Z H a G ",
"a F G Z b * _ ~ Q #.%.#.R & ^ Z.S.Z.n. .&.j & ..w.9.* + Z D H G ",
"F y a 0 r # & & j j _ j j & a.D.D.A.y.{ &.h &  .8.] + + r S a H ",
"a F 9 y 7 # j j j j Q j & & m.D.D.m._ & h # @.j _ a.8.5 r w w F ",
"S P e u 5 Y Q Q h % & % % h n.N.N.q.& & # & @.%.1.d.+.$ u H z.F ",
"S F > 2 s T _ M f l / U & h 8.+.7.^ j j & j ~ q.1.1. .5 Z a a F ",
"S G u t 6 / z M m N u.a. .R +.6.= $ & & j ~ y.%._ Q $ 5 t a u F ",
"S G S < 5 h m 4.p.4.C.Z.d./ { = $ $ j ~ @.q.%.& _ * ( t C H F a ",
"H P G i 5 n M j.C.C.A.n.f.R j h & ~ h h 1.a./ _ Q / * 5 V S u S ",
"S H C 6 + g B C.A.A.m.u.0.j j & _ j & Y % * U / & Q & 5 V u F F ",
"G G i q # & n j.A.m.h.%._ s.%.h k j j Q & j Q Y * $ { * Z G H K ",
"G C S v + & g N u.,._ %.m.A.m.0._ j j h h  ._ { { +.0.= 4 a F F ",
"F a S *./ _ u.r.,.%._ %.m.m.n.1.#._ f h h n.h.%.+.8.a.s Z S a F ",
"y S i e U t.m.V.A.n.u._ +.u._ h h Q &.%.t.d.&.Q h  .9.( -.a a F ",
"F H 0 2 $ n.G.G.G.A.n.&.Q _ j _ ~ _ u.d.u.%._ Q j j / ] k.a a a ",
"H S u r @ 9.V.G.D.C.h.%._ $.j j j _ y.d.y.%.&.Q & h U s r a H F ",
"i S w 3 $ } y.y.s.&.@.Q e.e.2.j j j _ t.&._ Q h _ j # 4 Z H S F ",
"S S F r + Q Q Q 0.+.%.%.d.d.&.#. .u.@._ Q h Q %.j +.T + r F H G ",
"G w i 2 O Q T y.n.%._ t.a.0.y.%.0.u.1.Q / ,.d.m.1. .t.$ t S S G ",
"a F G F ( 8.+. .%.&.a.%.%.u.u.a.1. .e.Q  .8.d.m.t.#.+.$ 7 9 w F ",
"a H w < 5 +. .h _ t.t. .~ #.#.&.u.t.m.d.e.1.d.h.h.t.Q Q v S K F ",
"F F w w s  .1.+.w.a.d.t._ _ _ 0.V.V.V.d.u.1.e.%.a.%.%.c S a C F ",
"S G i 4 $ ] 0.u.d.n.m.n.&.~ & y.n.m.t.1._ ,.#.%.t.~ Y # Z a u S ",
"S G i 3 + { 1.u.t.t.m.t.#.j R #.Q %.e.t.1._ t.t.e.+.$ # p H G a ",
"H K H d $ j h #.{ %.0._ _ j j & ~ ,.d.0. .&.t.e._ 0.Y 5 p C y S ",
"S H t 6 k #.j +._ / { # * h & % f  .%. .d.d.d.%.h Q } k v u G F ",
"H F u v # Q _  ._ Q h * ] 0.^ T R h j 1.h.s.d.#.j h $ v D G K H ",
"G a S ( U _ %.e.Q / +.8.w.n.0.U k Q ~ &.1.%.#.h h # O 7 w F S S ",
"F C S F a a S F a a S C S F S F D C S S a C S S C a S C S F S F ",
"y S w C i F G F S S F S G V C S w S C a u F K S F G G F F a C C ",
"w < ; V G 0 0 u e y 0 F i 0 0 y 8 w w V a q S 0 C u F F w C w ; ",
"X 4 . ; : , O   < X X 6 1 . O 4 2 4 0 - 3 - - 2 , , , 2 . t w 4 ",
"5.8.5.$ # $ s $ # + * $ # # * R 6.0.} $ * # o s 7.7.s $ % 2 X R ",
" .a.u.7.8.8.%.Q j / _ / h h { N.S.B.m./ +.j $ +.a.a.{ $ h % % h ",
"+ $ 5.t.1./ j f j j Q Q h h w.S.G.V.t.Q %.U & / 0.] $ & j & % @ ",
"#.&.u.t.1./ j j j j Q j & & N.D.G.M. .h h # #.R _ s.t._ #.h & _ ",
"#.1.a.m.m.1._ Q h % h % % & n.N.M.s.& & # h ' #.u.y.8./ _ ,. .j ",
"Q _ N.S.A.,.' l j j j j & h +.0.6.T h h h h ~ e.1.,. .~ Q @.1.0.",
"d.e.n.B.n.1.M M m N u.s._ Q %.7.$ = & h j ~ t.1._ ~ # _ _ e.C.m.",
"t._ 0.6.] l m 4.p.4.C.m.n./ ^ = $ $ h / _ t.+.h ~ h t. .$.2.m.h.",
"/ j Q * h n B d.A.C.Z.m.s.Q Q & % Q j j %.a._ _ / / / Q _ 1.1.2.",
"_ M z h g m B j.A.A.C.u.e.R j & _ Q # T # * U Q $ U & _ j Q _ _ ",
"#.M j j m m B p.m.m.h.%._ s.%.U k j j j h j { U Y # ] 8.Q j j h ",
"l _ ,.#.M z z N 2.1.~ %.m.S.C.%._ Q j h h  ._ / ] +.n.a. .h & f ",
"1.,.t.e.,.,.u.u.0.%.~ #.m.m.m.1._ Q j f h n.h.0. .8.n.n. .o h Q ",
"_ 1.h.m.e.t.m.V.C.n.u._ %.e.+.h f Q 1. .e.h.&.Q h  .a.8./  .a.y.",
"y.Q m.d.t.V.A.S.S.S.n.2._ _ j _ _ _ u.h.u.1._ Q j k / e.B.N.V.B.",
"d.Q u._ h.Z.A.A.S.m.h.' _ ,.j j j Q t.h.y. .%./ & h  .m.A.V.V.N.",
"%.h +._ 2.u.y.a.s.&._ _ ,.u.1.j j j / t.e._ / h _ l  .a.d.n.u.a.",
"h h j f Q { Q / e.+. . .s.h.1.#.+.u._ _ Q h Q %.j  .+.%.u.%.~ j ",
"j _ Q Q f j Q u.n.&.0.q.u.0.a.1.e.t.2.j j e.d.h.1.+.u.u.d.t.#.j ",
"t.n. .j / e.+. .+.e.y.%.%.e.u.a.&.+.,.Q %.8.d.m.t. .#.&.a.u.h Q ",
"/ _ k j ~ 0._ Q _ t.t.+.Q _ $.&.t.t.n.n.u.1.m.d.h.u.Q %.u.+./ { ",
"1._ ~ @.h.h.0._ 0.a.n.9._ _ _ 0.N.b.b.h.u.1.e.%.a. .e.#.+.V.h.u.",
"N.v.b _ e.t.:.3.y.n.n.u.&.Q j 0.w.i.k.1._ #.#._ >.k } / 6.a.9.m.",
"c.Z w t q z.D V z.;.( y ;.A b ( k v w q x.A *.l.H Z 6 d # k >.a.",
"H F S V w i C S i y t u i C e v z.F C i C u 0 C C w t t p a y S ",
"C K F a C F i 0 S F S G S u F S S H G a V S i w S D C G a a S G ",
"G G S F G F C F F S G G K G L G G G S F F F C F G S G K K H z.H ",
"H a S D i y C V S S G F y F F S G a F F a u i C C S G S y F F F ",
"F a u w 6 $ %.{ Q / q.n.n.a.%.& & l _ ~ f 1.j % % # + 7 Z S S z.",
"e p ; y r & Q Q h { a.n.s.%.h _ _ R @.j $.@._ h o & + 5 0 ; y S ",
"u F < s T _  .h & Y w.a.5.R j ~ @.W j ~ $.@.Q R o / T $ @ 5 w w ",
"*.d d 5.w.u.w.$ # / 0.1._ j j _ %.@.,.j  .~ R + R a.a. .T + @ + ",
"7.w.s.n.a.a.7. .#.1.1.e._ _ Q 0.f.d.a. .&.~ R T 9.n.w.%.j o + $ ",
"..y.d.t.t.q.&.Q j $.%._ Q h / B.D.Z.n. .1.j & %.w.w. .U h & o h ",
"O $ ] q.&._ h h j j Q j j h a.D.D.Z.q. .%.j # / 6./ $ & j & o + ",
"_ 0.y.y.&._ j j j Q j j & h M.D.D.M._ h h # #.Q _ a.u._ #.h h Q ",
"@.1.h.N.n.1._ Q h h % o % & n.N.N.0.h & # j _ 1.1.d.0./ _ %._ j ",
"R _ m.D.B.1.#.z f j Q j & h 0.} 7.U h j h h Q e.1.%._ Q j #.e.t.",
"d.e.n.N.n.,.M M m M u.y. .T +.6.$ = % h j Q t.%._ Q # #.@.e.m.m.",
"t._ 8.6.{ l M 4.p.p.m.V.d.{  .= $ $ h R _ y. .h _ * e.%.$.1.m.h.",
"_ j / * h m B j.C.C.A.h.a._ Q h # Q h Q %.y./ Q Q T { Q @.#.,.u.",
"_ M z h g m B j.S.S.m.u.e.j h h _ _ $ Y # * R / # U h Q Q _ @.~ ",
"x M j f z m m h.C.m.h.%._ y. .h j j j j j j Q Q U $ Y 8.R h j f ",
"#._ ,.#.M z z N e.1._ %.m.S.N.e.Q Q Q f &  ._ { } +.n.a.%.h h & ",
"1.,.u.t.1.,.y.y.1.&.~ #.C.C.h.&._ Q j h j d.h.0. .0.n.d.^ # h ~ ",
"_ %.h.m.1.y.m.N.A.n.e.#.&.e.%.& l R 1. .e.h.&.~ & ..w.0./  .y.u.",
"t.Q m.a.e.Z.S.S.D.A.n.2.~ ~ j ~ Q  .y.h.a.%.#.~ j j  .q.M.M.V.N.",
"h.Q u.%.a.B.S.S.A.m.h.#._ $.j j Q ~ y.y.y.#.%.h & & @.M.S.Z.S.m.",
"&.h _ _ &.u.s.y.s.1._ _ 2.e.y.j j j _ e.e.@.R h _ Q Q n.d.d.y.q.",
"h h f j Q _ l Q e.&.%._ s.h.&.@. .y.@._ j j  .&.j _ +.%.y.8.Q Q ",
"j / Q Q h j { d.m.+.%.t.y.0.y.&.y.u.1.j R 0.s.h.&.%.u.u.a.u._ j ",
"u.d.%.j  .0. . . .%.s.&.&.t.y.s.&._ t.Q %.:.n.n.y._ $.1.a.e.j Q ",
"Q { ~ h Q ,._ ~ T y.w.%.~ @.@.&.t.0.m.h.t.%.h.d.h.y.~ 1.u.+.{ / ",
"0._ j %.h.h.0. .0.f.f.0.@.~  .0.V.A.Z.h.u.1.e.%.f.+.e._ %.V.d.y.",
"A.m.1.Q e.u.e.s.d.n.m.d.%.j & y.d.m.e.1._ 1._ %.0._ 1.,.t.g.:.g.",
"A.F.F.8.Q &.1.t.y.s.n.s.@.j j #.Q ,.0.t.1.l a.u.e. . .&.~  .S k.",
"c.H z.m.e.j h #.Q %.0.%.Q h j h _ 1.h.t._ ,.u.e./ e./  .b r y S ",
"F a d ;.3.#.j #.@./ Q # h h h % h Q  .{ h.h.s.0.h Q 8.Q r u D F ",
"H a : Z j j / %./ j U * ] 8./ j j h j 1.m.a.a. .k h T *.q C K G ",
"G i < p U *  .&.Q / 6.9.a.a.q.j j j Q u.%.%.%.& & o k Z 0 C F S ",
"m.t.R k _ ,.,.+.R { w.n.n.n.8.& f Q Q Q j &.j h % h j e.Z.Z.+.0.",
"a. .Q Q _ j Q Q h { s.d.w.8.h Q ~ j @.j ,.#.Q h o h j t.N.D.n.+.",
"t.M.n.y.2.,.%.U % R 0.w.} j j j @.Q j _ ,._ j j o {  .+.a.a.w./ ",
"N.S.G.V.a.t.a.$ #  .0.0.#.j j _ &._ &.Q _ Q ~ o R s.s.%.Q j h 8.",
"V.V.A.M.n.a.8. .#.&.e.&.#._ j 0.n.h.a. .&.~ R T 9.n.a. .j & % +.",
" .a.y.a.t.8.%.j _ @.%.#.Q h / Z.D.Z.n._ 0.W # %.a.9. .h h % % & ",
"# $ 5.e.%. .h h j j _ j h & a.S.G.D.a.Q &.j & { %.[ $ h j & % % ",
"~ 2.y.y.%._ j j j j ~ j & & m.S.A.m.{ h h o _ j +.w.q.{ #.h & _ ",
"#.&.d.N.n.:./ Q h h & o o h n.N.m.q.& & & j @.&.1.d.&./ @.1._ j ",
"Q { m.S.A.2._ M f f / R & h  .6.7.[ & j & & ~ 0.1.%._ Q j  .e.e.",
"a.u.n.n.n.%.M M m N y.u.+.Q %.6.= = % h j _ t.%.%.R # #._ 2.n.V.",
"y._ 0.6.] l m 4.p.4.C.B.n.{  .= $ $ & j _ s.%.h _ * e.:.,.1.n.d.",
"_ j _ * h n m j.C.C.A.n.a.Q ~ h % W h j %.y._ Q j /  .R _ %.1.u.",
"_ M z h g m B C.G.A.m.u.0.h j & _ ~ * U $ * R Q & j & ~ Q _ _ _ ",
"#.M j j z m n j.C.m.h.%. .t.%.h k j j j & Q Q Q & $ { 0.Y h j h ",
"#.l $.@.M z M N e.1._ %.m.A.m.0._ Q j h h _ +.{ [  .n.a.+.h & f ",
"#.#.e.t.1.,.2.u.,.%._ %.m.m.n.1.#._ f h h d.h.8. .8.m.n.Y h h Q ",
"_ &.h.m.1.t.n.A.A.n.u._ +.u._ h h Q &.%.t.d.1.j h _ t.8.Y +.t.u.",
"t.j m.d.1.A.A.G.G.A.n.&.Q _ j _ _ _ y.d.a.%.#._ h k  .a.N.Z.B.B.",
"h._ u. .d.A.G.G.D.C.h.%._ #.j j l / y.d.u.#. .Q h h { N.Z.B.V.B.",
"&.h %._ 1.u.a.s.f.&._ Q 0.2.r.j j j @.e.1._ Q h _ j _ u.h.m.a.q.",
"h & f j _ _ ~ j &. .&.%.s.h.&.@._ y.~ _ Q j Q %.j %.+.&.u. .Q j ",
"h @.Q Q h h _ s.M. .&.q.y.0.y.&.0.u.,. .~ &.d.h.1. .y.y.n.t._ j ",
"q.h.&.j / 0.&._ %.&.y.&.&.r.y.s.&.%.0. . .8.d.m.t._ #.1.u.e.j Q ",
" ./ Q j R 1.@.~ ~ t.t. .~ @.@.&.u.q.m.h.y.1.h.h.d.t.Q %.u.%.{ / ",
"&._ ~ _ h.h.0._ q.s.h.q.@.) ~ &.Z.V.Z.y.e.1.1.%.a.%.e.#. .Z.m.t.",
"A.m.e.Q q.y.e.y.h.n.n.h.&.~ & t.d.m.q.1.@.&.@.+.u._ 1.1.y.h.0.m.",
"D.D.B.:.j %.e.y.y.s.n.s.@. .j @./ 1.e.t.&.Q y.y.e. ._ #.j / A.G.",
"D.S.s.m.e.~ f  .T &.0.%. .& j & Q 1.h.e. .1.y.e._ 0. .%. .%.N.A.",
"M.0.h.d.1.,.~ _ @. . .+ & j & % f /  .Y h.h.d.0.h U q.T R  .0.d.",
"%.%./ ~ ~ j ~ %./ R & * ^ 0. .R Q h j 1.h.h.y._ Q ~ &.+._ h ~ ~ ",
"m.a.Q R _ @.&.1.~ W o.0.w.n.0.* h Q Q 2.1._ _ h & h Q  .0.^  .&."
};
