/* XPM */
static char *fc8dbb0bd4f8410894ba7edb998886cdQM4ZYepTdsPF8yHI[] = {
/* columns rows colors chars-per-pixel */
"64 64 109 2 ",
"   c #102F45",
".  c #112F45",
"X  c #113045",
"o  c #113145",
"O  c #133146",
"+  c #133348",
"@  c #143349",
"#  c #143449",
"$  c #153649",
"%  c #19374A",
"&  c #17394B",
"*  c #173A4C",
"=  c #173B4D",
"-  c #183C4E",
";  c #193C4E",
":  c #193E4E",
">  c #1E3D4E",
",  c #1A3F50",
"<  c #1B3F50",
"1  c #1B4050",
"2  c #1B4151",
"3  c #1C4152",
"4  c #1C4252",
"5  c #1E4452",
"6  c #1F4453",
"7  c #204453",
"8  c #204553",
"9  c #244452",
"0  c #214754",
"q  c #224755",
"w  c #224855",
"e  c #234855",
"r  c #234856",
"t  c #244A56",
"y  c #274C57",
"u  c #294A56",
"i  c #2B4C57",
"p  c #264B58",
"a  c #274C58",
"s  c #284C58",
"d  c #294D58",
"f  c #294E58",
"g  c #2B4F5B",
"h  c #2D4F58",
"j  c #2B505A",
"k  c #2B505B",
"l  c #2C505B",
"z  c #2D525B",
"x  c #2E535B",
"c  c #2E525C",
"v  c #2F545C",
"b  c #31545B",
"n  c #31565D",
"m  c #33575F",
"M  c #35575E",
"N  c #35595F",
"B  c #365A5F",
"V  c #355860",
"C  c #365A60",
"Z  c #385D61",
"A  c #395C62",
"S  c #3B5E63",
"D  c #3B5F63",
"F  c #3C5F63",
"G  c #3C6063",
"H  c #3D6063",
"J  c #3D6164",
"K  c #3E6264",
"L  c #3E6365",
"P  c #3F6365",
"I  c #3F6366",
"U  c #406566",
"Y  c #416567",
"T  c #426567",
"R  c #436667",
"E  c #456868",
"W  c #476A6B",
"Q  c #43686D",
"!  c #486B6B",
"~  c #496B6C",
"^  c #496C6D",
"/  c #4B6E6E",
"(  c #4C6F6F",
")  c #4C6F70",
"_  c #4D7070",
"`  c #507272",
"'  c #507372",
"]  c #527473",
"[  c #527574",
"{  c #547675",
"}  c #547776",
"|  c #577A78",
" . c #597B79",
".. c #597C7A",
"X. c #5B7E7C",
"o. c #5B7E7D",
"O. c #618480",
"+. c #648682",
"@. c #648783",
"#. c #638684",
"$. c #668884",
"%. c #698B86",
"&. c #6A8C88",
"*. c #6B8D88",
"=. c #6F908B",
"-. c #70928C",
";. c #71928D",
":. c #72958E",
">. c #73958E",
/* pixels */
"2 2 2 2 2 2 2 Z T T T T T T T T T T T T T T T T T T T T T T T T T T T T 4 2 2 2 2 2 2 2 2 2 2 2 2 2 2 2 2 2 2 2 2 2 2 2 2 2 2 2 ",
"2 2 2 2 2 2 2 m T T T T T T T T T T T T T T T T T T T T T T T T T T T T i 2 2 2 2 2 2 - - 2 2 2 2 2 2 4 q m m j 5 2 2 2 2 2 2 2 ",
"2 2 2 2 2 2 2 a T T K 4 T T T T T T T T T T T T T T T T T T T T T T T T m 2 2 2 2 2 2 $ + 2 2 4 2 < 2 s T q 2 T I 2 2 2 w T w 2 ",
"2 2 2 2 C y 2 t T T Z 4 H 2 4 T T T T ' ;.( ;.T T T T T T T T T T T T H s 2 2 2     2 - - i T 2 2 4 4 R T q 4 T T m 2 2 T T N 2 ",
"2 2 2 2 T T 2 m I T K 2 K 4 4 T T T T @.:.:.;.T T T T T T T A 2 T T T T w 4 4 2     2 2 2 H T 4 2 2 w T T a 4 T T T 2 2 T T w 2 ",
"2 2 2 2 T T 2 H T T T 2 T Z K T T T T W :.:.) T T T T T T T 7 2 T T T T 5 2 2 2 o . - 2 2 2 t 2 2 2 x T T T K T T I 2 1 N T 2 2 ",
"2 2 2 2 T T t T T T T T T T T T T T T T _ ) T T T T T T T T m 4 T T T T 4 4 2 2 2 2 2 2 2 2 2 2 2 2 q T T T T T T Z m G 2 2 2 2 ",
"2 8 v 2 T T m T T T T / T T T T T T T T T T T T T T T T T T T F T T T K < 4 2 2 2 4 K Z 2 2 2 2 2 x m K T T T T T w T T 2 2 2 2 ",
"2 T T 2 2 C T T T T ' >.o.T T T T T T T T T T T T T T T T R I T T T T c 2 3 3 2 2 < T I 2 5 K 2 2 T T T T T T T T T T T 0 2 2 2 ",
"2 k T T q T T T T T >.>.T T T T T T T T T T T T T T T T R T R T T T T 5 6 3 3 2 2 T T S y T T 2 2 T T T T T T T T T T T T H m t ",
"T T T T T T T T T T >.>.T T T T T T T T T T T T T T T T T v 2 K T T s 5 2 3 2 2 2 I T k I T T 5 2 T +.T T T T T T T T T T 2 G T ",
"T T T T T T T T T T >.>.T T T T T 5 < T T T T T T T 2 < T 2 2 w T v 5 5 6 2 2 V K T T K T T T T K %.>.T T T T T T T T T T 1 5 T ",
"T T T T T T T &.>.T >.;.>.>.T T T < 3 T T A w T T T p < 1 2 2 i Z 2 2 6 4 5 2 T T I T T T T $.>.T >.>.} $.W T T T T T T T 2 5 T ",
"T T T T T T T $.>.W / ..>.$.T T T A 2 V T C w G T T T 5 4 4 2 t 2 2 2 2 6 2 2 S T I T T T T | >...%.%.=.=.T T T T T T T T w w T ",
"T T T T T T T T >.~ T T } T T T T T V T T T T T T T T I 4 5 4 2 2 2 2 2 2 2 2 2 T T T T T T / >...T T / T T T T T T T T T G N T ",
"T T T T T T T T T T T T T T T T T T I T T T R T T T T G t 4 4 2 2 2 - & 3 6 2 2 T T T T T T T >.;.$.T T T T T T T % G T T T T T ",
"T T T T T T T T T T T T T T T T T T T T T T T T T Y s 4 2 2 2 2 2 2     1 + - 2 y I T T T T T T ..} T T T T T T . . T T T T T T ",
"T T T T T T T T t T T T T T T T T T T T T G k a 6 2 4 4 2 2 -   o 2     - + 2 2 w G T T T T T T T T T T R Z o b O . T T T T T T ",
"T T T T 5 2 T w 2 S T T T T T T K s 5 T T 5 2 2 2 2 2 2 2 2 2   o 2 + o 4 4 2 2 y G T T T T T T T T T T T F . N F C T T T T T T ",
"T T T T 2 2 T 2 2 T T T T T K s 5 2 2 T T 2 T C 2 2 2 2 2 2 2 $ + 2 2 2 2 2 2 2 w G T T T T T T T T T T T F . 8 T T T T T T T T ",
"T T T T q 4 T S G T T T T K q F T 5 2 2 2 2 T K 2 2 2 2 2 2 < 4 T T 4 2 2 2 2 2 T I T T T T T T T T T T T T i T T T T T T T T T ",
"T T T T K 2 Z T T T T T K 5 2 S T K 2 2 2 2 T w 2 2 2 2 2 2 s i R U 2 2 2 2 2 2 T T T T T T T T T T T T T T T T T T T T T T T T ",
"T T T T T T T T T T T T s 2 2 q T C 2 2 2 2 2 2 2 2 2 2 2 K T < I o .   2 2 2 2 T T I R T T T T T T T T T T T T T T T T T T T T ",
"T T T T R T I T T T T Z 2 2 2 2 a 2 2 2 2 2 2 2 2 2 2 $ . T T   o     + 2 2 2 2 T T T T T T T T T T T T T T T T T T T T T T T T ",
"T T T T . b T T T T / w 2 2 2 2 2 2 2 2 2 2 2 2 2 2 o   . T T   .   1 2 - 2 2 2 I T v I T T T T T T T I k T T T T T T T T T T T ",
"T T d < . N T T T T F 2 2 2 2 2 2 2 2 2 2 2 2 2 2 2 .   o T T   & 2 2 2 . . 2 2 2 2 5 v T T T T T s K V 2 T T T T T T T T T T T ",
"T H . . o T T T I T C 2 2 2 2 2 2 2 2 o         $ .       K k   - 2 2 2   o 2 2 2 2 2 m T K T T T 3 t p 5 T R T T T T T T T T T ",
"T R d . % T T T T T c 2 2 2 2 2 2 2                     . . . 2 4 4 2 2 & - 2 2 2 3 3 G T j a v A 3 3 r < T T R T T T s K T T T ",
"T T T T T T T I T T s 4 2 2 2 2 2 2                           2 2 T 5 2 2 2 2 2 2 2 2 t T v 3 3 5 3 3 I K T T T K T T 2 2 T T T ",
"T T T T T T T T T T q 4 2 2 2 2 2 .                         & 2 y T T 2 2 2 2 2 2 2 2 2 w 3 3 2 3 3 2 j K T T I 3 b T 2 4 T q T ",
"T T T T T C 8 T T T 4 < 2 2 2 .                             2 2 2 T T 2 2 2 5 2 2 2 2 2 3 3 2 2 2 2 2 3 5 s C S 2 V T 2 q F < K ",
"T T T T T < < 2 T 2 4 4 2 2 ; .                           . 2 2 2 T T 2 2 2 T T 2 2 2 2 2 2 2 2 2 2 2 2 3 5 5 r - V T K K s 4 T ",
"G I T T I T 2 2 5 2 2 2 2 2 2                         .   . s C 2 G q 5 2 C T K 2 2 2 2 2 2 2 2 2 2 2 2 2 2 2 2 4 4 q i j j q t ",
"2 V T T T T K 2 2 2 2 2 2 2 2 2 2 2                   .   2 T T Z 2 T T T 5 g 2 2 4 2 2 2 2 2 Z T 2 2 2 2 2 2 2 4 4 2 2 2 2 2 2 ",
"2 2 5 V V a q 5 2 2 2 2 2 2 2 2 2 2 o .   < . .   + - 4 2 - 4 T T 5 T T T 4 a Z Z C Z b q < 2 T T 2 2 2 2 C 2 2 2 2 2 2 2 - 2 2 ",
"2 2 2 2 2 2 2 2 2 2 2     2 < < 2 2 -   - 2 2 + o 2 - o 1 $ - T T T T T T T T T T T T T T T Z T T 2 2 2 q T C $ @ 2 2 2 o . . 2 ",
"2 2 2 2 #.q 2 2 2 2 2 o . 3 <   - 2 2 2 2 2 2 2 & 2     2 2 2 5 T T T T T T T T T T T T T T T W :.3 2 2 2 T w o     $ - .     2 ",
"2 2 2 2 >.$.2 Q 5 2 3 & . + <   - 4 2 2 2 2 2 2 2 2 o   2 2 2 p T T T T T T T T T T T T T T T ;.>.C 2 2 2 2 2 2 .               ",
"2 2 5 Z >.&._ &.w 2 3 3 & & 2 $ 2 2 2 2 2 2 2 2 2 2 2 2 2 2 I T T T T T T T T T T T T T T T T >.>.T V 2 2 2 2 2                 ",
"2 3 S T #.W _ o.3 2 2 2 4 6 2 2 2 2 2 2 2 2 2 2 2 2 2 2 2 v T T T T T T T T T T T T T T T T T >.>.T I w 2 2 2 $           . o . ",
"2 V T T T T I m 2 2 2 2 2 2 2 2 2 2 2 2 2 2 2 2 2 2 2 2 5 T T T T U T . o R R U T T T T T T ) >.o._ =.T 2 2 2 T C .           2 ",
"5 I T T T T T j 2 2 2 2 2 2 T S 2 2 2 2 2 2 2 2 2 2 2 2 K T T T T o     d T s C T T T T W T &.>.T :.:.T t < G T T .           2 ",
"a T T T T T G 2 2 2 2 2 2 2 T T 2 2 2 2 4 4 4 4 T C 2 S T T T T T s     T T 4 < T T T T >.&.>.>.| :.T T T 3 T T S           < < ",
"5 I T T 2 a v 2 2 2 2 2 2 2 V T K 4 T T m 2 4 w T T s T T T T T T T S K T T 2 4 T T T T >.;.:.*.T W T T T G T c 2 2 = =     & 2 ",
"2 v T T 2 2 5 2 2 2 2 2 2 2 4 T R g T T T 2 4 Z T T T T T T T T T T T T T T 4 < T T T T >.;.] } T T T T T T s 2 2 2 2 2 &   = 2 ",
"2 2 p k 3 2 2 2 2 2 2 2 2 2 4 Z T T T T T T Z K T T T T T T T T T T T T T T T T T T T T R ( T T T T T T T T v 2 2 2 2 m 2 + 2 2 ",
"2 2 2 2 2 2 2 2 2 2 2 2 2 c S K T T T T T T R T T T T T T T T T T T U < U Y U R T T T T R T T T T T T T T T c 2 2 2 t T w 2 2 2 ",
"2 2 2 2 2 2 2 2 2 2 2 2 S T T T V K T T T T T T T T T T T T T T T T Y < < Y < 4 T T T T R T T T T T T T T T s 2 2 2 S T w 2 2 2 ",
"2 2 2 2 2 2 2 2 2 2 1 j T T T T 2 2 T T 2 2 T T T T T T T T T T T T T 5 2 T 2 v T T T T T T T T T T T T T T w 2 2 2 a T w 2 2 2 ",
"2 2 2 2 2 2 2 2 2 2 2 T T T T T 2 2 F T 2 q T T T T T T T T T T T T T T G I T T T T T T T T T T T T T T T G 5 2 2 2 2 2 2 2 2 2 ",
"2 2 2 2 2 2 2 2 2 4 G T T T T T s 4 2 T 2 V T T T T T T T T T T T T T T T T T T T T T T T T T T T T T T I s 2 2 >.a 2 2 q 5 2 2 ",
"2 2 2 2 2 2 2 2 T I I T T T T T T 2 2 T Z K T T T T T T T T T T T T T T T T T T T T T T T T T T T T T T m 4 2 S >.>.w 2 T T 2 2 ",
"2 2 2 2 2 2 1 1 T T T T T T T T T s 4 T T T T T T T T T T T R $.>.T T T T T T T T T T T T T T T T T T G 5 6 2 6 >.>.T T T T 2 2 ",
"2 2 2 2 2 T I 4 T T T T T T T T T T T T T T T T T T T T T T T >.>.T T T T T T T T T T T T T T T T T T w 6 3 2 m >.>.T T T a 2 2 ",
"2 2 2 2 T I T T T T T T T T T T T T T T T T T T T T T T $.;...>.} T T T T T T T T T T I T T T T T K T 6 2 2 2 K } O.T T T T 5 2 ",
"2 2 2 2 2 T T T T T T T T T T Z K T T T T T T T T T T T :.:.T R T T T T T T T T T T T 2 y T T T T T T 2 2 2 2 T T I T T T T w 2 ",
"2 2 2 2 1 G R T T T T T T T T 2 2 T T T T T T T T T T T +.>.T T T T T T T T T T T T T 4 v T T I s K K 4 4 2 2 I j 2 T T T T 5 2 ",
"2 2 2 2 2 5 5 I T T T T T T T 2 2 s T T T T T T T T T T / >.=.T T T T T T T T V 4 T T I T T T i 5 5 s 2 < 2 2 T 2 2 T T T T 2 2 ",
"2 2 2 2 2 2 y I T T T T T T T I 5 T T T T T T T T T T T T >.@.T T T T T T T T w 2 T T T I T T s 4 4 4 2 4 2 2 G 2 2 T T T T 2 2 ",
"2 2 2 2 2 2 j T T T T T T T T T T T T T T T T T T T T T T I T T T T T T T T T T 2 2 K v w T T 2 2 2 2 4 < 4 2 5 2 y T T T t 2 2 ",
"2 2 2 2 2 2 x T T T T T T T T T T T T T T T T T T T T T T T T T T T T T T T K G 2 2 5 2 4 5 T s 2 2 2 2 2 2 2 2 2 w C c 5 2 2 2 ",
"2 2 2 2 2 2 j T T T T T T T T T T T T T T T T T T T T T T T T T T T T T T w w 2 4 2 4 2 4 2 y w 2 2 2 2 2 2 2 2 6 2 < 2 2 2 2 2 ",
"2 2 2 2 2 2 j T T T T T T T T T T T T T T T T T T T T T T T T T T T T T V 2 2 2 2 2 2 2 2 2 2 2 2 2 2 2 2 2 2 2 < 2 2 2 2 2 2 2 ",
"2 2 2 2 2 1 y T T T T T T T T T T T T T T T T T T T T T T T T T T T T T 4 2 2 2 2 2 2 2 2 2 2 2 2 2 2 2 2 2 2 2 2 2 2 2 2 2 2 2 "
};
