/* XPM */
static char *_3e6a79c86504d49dc3edbf9c29ec291sLqyRhachW4zKpaS[] = {
/* columns rows colors chars-per-pixel */
"32 32 185 2 ",
"   c #64882C",
".  c #698D2E",
"X  c #6E932F",
"o  c #6B8A32",
"O  c #718B38",
"+  c #6F9231",
"@  c #729533",
"#  c #749C34",
"$  c #799D35",
"%  c #769339",
"&  c #7C953D",
"*  c #779939",
"=  c #7C9B3B",
"-  c #76A236",
";  c #7BA436",
":  c #7EA937",
">  c #7DA539",
",  c #7EA938",
"<  c #7B8D41",
"1  c #7E9442",
"2  c #809E3F",
"3  c #80A637",
"4  c #80A937",
"5  c #82A53B",
"6  c #83AD39",
"7  c #88AE3D",
"8  c #86B03A",
"9  c #8BB43C",
"0  c #8FB83C",
"q  c #90B73E",
"w  c #92BA3E",
"e  c #849547",
"r  c #849C43",
"t  c #879948",
"y  c #8B9B4B",
"u  c #929E4F",
"i  c #8D9B51",
"p  c #989759",
"a  c #85A241",
"s  c #8AA445",
"d  c #86A940",
"f  c #8CAB44",
"g  c #8DA648",
"h  c #8EAE49",
"j  c #92A54D",
"k  c #93AC4B",
"l  c #8EB143",
"z  c #92B343",
"x  c #94B943",
"c  c #94B14C",
"v  c #9BB34E",
"b  c #98B94A",
"n  c #97A552",
"m  c #99A456",
"M  c #96AC52",
"N  c #9BAD54",
"B  c #95A258",
"V  c #9CA45C",
"C  c #9FAC5A",
"Z  c #9CB252",
"A  c #A3AC57",
"S  c #A2A45C",
"D  c #A3AB5C",
"F  c #A1B354",
"G  c #A0B853",
"H  c #A3B55A",
"J  c #A9B35E",
"K  c #A5BA5A",
"L  c #ABBE5C",
"P  c #A29963",
"I  c #A7A267",
"U  c #A9A366",
"Y  c #A5AC62",
"T  c #ACAC65",
"R  c #ACA568",
"E  c #ABAC69",
"W  c #B1A46C",
"Q  c #B3AB6D",
"!  c #ABB263",
"~  c #ACBB62",
"^  c #ABB768",
"/  c #B1BD63",
"(  c #B8BD67",
")  c #B4B26B",
"_  c #B5BA6B",
"`  c #B9B86C",
"'  c #B5A572",
"]  c #BAA774",
"[  c #B5AD74",
"{  c #BAAC74",
"}  c #BCA778",
"|  c #BDAC79",
" . c #B7B270",
".. c #BBB372",
"X. c #BBBA71",
"o. c #B7B778",
"O. c #BEB17C",
"+. c #BEBE79",
"@. c #C1AF76",
"#. c #C4AD7D",
"$. c #C2B577",
"%. c #C3BC77",
"&. c #C3B27B",
"*. c #CAB57E",
"=. c #C3BA7C",
"-. c #CABB7E",
";. c #AEC064",
":. c #B4C267",
">. c #BBC26E",
",. c #BAC473",
"<. c #C8C477",
"1. c #C8C57C",
"2. c #BFAF80",
"3. c #BEB582",
"4. c #C6AE81",
"5. c #C9AF81",
"6. c #C5B382",
"7. c #CCB483",
"8. c #C4B982",
"9. c #CEBA85",
"0. c #CEB789",
"q. c #CEBA8A",
"w. c #D0B785",
"e. c #D2BA86",
"r. c #D8BF87",
"t. c #D0B788",
"y. c #D4BD8A",
"u. c #D8BF8A",
"i. c #D4BF91",
"p. c #C5C782",
"a. c #CEC386",
"s. c #CFC58E",
"d. c #CDC989",
"f. c #D4C085",
"g. c #DAC187",
"h. c #D7C18B",
"j. c #D4C08C",
"k. c #D6C08D",
"l. c #D9C18B",
"z. c #DAC28A",
"x. c #DBC38B",
"c. c #DEC68B",
"v. c #D9C18C",
"b. c #DBC38C",
"n. c #DBC58D",
"m. c #DAC58F",
"M. c #D7C988",
"N. c #DFC88D",
"B. c #D7C191",
"V. c #D7C292",
"C. c #DBC593",
"Z. c #DBC692",
"A. c #DBC594",
"S. c #DDC891",
"D. c #DFC991",
"F. c #DEC994",
"G. c #D7C398",
"H. c #DBC598",
"J. c #DECA9A",
"K. c #DFCB9C",
"L. c #E0C78C",
"P. c #E0C98D",
"I. c #E2CB8E",
"U. c #E1CB95",
"Y. c #E3CC94",
"T. c #E3CD96",
"R. c #E5CF95",
"E. c #E2CD9B",
"W. c #E6D096",
"Q. c #E3D19E",
"!. c #E5D19C",
"~. c #E6D39E",
"^. c #E8D29F",
"/. c #DFCEA1",
"(. c #E2CFA1",
"). c #E3D0A2",
"_. c #E4D1A0",
"`. c #E5D3A3",
"'. c #E6D4A2",
"]. c #E6D5A4",
"[. c #E8D5A4",
"{. c #E6D6A9",
"}. c #E8D7AA",
"|. c #E9D9AC",
" X c #E9DAB0",
/* pixels */
"9 , : = V 7.7.q.T.[.E.u.7.l.P.P.T.[.^.c.9.7.f.e.e.q.9.D f 7 6 9 ",
"- : o $ C 8.y.E.}.).U.k.c.n.h.y.g.c.Y.c.c.c.y.y./.D.*.S *   - 7 ",
"> 4 y R | k.J.E.H.A.C.C.C.Y.C.D.v.c.W.!.K.h.k.E.].A.9.' R V * $ ",
"J N ^ 6.n.E.U.y.7.4.7.A.E.).E.T.D.x.J.!.E.c.l.E.k.7.6.y.G.8.Q Q ",
"9.V.C.U.F.A.q.7.#.7.V.(.W.Y.N.r.y.C.U.L.u.y.e.e.7.6.A.K.K.j.9.8.",
"V.U.W.E.y.7.7.0.V.E.).W.Y.e.7.e.c.c.e.7.w.y.u.c.A.H.i.y.D.).).A.",
"!.U.`.C.y.y.A.(.(.}.!.Y.7.4.y.N.l.7.6.u.P.R.U.R.y.t.y.H.E.Q.J.A.",
"C.W.R.l.y.J.).E.E.T.L.v.y.J.R.e.7.7.L.'.).R.c.t.e.V.A.U.T.n.C.J.",
"l.T.c.l.J.E.J.v.r.l.D.E.).).l.7.e.L.R.].A.e.y.v.S.c.T.L.u.t.y.t.",
"E.P.r.l.U.u.7.#.#.7.V.E.'.W.l.c.L.l.V.c.y.S.!.^.U.U.c.t.5.7.5.0.",
"[.v.e.c.L.y.e.r.C.K.(.(.T.L.U.P.c.y.c.l.C.!.!.W.R.E.x.7.7.7.4.J.",
"J.7.7.J.R.P.l.A.V.A.C.y.e.Y.Y.!.!.T.I.I.P.T.I.Y.!.[.T.u.P.L.U.).",
"7.#.L.E.l.e.t.V.A.v.7.w.E.].|.(.c.v.T.W.P.l.e.i.E.).W.!.P.E.).V.",
"7.c.P.R.E.!.E.E.v.7.k.'.|.|.K.0.V.).).D.e.e.w.u.C.U.U.y.y./.y.7.",
"L.I.^.|.}.(.J.w.e.C.}.|.].J.t.H.}.[.T.y.e.l.W.E.E.R.c.v.K.S.7.y.",
"P.W.|.}.J.q.7.y.U.W.(.!.A.i.H.(.E.P.c.c.R.!.E.y.7.7.t.c.y.c.P.I.",
"I.'.}.u.5.7.H.[.}.R.U.i.i.C.E.E.P.c.U.U.!.i.7.5.7.c.v.7.t.U.R.U.",
"^.}.S.4.y.U.}.).U.i.H.i.S.U.L.U.l.S.U.J.7.7.y.P.D.C.i.u.P.U.r.y.",
"E.P.t.l.E.`.U.H.E.(.R.U.V.u.u.A.V.U.S.y.y.Y.E.).].(.R.U.Y.v.S.(.",
"e.y.A.R.!.L.U.(.(.i.i.y.y.u.E.(.E.V.u.c.W.[.}.}.(.U.c.c.y.U.[.V.",
"7.q.U.E.y.e.Y.E.i.u.y.y.A.E.`.E.i.y.L.R.W.W.W.T.y.7.w.y.A.E.y.7.",
"t.U.!.l.7.u.L.C.i.i.A.U.R.R.R.u.y.!.[.}.^.I.f.y.y.V.R.U.U.y.6.7.",
"J.).T.e.u.u.i.i.i.(.E.R.P.c.u.u.E.}.[.Y.P.P.R.!.^.E.U.V.y.e.e.v.",
"y.c.e.g.u.y.L.(.}.U.E.R.e.e.x.L.Y.R.y.7.v.[.].'.W.E.E.E.P.c.y.q.",
"n.e.y.l.e.h.J.!.i.A.(.Y.L.L.u.y.c.e.7.).|.|.).T.S.V.R.P.u.7.7.y.",
"y.n.N.e.e.E.!.).(.E.Y.u.e.y.7.t.l.l.!.|.|.).C.y.9.U.).S.7.w.y.L.",
"F.U.l.7.D.[.}.}.'.L.w.7.e.u.H.U.E.P.Y.Y.Y.E.y.y.U.(.R.l.f.f.X.e.",
"!.1.*.c.}.].!.U.t.5.w.u.Y.^.[.).U.u.l.v.E.'.C.v.y.i.x.y.y.a.z h ",
"L 9 K E.].Y.h.6.5.A.R.R.^.E.W.u.0.e.l.E.[.T.e.y.H.C.y.&.^ N - 7 ",
"7 : j H =.7.4.l.(.[.'.U.E.U.t.*.u.Y.W.^.E.U.A.E.A.e.7.y.^ - 8 8 ",
"9 7 + Z O.9.T.].(.E.).[.L.u.P.P.P.W.W.[.{.'.Y.7.7.7.9.,.a 4 0 0 ",
"9 ; . f =.y.G.i.0.E.|.R.c.w.I.W.I.P.}.}.W.y.&.7.7.&.+.G * : 8 4 "
};
