/* XPM */
static char *d78efb56af404793dc638c807cef4a9clKitrlIpEaz11opd[] = {
/* columns rows colors chars-per-pixel */
"64 64 229 2 ",
"   c #010001",
".  c #0A0306",
"X  c #0C0409",
"o  c #03080F",
"O  c #0A080D",
"+  c #14050D",
"@  c #17060E",
"#  c #040B13",
"$  c #0A0D16",
"%  c #060E18",
"&  c #1B0711",
"*  c #150B14",
"=  c #1B0A15",
"-  c #1D0914",
";  c #07111C",
":  c #09111C",
">  c #18111C",
",  c #240B19",
"<  c #250D1C",
"1  c #25111E",
"2  c #071625",
"3  c #0A1623",
"4  c #071A2D",
"5  c #0B1B2C",
"6  c #181725",
"7  c #151C2C",
"8  c #071E33",
"9  c #0B1E34",
"0  c #191E32",
"q  c #2E0F21",
"w  c #241423",
"e  c #2B1223",
"r  c #28192B",
"t  c #321125",
"y  c #3B152D",
"u  c #331B2C",
"i  c #3A1A2C",
"p  c #291E33",
"a  c #3B1C31",
"s  c #0B2036",
"d  c #0C233B",
"f  c #1A2236",
"g  c #16243A",
"h  c #1C263B",
"j  c #34202F",
"k  c #26263A",
"l  c #2E2A39",
"z  c #342232",
"x  c #392738",
"c  c #332D3D",
"v  c #35303E",
"b  c #42182F",
"n  c #461A31",
"m  c #4A1A32",
"M  c #521D33",
"N  c #472737",
"B  c #4C2434",
"V  c #472A36",
"C  c #572837",
"Z  c #58333B",
"A  c #652B37",
"S  c #65353B",
"D  c #78383C",
"F  c #0A2643",
"G  c #092848",
"H  c #0B2B4D",
"J  c #122A43",
"K  c #172B45",
"L  c #16314B",
"P  c #1A344D",
"I  c #0B2D52",
"U  c #0F3152",
"Y  c #0F3259",
"T  c #113455",
"R  c #1B3752",
"E  c #1D3A55",
"W  c #133758",
"Q  c #153B5C",
"!  c #1A3C5B",
"~  c #262C42",
"^  c #352B42",
"/  c #2B3144",
"(  c #28344A",
")  c #343343",
"_  c #3B3443",
"`  c #36384B",
"'  c #233B55",
"]  c #2C3A52",
"[  c #383D52",
"{  c #173D60",
"}  c #183F62",
"|  c #542F44",
" . c #473844",
".. c #453D4A",
"X. c #593C47",
"o. c #453E55",
"O. c #683A46",
"+. c #753E42",
"@. c #1D405F",
"#. c #25425C",
"$. c #2B415A",
"%. c #384359",
"&. c #3D455A",
"*. c #1C4264",
"=. c #244662",
"-. c #284761",
";. c #254865",
":. c #2B4B64",
">. c #214768",
",. c #234969",
"<. c #2C4E6A",
"1. c #354C65",
"2. c #2D516C",
"3. c #32536D",
"4. c #3F526B",
"5. c #2E5472",
"6. c #335671",
"7. c #365974",
"8. c #395C76",
"9. c #365C78",
"0. c #3A5E79",
"q. c #3D637D",
"w. c #4A414E",
"e. c #53434D",
"r. c #58434A",
"t. c #4D4552",
"y. c #474759",
"u. c #514652",
"i. c #5C4A53",
"p. c #544B58",
"a. c #5B4E5A",
"s. c #5C515B",
"d. c #6F454C",
"f. c #78464A",
"g. c #664955",
"h. c #634D54",
"j. c #794952",
"k. c #665159",
"l. c #6B555C",
"z. c #76565A",
"x. c #454D65",
"c. c #574D65",
"v. c #45546A",
"b. c #595566",
"n. c #435C74",
"m. c #4A5C73",
"M. c #525E75",
"N. c #675A67",
"B. c #765C64",
"V. c #705C73",
"C. c #44637B",
"Z. c #54647C",
"A. c #5A667C",
"S. c #69616E",
"D. c #7A6368",
"F. c #646679",
"G. c #776977",
"H. c #7C717D",
"J. c #823C3E",
"K. c #84403F",
"L. c #8A4645",
"P. c #974A44",
"I. c #9B544D",
"U. c #885B5C",
"Y. c #A9554A",
"T. c #98635E",
"R. c #895E61",
"E. c #856464",
"W. c #8A686A",
"Q. c #946D6B",
"!. c #996A68",
"~. c #9B716E",
"^. c #866C72",
"/. c #996E75",
"(. c #8A7379",
"). c #977677",
"_. c #A46D63",
"`. c #B46E68",
"'. c #A67269",
"]. c #A27671",
"[. c #A77A76",
"{. c #AD817C",
"}. c #466982",
"|. c #586A84",
" X c #4C718A",
".X c #55748D",
"XX c #5A7B94",
"oX c #646C83",
"OX c #6C6D86",
"+X c #6D6F88",
"@X c #6E7289",
"#X c #6B758B",
"$X c #727189",
"%X c #7B778A",
"&X c #826E84",
"*X c #87798A",
"=X c #967C83",
"-X c #877C90",
";X c #A17E86",
":X c #5F8399",
">X c #63879C",
",X c #688CA1",
"<X c #7787A0",
"1X c #6E92A7",
"2X c #9A848A",
"3X c #948795",
"4X c #A98787",
"5X c #AC8C8E",
"6X c #AC959A",
"7X c #B69799",
"8X c #888BA0",
"9X c #9593A2",
"0X c #9B95A4",
"qX c #9E98A7",
"wX c #A59BA7",
"eX c #A49DAB",
"rX c #BC9EA1",
"tX c #A9A1AD",
"yX c #B9A4AA",
"uX c #A9A4B2",
"iX c #B4AAB6",
"pX c #BAB2BF",
"aX c #C1A7AC",
"sX c #C5ADB3",
"dX c #C3B4BD",
"fX c #A1A9C0",
"gX c #C6B9C2",
"hX c #D3C6CD",
"jX c white",
/* pixels */
"} } } } } } } 9.q.q.q.q.q.q.q.q.q.q.q.q.q.q.q.q.q.q.q.q.q.q.q.q.q.q.q.q.>.*.*.*.} } } } } } } } } } } } *.*.} *.*.} } } } } } } ",
"} } } } } } } 5.q.q.q.q.q.q.q.q.q.q.q.q.q.C.q.q.q.q.q.q.q.q.q.q.q.q.q.q.<.*.@.*.} } } { { } } } } } } } >.5.5.,.*.} } } } } } } ",
"*.} } } *.*.*.,.q.q.q.} q.q.q.q.q.q.q.q.C.8.n.q.q.q.q.q.q.q.q.q.q.q.q.q.,.*.*.*.} } } Y Y *.*.} } } } ,.q.*.*.q.9.*.*.} >.q.*.*.",
"{ } } } 5.>.*.*.q.q.9.*.9.*.*.q.q.q.t.e.e.e.r.r.u.p.C.q.q.q.q.q.q.q.q.q.,.Y *.@.Y I } Q Y ,.q.} } } *.q.q.*.*.q.q.5.} } q.q.5.} ",
"{ *.} } q.q.*.5.q.q.0.} q.} *.q.x.e.e.s.l.e.i.s.e.h.l.i.s.C.7.@.q.q.q.q.>.*.*.*.I I } } } 9.q.} } } >.q.q.>.*.q.q.9.} *.q.q.>.*.",
"} { } } q.q.*.q.q.q.q.} q.9.9.4.e.e.9XtXtX9XtXH.s.i.D.l.h.h.p.#.q.q.q.q.*.*.*.*.Y I { } } } >.} } } 5.q.q.q.q.q.q.9.} *.5.q.*.*.",
"} *.} } q.q.*.q.q.q.q.q.q.q.n.e.w.9XuXuXqX9XiXtX{.l.eX3X^.l.l.l.q.q.q.q.*.*.*.*.} } } } *.} } } } } >.q.q.q.q.q.q.9.5.9.} } *.} ",
"} *.5.} q.q.5.q.q.q.q.}.q.q.e.e.H.9X9XuX9X0XqXiXs.wXpXtX{.D.D.B.S.C.9.5.*.*.*.Y } } q.7.} } *.} } 5.5.9.q.q.q.q.q.>.q.9.} } } } ",
"*.q.q.*.*.9.q.q.q.q. X1XXXn.e.e.tXpXqX9X0XqXtXtXD.tXiXiX4X).Q.W.D.B.C.<.@.*.! @.@.! q.q.} *.0.} *.q.q.q.q.q.q.q.q.q.q.q.>.*.*.*.",
"*.5.q.q.*.q.q.q.q.q.1X1Xq.v.e.e.9XqXeX0XqXqXtXiXD.E.=X).~.5X/./.W.E.S.*.@.[ r.X.#.q.q.q.,.q.q.} *.q.q.q.C.q.q.q.q.q.q.}.q.9.5.>.",
"q.q.q.q.q.q.q.q.q.}.1X1Xq.t.e.i.uX9X0X0XuXtXtXiXE.W.Q.~.~.).~.~.Q.W.i.#.%.r.r.e.) C.q.,.q.q.q.*.*.q.:Xq.}.q.q.q.q.q.q.q.9.*.9.q.",
"q.q.q.q.q.q.q.q.q.q.1X1Xq.e.e.a.k.qX0XtXtXpXiXQ.Q.!.~.~.].[.~.W.~.z.l.g N.a.c v l ) q.q.q.q.q.q.q.>X1Xq.q.q.q.q.q.q.q.q.q.*.*.q.",
"q.q.q.q.q.q.q.,X1Xq.1X1X1Xu.e.i.D.2XpXtXtXyX2X).~.~.].].z.].].W.~.z.D.. G...v l v b.V.0.0.C.>X1Xq.1X1X X#XC.q.q.q.q.q.q.q.*.*.9.",
"q.q.q.q.q.q.q.>X1X}.C. X1Xu.e.e.i.G.2X2X^.W.Q.[.~.].].[.W.R.!.T.e.T.E.O x.s.c _ S.S.b._ 1.0..X1X X:X,Xp.a.b.8.q.q.q.q.q.q.>.>.q.",
"q.q.q.q.q.q.q.q.1Xq.q.q. Xy.e.e.l.(.l.4X).Q.~.].[.E.E.'.!.z.j.U.r.U.R.* 7 8.! s.s.c p ..3.0.}.>Xx.< z e.i.p.l u.4.q.q.q.q.9.9.9.",
"q.q.q.q.q.q.q.q.q.q.q.q.B L.f.i.i.D.2XW.W.Q.E.].].'.!.E.R.X.> O.O.f.z. .f n.W W w.r > ^ 0.8.x.N.- r e t.N.t.l ) X.y.q.q.q.q.q.q.",
"q.q.q.q.q.q.q.q.q.q.h.D.B B &XJ.P.j.R.).W.~.].].'.'.R.p O.O.r | B x j.z.h A.2.r oX+X= | C.y.G.e 6 OXq p N._ v _ _ r.b.q.q.q.q.q.",
"q.q.q.q.q.q.q.q.*.k.i.k.| *X$Xa y M J.I.T.Q.].].l.R.U.N e | C C B r O.r.w.y.|.t oX@X< X.Z.b.o.+ +X%Xq c q.v ) s.b.b.k 6.q.q.q.q.",
"q.q.q.q.*.*.q.*.5X).i.h.C t _ & + , , n A Y.!.].h.g.j.O.a u C n b B O.x S.S.F.1 OXoXi N.V.y.X   $Xp < oX X6.H w.b.7 7 ~ ( q.q.q.",
"q.q.q.q.Q Q q.Y {.l.l.i.| C b b t , + , e M Y.!./.R.+.N C O.M e > g.g.x k %.H.,   . B G.p..   * e < F.XX8.6.I r.k 7 7 h $.<.q.q.",
"q.q.q.q.*.Q 9.Q.{.9X).u.t.d.D b b q . X @ + A Y.!.U.O.a t B.B.* $ ^ *Xx / %.$X+   . u b.& X + 1 e k..X' E P d ..7 7 g h %.$.C.q.",
"q.q.7.q.9.Q 2._.6XpX2Xs.<.U H 2XA b , . . + , m T.U.O.O.C C B 6 y.$ f k ` y.$X&   . c.]   O e 1 X.b.d d d 9 s 7 7 0 h g h 3.q.q.",
"q.7.q.7.q.8.7.{.dXdXW.D.W U H  X%XC q , . . X , L.R.j.d.| C N > ` / f [ S.y.$X& . f [     w 1 n g.' ' g 6 6 6 : 3 0 0 f 7 .X7.q.",
"q.q.8.q.3.6.3.aXrX{.~.~.U G H G R =X[.b & . . q O.X.R.B.| p 6 0 7 k ` b.=Xb.$X+   +     , 1 e Z ( _ C B n V e 1 ; : 3 2 5 .X6.q.",
"7.q.6.7.H =.2.{.3XrX4X_.G G G G d K *XT.C y A J.K.0 0 c ~ f k b.` w.s.S.H.H.S.%.] .   X t e V Z n t + & < , 1 1 ) k ; 5 d XXq.q.",
"q.6.=.R H -.2.k.k.2XsX~.G G d d 9 9 ~ r.Y.K.D A M v / 0 6 6 h p.G.b.G.%X3X*XN.0 ] g ; 1 e u - , = h oXoX[ ^ p r v u.i.l :XC.q.q.",
"q.5.H G F 2.G.l.h.k.7X(.F d d s 8 a J.Y.J.n y M m 7       : &.M.F.0XdXyXH.c.z Z S S + + + & X   o . y.^ x.c.t._ v w.S.<X Xq.q.q.",
"7.7.*.G U <.2XdX3Xi.k.G F d s f L.J.P.=Xo.@ @ b A       9 ] > 0 p k t.-XN.x &X-Xj r f.*         X < c.b.^ -.C.e.s._ e.w.6.8.q.q.",
"7.7.3.3.2.:.'.dX8Xl.i.d d s g D J.C $X+X+X& & < b n       . [ %X-X&X-X*XN.*X-X*Xn r w S X + - p N.V...( #.#.h.N.s.w._ $.! 7.q.q.",
"7.6.3.3.2.:._.uXqXD.4Xd s s 4 E.C n y t & & @ @ t C       . %X-X-X-X-X-X-X3XO.| y p > j a e u  .3 $ # 2 4 g G.v s.s.b.! ! q.*.q.",
"7.6.3.2.:.#.[.2X{.D.7X2 ; # E.l.^.j.n n y + . + , M $     O %X3X-XM M J.L.+.+.&XX.N > w +.- - p ~ % # % ; 2 p.y.b.s.v.W @.5.@.q.",
"7.3.3.:.$.( u.Q.5XB.7X# # # '.tXg.B.| y n , + X & n *     . %X-X| O././.!.I.!.;X^     ; P X.+ + w c.N.% r.p.c l c E :.5.6.*.Q q.",
"3.3.<./ / / v k.Q._.2X# O : 4X9XD.z.B.v./.C , & 1 m <       OXG.b | ;X      ] N.M.jXjX  3 Z.] + + & B.V.X.v  ... .H T *.=.>.*.,.",
"@.;.&.%.$./ / ( e.l.Z.# O c 7X0X).R.A.; z `.J.i C A ,       > z n y jXjX      ( k         <X1.o . & - D.%Xu.a.t.v d T W W ! Q *.",
"T T %.%.&.v l l l A.$.o # v 5Xl.].'.2Xo O O.P.S K.D &         u a n n.Z.      g f g     |.wXx.    oX+Xe c.%Xa.u.4 F T W W W Q *.",
"W W E y.&.%.%./ F.C.# o o ) dXyXsX5X3Xo o # u J.D b m | X       > > o       ] f * _ b.8X%XZ N.=   ( @Xc.c.0 0 f 5 H T T I H I Q ",
"W T T #.&.%.x.Z.g # # o # o iXgX7XyXF.o # # V J.q & q m n                 2.#Xw z V z e L.^.G.u < + > < c.K 7 [ M.J I I G I I } ",
"W T U H C.#.2 d 2 # % # # ; tXeXi.*Xs o # u J.t + + + b A .           J M.uXz e < B , OX& Z.h ) t < , - c.` 0 0 0 |.G G G I I I ",
"T U T #.Z.q.P #.d d 4 4 2 h yXl.l.6Xk o $ P.%XoX( , & b m y e O O w z Z x Z r +X& L.^ $Xb.F 3 P ( p < > x.] 0 0 K A.F G I G I I ",
"@.@.;.<.C.:.<.5.G F d s 8 w.^.D.E.rXv o S A OXF.& q C B $X, i S z f.j.L.L.L.+Xc.p [ $X, & % % 5 P c l l 1.x.0 K A.M.G G G I I T ",
"T ;.<.:.:.:.;.#.H s F h K / / ( t.3Xk $ D y , , t A P.&XOX+ 1 D Z O.r O S.( +X- e % OX- $ % ; 3  .w.c l R n.d m.1.9 G G H I I } ",
"@.5.3.<.:.:.#.L J $./ / / / v / v A.# # B b t t G./ K.O.x.. u V # $.v.v.v.% $X, & % < - : $ : h r._ ....M.1.J ' :.G G G H I I } ",
"@.5.5.<.:.:.#.H R y.%.) / / / / $.A.o # B.X.B M +.v.~.S X + A x % # # o # % k - * % % % 3 3 3  .e.u.p. .G.F L =.=.F G G H I } Q ",
"@.2.3.2.L @.@.H ' y.&.%.) / / ( F.# % !.B.i.X.O > $ G.C B y J.w % % % % % % # * ; 2 % % 3 3 0 a.a.s.a.X.oXK ' R I T I T I H T } ",
"@.;.3.2.T H T G L %.y.x.%./ m.F.: $ v aXpXh.R.% ; ; # % h.h.f.# % % % % % ; ; ; d d d 3 3 3 : t.N.S.S.r..X' W T T T W W I I W { ",
"@.@.*.*.T T U T U J ' A.A.Z.m.% % % T.7X9Xl._.% # ; : e.h.h.z.7 % % % % 2 9 d d d d d 5 : : 3 l v y.s.F.' -.E I I W W =.{ I { } ",
"@.U T T T U U H H H 2 # # O % % ; ; _.^.i.D.'.: % % # ~.h.E.{.w.% % % o s d d d d d g 5 : % ) ..v v L 3.' :.R T W W } 8.} { { } ",
"@.@.@.T @.U @.U U U F 2 ; 2 5 2 ; 3 sXyX).).6X: ; ; 7 '.e.{.(.l.% % % # 4 J 5 8 d d d 5 l i.t.a.e.X.#.#.#.=.! T T W <.7.} { { } ",
"@.@.Y @.Y U @.U U I H @.d d d @.s d pXhX7X7XsX: : : v '.H.{.S.z.% % ; ; 8 d 3 4 J d d 3 7 t.s.s.u. .#.#.-.:.@.T T ! *.5.*.@.*.*.",
"Y @.@.Y @.Y U U U U U ;.:.#.#.#.H d $.0XD.h.%.; % % k rXdX5X{.{.% # ; d L g @.@.*.d h : 7 7 ) c k $.#.:.:.;.T T @.T @.T *.@.T *.",
"@.@.@.Y @.U @.U @.U =.:.-.-.#.#.P L E.0XH.h.: % % % 5 rXrXyXyX7X; # ; d #.@.h *.#.L d 5 7 7 7 7 7 M.C.:.<.@.W W >X*.! @.*.*.*.*.",
"*.@.@.@.@.@.U U <.<.2.:.:.-.-.#.#.( '.0Xi.D.T.% % % g 5X2X6X^.% % % 2 @.#.h P #.#.#.L L 7 7 7 7 h f A.<.*.W W ,.:X:X*.@.9.6.} *.",
"Y *.*.*.Y @.@.@.6.3.3.3.:.:.:.:.#.%.~.Q.{.6X~.% % ; d l l.k.i.7 3 % d #.! #.#.#.#.#.P -.5 7 7 f f h A.#.#.T T *.>X,Xq.9.9.q.*.*.",
"*.*.Y *.*.5.9.*.8.6.3.3.3.:.:.:.$.l v %.H.qX2X% 2 d 9  .D.^.r.~.3 3 d #.#.#.#.#.#.#.#.#.n.` f h h A.Z.! Q W *.2.,X,Xq.q.q.,.*.*.",
"Y *.*.*.9.9.9.9.8.7.6.6.6.3.3.$.l ( v ( h Z.v.2 d d @.yXgX{.t.7X3 5 @.#.-.-.#.-.-.-.#.-.#.>X XA.A.A.#.W W W ! 5.}.:X9.q.q.9.*.*.",
"*.*.Y *.*.9.9.9.0.8.8.8.6.6.6.%.%.v ( v ( A.s d L #.#.w.9X{.D.8X$.8 @.#.-.-.-.-.:.:.:.L ! <.8.7.8.<.6.! *.Q Q C.q.9.q.q.q.9.*.*.",
"*.*.Y @.*.5.q.q.0.8.8.8.8.8.6.@.%.l %.( A.Z.d #.<.:.:.v l $.t..Xv.g #.:.:.:.:.:.=.3.<.T ! 3.3.3.*.5.9.Y Y { *.9.,.*.q.q.q.q.*.*.",
"*.*.*.*.*.*.>.9.q.q.0.8.8.8.3.@.L $.A.A.Z.P <.2.<.<.:.( l ( v F.$.#.:.:.:.3.:.-.T <.3.3.3.6.3.#.*.*.*.*.*.*.*.9.*.*.q.q.q.q.*.*.",
"Y *.@.*.*.*.,.9.q.0.0.0.0.8.7.7.@.3.3.<.6.6.6.7.3.3.<.y.%.$.F.oX$.-.3.3.3.3.3.@.T 5.5.5.6.6.8.*.Q *.Y *.*.{ { 5.*.*.9.q.9.9.*.*.",
"*.*.*.*.@.*.5.q.q.q.q.q.q.q.0.8.8.q.8.6.q.6.7.7.8.8.6.A.#XH.#X$.-.3.3.3.7.3.7.3.} *.5.>.*.q.q.} *.Y { { { *.*.*.*.*.q.q.q.*.*.*.",
"*.*.*.*.@.*.>.q.q.q.q.q.q.q.q.0.q.q.q.8.q.6.q.8.8.8.8.8.7.7.q.7.9.7.9.9.8.7.7.6.*.Y *.Y *.*.9.>.*.Y *.*.{ { *.*.*.*.5.>.*.*.*.*.",
"Y *.Y *.@.*.,.9.q.q.q.q.q.q.q.q.q.q.q.q.q.q.q.q.q.q.q.q.q.q.q.9.q.q.q.9.0.;.*.*.Y *.*.*.*.*.>.*.*.*.Y *.*.{ { { *.*.*.*.*.*.*.*.",
"*.*.*.*.*.*.3.q.q.q.q.q.q.q.q.q.q.q.q.q.q.q.q.q.q.q.q.q.q.q.q.q.q.q.q.q.,.*.@.@.*.*.*.*.*.*.Y *.*.*.*.*.*.{ *.*.*.*.*.*.*.*.*.*.",
"*.Y *.*.@.@.2.q.q.q.q.q.q.q.q.q.q.q.q.q.q.q.q.q.q.q.q.q.q.q.q.q.q.q.q.q.*.*.@.*.*.Y *.*.Y *.*.*.*.Y *.*.{ *.{ *.*.Y *.*.Y *.*.Y "
};
