/* XPM */
static char *fbe2f46d49dc4b48def2600c179e3c01U4jToledAefoJYFT[] = {
/* columns rows colors chars-per-pixel */
"64 64 226 2 ",
"   c #020607",
".  c #050C07",
"X  c #030708",
"o  c #060C0A",
"O  c #0A0C0C",
"+  c #130F0D",
"@  c #071009",
"#  c #09130A",
"$  c #0E1D0B",
"%  c #13110F",
"&  c #101E0D",
"*  c #060E12",
"=  c #0B0F11",
"-  c #071014",
";  c #0C1314",
":  c #0F1D10",
">  c #0A161B",
",  c #0B191E",
"<  c #131414",
"1  c #1A1712",
"2  c #121D11",
"3  c #131C1D",
"4  c #1D1D1D",
"5  c #2B1E16",
"6  c #241E1D",
"7  c #291F1D",
"8  c #0F200B",
"9  c #11220D",
"0  c #17280D",
"q  c #1B2E0E",
"w  c #1E330E",
"e  c #132512",
"r  c #152617",
"t  c #162915",
"y  c #1A2C13",
"u  c #162A1B",
"i  c #192E1A",
"p  c #1E3114",
"a  c #1C311B",
"s  c #21360F",
"d  c #27231C",
"f  c #2C211C",
"g  c #332418",
"h  c #36241A",
"j  c #39261A",
"k  c #3C291D",
"l  c #223513",
"z  c #293E13",
"x  c #253A18",
"c  c #3A371D",
"v  c #0C1B24",
"b  c #0F1F28",
"n  c #131E23",
"m  c #191E20",
"M  c #211F21",
"N  c #0E232B",
"B  c #162224",
"V  c #192425",
"C  c #162B23",
"Z  c #12232A",
"A  c #1A2629",
"S  c #142B2C",
"D  c #1C2B2C",
"F  c #1E3124",
"G  c #0E2739",
"H  c #0F2A3D",
"J  c #112730",
"K  c #142B34",
"L  c #1D2E31",
"P  c #142E39",
"I  c #163134",
"U  c #1D3134",
"Y  c #16313C",
"T  c #1C343C",
"R  c #242323",
"E  c #2C2522",
"W  c #2B2B26",
"Q  c #262B2B",
"!  c #322623",
"~  c #352924",
"^  c #3B2C24",
"/  c #362D28",
"(  c #26362B",
")  c #3A312A",
"_  c #3C322B",
"`  c #242E34",
"'  c #223234",
"]  c #293736",
"[  c #24353A",
"{  c #263A3C",
"}  c #283D3E",
"|  c #383A37",
" . c #422C1E",
".. c #422E22",
"X. c #482F20",
"o. c #443126",
"O. c #4C3324",
"+. c #44342A",
"@. c #4B3629",
"#. c #48382B",
"$. c #4D392C",
"%. c #513725",
"&. c #553926",
"*. c #593B27",
"=. c #533B2B",
"-. c #5B3E2A",
";. c #463A31",
":. c #513D30",
">. c #613F2A",
",. c #2D4513",
"<. c #2D4618",
"1. c #314A14",
"2. c #364B1A",
"3. c #3C551C",
"4. c #2A4327",
"5. c #374725",
"6. c #395223",
"7. c #2B433E",
"8. c #374C31",
"9. c #3E5133",
"0. c #4B431F",
"q. c #445E1C",
"w. c #46611B",
"e. c #514E22",
"r. c #5E402C",
"t. c #42413C",
"y. c #554335",
"u. c #5C4333",
"i. c #64432D",
"p. c #69462F",
"a. c #6A482F",
"s. c #634633",
"d. c #674934",
"f. c #654936",
"g. c #6D4B33",
"h. c #6B4D39",
"j. c #734D33",
"k. c #704F3A",
"l. c #7A5237",
"z. c #72513A",
"x. c #7B553B",
"c. c #4B6527",
"v. c #56722B",
"b. c #5B7728",
"n. c #496433",
"m. c #567334",
"M. c #637D2B",
"N. c #647F31",
"B. c #0F2C41",
"V. c #102E43",
"C. c #163542",
"Z. c #193643",
"A. c #173846",
"S. c #193946",
"D. c #16374A",
"F. c #1A3D4C",
"G. c #1A3E52",
"H. c #233C43",
"J. c #233A46",
"K. c #293E41",
"L. c #203F51",
"P. c #1B404F",
"I. c #1B4151",
"U. c #2C4345",
"Y. c #2F4947",
"T. c #24434D",
"R. c #2E4649",
"E. c #364748",
"W. c #324B4D",
"Q. c #3A524A",
"!. c #234552",
"~. c #254A56",
"^. c #2C4B53",
"/. c #2A4D59",
"(. c #334E51",
"). c #3C4E52",
"_. c #2D5252",
"`. c #365254",
"'. c #395456",
"]. c #33565C",
"[. c #395659",
"{. c #37595C",
"}. c #3C5B5D",
"|. c #3E605F",
" X c #365861",
".X c #3D5E61",
"XX c #3E5E61",
"oX c #3F6163",
"OX c #3F606A",
"+X c #4F5048",
"@X c #425757",
"#X c #7E5C49",
"$X c #4F6D46",
"%X c #4A6759",
"&X c #405C63",
"*X c #406364",
"=X c #426566",
"-X c #476467",
";X c #59736F",
":X c #607D77",
">X c #845A3C",
",X c #8A5E3E",
"<X c #8D603F",
"1X c #835C41",
"2X c #885F42",
"3X c #8D6242",
"4X c #8A624B",
"5X c #936443",
"6X c #966846",
"7X c #9B6A46",
"8X c #9D6D49",
"9X c #A06D47",
"0X c #A16E49",
"qX c #A5714B",
"wX c #AC764D",
"eX c #AF784F",
"rX c #B0784F",
"tX c #A87756",
"yX c #A57B60",
"uX c #67842E",
"iX c #758E2F",
"pX c #7D9936",
"aX c #739152",
"sX c #61817C",
"dX c #87A534",
"fX c #6C8C86",
/* pixels */
"I.I.I.I.I.I.I. XOXOXOXoXOXoXoXoX*X.X}.}.[.[.'.'.`.`.W.W.W.W.W.W.W.W.W.(.C.C.Y Z.C.S S S.S.A.S.F.F.F.F.P.P.I.I.I.I.I.I.I.I.I.I.I.",
"I.I.I.I.I.I.I. X=X=XoXoXoXoXoXoX.X}.}.[.[.`.`.W.W.W.W.W.Y.Y.R.R.W.W.R.Y.T Y P e 8 8 8 8 I Z.S.A.A.F.F.F.I.].]./.I.I.I.I.I.I.I.I.",
"I.I.I.I.P.I.P.e p oXoXP.oX|.oXoX}.[.[.(.`.W.W.Y.R.Y.U.{ 7.{ { 7.] U.U.U.{ P P r t 9 e 8 8 T Z.Z.Z.F.F.!.|.!.P.*XoXI.I.I.~.=X~.I.",
"I.I.I.I. X~.e 8 ,.6.oXP.{.P.P.|.[.'.(.[.;XU.& $ $ 9 9 0 9 9 9 9 e e e 9 e r S i i e u e 8 S.W.C.I I I {.}.!.P.*X*X].I.I.=X=X XI.",
"I.I $ 8 Y.oX8 8 x 4.}.P.{.F.F.`.`.`.W.%X-X$ 8 9 e e e 9 t 9 9 e 9 e 9 e e 9 e e t 9 9 $ S u 8 8 9 $ 8 8 e !.F.oXoXoXI.I.OX=X~.I.",
"T 8 8 8 8 ( 8 ,.iX$XoXP.|.`.`.`.W.W.R.Y.+X8 9 i i t e t t t t t 9 9 9 $ $ $ 8 # # $ 8 S 8 8 8 8 9 9 9 8 9 9 [.|.oXoXI.I. X=XI.I.",
"8 8 # # # 8 <.dXiXOX|.{.{.`.`.W.R.7.8 8 8 8 e t t e 9 i t t t i e # # # # $ # # # . # $ 8 : e 8 9 e e 9 $ 8 $ }.oX X{.oXI.I.I.I.",
"8 8 # $ # y $X%XoX.X}.|.'.`.' e 8 e e 8 8 8 t t t e t i t 9 8 9 # # . # @ # @ @ @ @ # 8 e t i i e t t t 9 $ 9 F oXI.oXoXI.I.I.I.",
"4.,.q y y l Q.*XoX.X-X:X( $ 8 9 t t a 9 8 t i i 8 8 i a t 8 8 8 : # # . . # . . . # # e t 8 i t 9 e u i e 9 8 8 |.|.*X*X~.P.I.I.",
"P.b.p q y h ^ oX}.{.:XQ.$ $ 9 0 i i i # $ # $ 8 $ 8 8 t e 8 : # # # $ $ & & & & & # & i t t t t 8 $ t i e e 9 $ `.|.oX*XoXoX].~.",
"=XpXpX+Xh h W oX}.[.:X( 8 8 9 8 t t : # # # # t $ # # 8 # # : # # $ e y 0 0 s l p w 9 y t t i 9 $ # # $ e e t 8 8 Y.`.oXoXI.oXoX",
"=X=X*X*X/ h ) {.{.'.;X%X$ 8 8 # $ # $ # # # # t : # # # @ # # 8 x <.Z c q.b.M.v.3.,.0 e t i a i # @ @ # i i e 9 8 8 8 8 |.I.I.OX",
"=X=X=XQ.W ! k c.y 9 ;X-X@XF & $ & & r ` 8 # # # # o # : # p <.c.8.Z d j e.iXN.8.' 1.s i y e i a @ . . @ # : 9 8 8 8 8 8 8 S.I.=X",
"=X=X=X| f h c 3.9 # E.Q.@X7.] Z Z b n m 9 9 $ @ @ @ : e w 3.v.k Z Z h h h j V L ' 1.y a i & 9 9 # . o o @ # 9 8 # @ # $ 8 e ~.=X",
"=X=XoXW f j z q q.2.Y.U.{ K [ R h 6 < + & e 9 # # . o l uX0.h h B Z h h j 7 Z Z ,.l 0 u 2 $ # # o : i t 9 e e 2 # # # # 8 9 {.oX",
"-X*X'.R g j y pXdXQ.K U.U R h h 6 g 7 1 < 9 # . o o l c %.h 7 h V V j h h b Z V 1.q 9 # # # # . o $ i i t : e $ # # @ # 8 8 oX=X",
"=X*X8.M f h 2.pX$XE.K K.W j j 7 h g j 5 1 % # . o & 2.5.g h h 7 f 4 h h g v N u 1.l e # # # @ . @ # t e e r r u t @ @ @ 8 8 oXoX",
"=X*X+Xh ..f [.(.Z.U.[ D O.o.! k f h j h x & & t p c.uXh h 6 7 h f V h h g v Z N 2.2.z 9 9 $ # o . # # e e t 8 : $ # @ # 8 ( oX=X",
"=X*X@X! %.~ ..| I K.[ -.^ @.O.d ~ h h h f c.c.b.uXiX .h h h 7 h j 7 j g Z Z Z Z D uXM.6.1 y $ $ # # # # # # # $ @ o . @ 8 `.*XoX",
"=X=X%XE >.>.~ =.i.| _ ^ r.-.E O. . .j h d W n.c.( A 7 6 7 h h 7 h g f h Z Z Z Z Z ( / h h 2.1.s # # # # @ O e t @   o # 8 oXoX*X",
"=XOXW.< ^ >.s.o.@.O...-.-.~ -.i.%. .W Z Z Z n E k h j h h 7 h h 6 h g b Z Z Z v ' ` g h j h w.1.s # # @ @ @ # @ @ . @ $ 8 .XoX*X",
"=X4.t e 6 ! / ^ ^ d @.h.s.p.i.i.i.O.Z Z Z Z h h h h g 7 7 7 7 g 7 h ! Z Z Z Z N ' ' h h h f M.c.1.9 # # @ @ . @ . @ # 8 8 }.oX*X",
"=Xe 0 $ $ 0 1X2Xk._ o.1XwXl.i.i.i.^ Z Z Z B h h h m m h j j h 6 h ..&.v Z B Z Z ` ` h h f f e.iXb.x 9 # # # @ . # # $ 8 8 `..X=X",
"*X|.2.2.M.b.E.E.) 4 f.rXrX>Xi.i.o.V n Z Z o. . .Z Z Z n j j  .! ! =.i.R Z Z Z B h h h g 7 j E j ] 4.F 9 $ . . . @ 8 8 l 3.}.}.*X",
"=X*X%XdXdXQ.W.R.` d h.rXrX5X=.+.=.Q Z Z Z =.s.*.Z Z v v v @.s.j.! %.d.d._ +.-.*.j h j 5 h 6 7 j ' ' ' 0 $ # . o # 9 c.m.n.}.*X*X",
"=XoX^.F.H R.W.F & W f.rXeX:.O.o.i.Z B Z N _ i.i.Z Z v v v ` +.j.j.:.8X7X1X1Xl.d.>.^ 5 h 6 7 h ..' V ' z 9 # # # x uXm.'.'.{.}.&X",
"=X{.B.H G 7.t $ : ) #XqXu.$.o.-.A Z Z v ) 4XtXi.o.v v v v ` D g.>Xh.s.0Xk.@.^ ~ ! ~ ! 6 h j =.! ` N S 1.,.$ # p n.Q.E.W.'.}.|.*X",
"=X*X^.B.u 9 & 9 2 ;.0X1X#.5X^ i.Z Z v / eXeX8XeXyXg v v v v v W X.i.=.R -.-.=.^ ! g h h ~ =.o.h D Z Z 4.,.q y c.7.U.Y.S.`.}.}.*X",
"=X*XoX}.t i 9 & r 0X7Xf.$.qX=.i.l.Q 7XeXrX3Xx.,XqXyXm v v v v b h i.%.f 6 7 j h k k h ..=.^ h Z Z Z Z 9.v.c.M.8.} U.W.C.Z.}.&X*X",
"=X*X|.W.a i # # %.rXj.#X+.wX-.! p.7XtXqX,X-.@.p.k tX..v v v b Z A  .>.O.j 7 ! O.=.=.s.$.~ R Z Z Z Z Z 8.pXdXuX[ K { R.Y Z.{.T.*X",
"=X*X.X(.t t # # s.rXk.0X+.eXs.@.~ f.l.3X>X@.+.p.h #XtXh v v b Z Z A ..*.=.i.*.-.=...E V Z Z b Z N B Z Z S L U [ Z S.R.C.S.[.F.}.",
"=X*X*X`.t @ @ & i.rX6X0Xh.:.9XwX7Xs.1X9Xf.! o.i.X.j tXs.7 v b b Z N R h j ~ h ! f V V ! ..k k V Z Z Z N Z Z S L P { W.`.`.T.F.oX",
"oXoXU.y e # # j i.wX3Xz.eX1X~ ;.#X2Xh.f.#X~ @.>.>.h ..tX..m E j h  .l.j.>X5X,X5Xi. .k j ..~ ! ! h b b R x Z S K K P T T.T.!.T.T.",
"I.].9 u e # $ O.i.0XeXd.wXrXqXs.! E ~ 7X3X@.@.d.j.h h h #X..h >.>X3X,X%. .j  .X.o.f.x.h.~ f ! E ^ ! z i 0 a K Z K P Y Z.Z.F.P.F.",
"I.Y $ # # : s  .s.p.rX2Xs.$.~ ^ %.s.i.i.l...d.~ 3X&.j h f >.5X0X,Xs.E ! ....6 6 7 7 h j.7X-.! h ^ ! h l a a C u r u N S A.A.F.P.",
"I.$ # o # <.1.k p.i.>.s.s.-.i.i.p.>.s.>.>.7 >.! >X5Xg...%.9XqXk.^ $.@.g.p.@.! ..%.k h h  .3X$.h f ^ E g x i y <.y 2 9 $ 8 B.B.P.",
"I.P.i z c.b.m.h >.i.i.i.i.i.i.i.>.=.*.=.>.E >.:.! >.2X5X7X1Xo.:.8XrXwX6X) R 7 +.:.f.i.h j  .l.f g d ! @.2 % $ $ $ @ $ 1.1.B.B.G.",
"I.I.P.Y.aXaXF.h j p.p.i.p.>.>. .j R Z b Z Z ^ >.%.! o.o.@.z.qXwXqX-.$.#X+.R M ~ +.^ l.g. .h &.%.g f ^ ^ & @ # @ @ 0 2.w.<.B.B.B.",
"I.I.I.}.fXsX@X;.h  .%. .j j h j Z Z Z Z Z Z R ~ >.j.3X0XqX0XrX5X~ +XrXrXqXM m M ) +.^ >Xl.h j >.7 g ~ o.y # # 0 l iXiX3.I B.V.V.",
"I.I.oXoXsX*X-X-Xh h h j j h h J Z Z b Z b b v ~ E @.5X6X5X=.E @.>.>X0XrXeXqX:.f.+.9X^ k ,X%.h O.%.f ^  .%.,.,.w.c.b.I H B.B.B.D.",
"I.{.oXoX=XoX|._.Y h h j g J S Z Z Z Z Z Z Z b m O.~ ~ ^ +.+.>.j.>.>.p.qXrXrXrXrXf.x.s.~ _ >Xh h %.g ~  .o.K I R.U.G H H B.B.B.I.",
"I.oX=X=XoXoX|.~.A.Z.Y Y P K } [ J Z Z Z Z Z Z Z h j >.j.j.j.>.>.X.>.j.>.rXrXrXrXf.u.i.-.E p.%.h O.h h  .O.K U.R.`.G H B.B.B.B.I.",
"/.OX=X=X*X*X{.P.A.A.C.Y P K } [ J Z Z Z Z Z Z Z v h h h h h j X.j j >.>.0XrXrXwXh.h.i.i.~ o. .h k h h k O.K E.W.W.H B.H V.V.G.I.",
"I..X=X=XI.~._.F.S.A.Z.C.Y P [ K.[ J [ ' S Z b b b 4 h ! h h h h h 5 %.p.j.wXrXwX:.%.i.i.o.^ p.i.h h j k ..U.W.T.Z.A.D.D.V.V.D.I.",
"I.].=X*XP.F.I.F.F.S.A.Z.C.P K U.7.U ] ' ` Z ' S b b v v v v v > v > >.>.p.p.i.@.-.i.i.i.O.+.i.p.9XwX7X=.&.R.J.Z.S.S.F.P.D.V.F.I.",
"I.I.~./.I.I.I.P.F.F.S.A.Z.C.P H.{ { ' ` D Z ' b b b v v v v v v v ^ p.>.X.h 7 7 j =.i.i.=.o.i.l.eXeXwX=.$.+.o.+./ ~ ^ U.P.D.I.I.",
"I.I.I.I.I.I.I.P.P.F.F.A.Z.T.U.U.} [ D D | y./ A v v > > > > v v E -.j h i.x.7XwXqXwXi.i.>.@.i.g.0XwX6Xi.s.>.>.=.=.@.%.y.!.I.I.I.",
"I.I.I.I.I.P.G.I.I.F.F.S.`.`.U.} D D ` rX,Xp.i.i.o.* * * * * * ^ k h h wXrXwX6X7XwXrXi.i.r.i.r.i.i.-.~ h h 7 6 f g g f ] S.F.I.I.",
"I.I.I.I.I.I.I.F.P.P.F.T.(.R.{ L , v eXj.-.j  .i.f.r.5X7Xj.>.>.j h h rXqX2X1X0XwXqX>Xj *.s.7X6X6X7X2X~ 5 f j j 5 + O o n K Z.G.G.",
"I.I.I.I.I.I.I.T.T.P.F.`.{ } ( D , _ j.j g O < =.+.h.h.x.i.&.j j h rX9X1X9XX.h h h h j O.i.0XeXrXrXrX5X%.f 7 7 5 X X X - Z P S.I.",
"I.I.I.I.I.I.P.F.T P { { ' [ A A 3 l.i.h * O ; 3XeXrXrX>X%.h j h 9X5X2XwX! f h h h h k >.i.p.9XrXrXrXqXwX9X*.h X + X X > S Y A.I.",
"I.I.I.I.I.P.S.C.Y.] U D D [ B B B i.O.h - ; qXeXwXg.%./ h j h =.6X3XtX;.@Xh h h 5 j =.i.i.i.>.-.-.s.f.z.3X2X>.O O + * v { W.A.I.",
"I.I.P.P.F.D.C.Y ] U Q D D D V B B i.O.h O 5XrX0Xd G.E ~ f h ..6X6XrX=.K.@Xh f h h %.K.u.i.i.g 7 7 g j %.s...o.-.i.i.r.E [ R.F.I.",
"I.I.F.A.Y Y.U.K [ D A C C V B B n -.i...1XwXk.7 h J.] &Xf h 5X3XrX3Xf ;.E.Q ! h h  .L.R.i.-.g g h f f f h h h f 6 d o.h h K S.P.",
"I.F.A.Y `.H.[ [ U D V V V B B r = + i._ wXf.s.h 7 J.}.E.h O.5XrX4X~ h ;.).L.K.j h *.=.J.-.i.h h h ! ] '.E f f f h g g f f [ F.P.",
"P.A.I G N D C A A C B V B B n > O X @.:.:.#.=.= O K `.- f =.wX1X../ / ).@X Xt.h j X.j [ + 1 g h j Q J.=XK.` ;.E 7 7 f f f W S.F.",
"A.I K J N S A V V V V m B 3 ; o O ; O 1X~ :.R O o o n O =.+X=.! h | ).K.@XL.` + 7 +       O   O h L.G..X/.J.[.B + O O h h h Z.P.",
"C.G J G K v v A V V V r B 3 ; * > J.1 s.:.J.g O X O < = s.-XE h 7 ! &X< < ` < O X X O   O o O X   b P  XG.* , N     O % h R C.I.",
"A.G N N v Z K ( V V Z V >.p.s.i.s.+X-./ @.L.f O O = < = +X+Xh ` J.h D = X O O X   X O # O o o X     X n X X X o   X O O B } F.I.",
"P.Y P J N N I A V V C i.p.*.@X'.~ ) h 7 7 J.[ * = 3 n 3 [  Xg [ D.O O ; X X O X * - r , > 3 ; * * X o b * o o * o o > B U T F.I.",
"P.S.A.Y I Y T [ A V +.i.j h ).=X) [ [ 1 6 4 S ; 3 A V B 3 D % = G.v o o O = ; n , , , > > , r N v > > > > > > > > , Z L Y A.I.I.",
"P.P.P.P.F.A.T.`.U.' ]  .5 < n =X[ - F.> O > r A [ W.7.[ ' ' D D C.C.3 V Q b b Z N N v v , v Z v v v v v , v v v Z N N P A.F.I.I.",
"I.I.P.P.I.I./.*X}.[.(.U.[ D A R.V V K L } U.W.W.[.{.[.`.}.}.}.{.`.(.[.}./.S.G.F.S.C.Y H H P P C.C.C.P H G I C.A.A.A.A.F.I.I.I.I.",
"I.I.I.P.I.I./.*X=X*X*X*X}. X'.'.`.'.[.}.oX&X*X*X*X*X=X*X=X=X=X=X=X*X=X=X!.I.I.G.I.P.P.P.P.P.G.P.P.P.P.P.P.F.F.F.P.P.I.I.I.I.I.I."
};
