/* XPM */
static char *_5e38b94afad42ecd5b42733e52667e77uY19NLfzLEfpt18[] = {
/* columns rows colors chars-per-pixel */
"32 32 99 2 ",
"   c #446733",
".  c #486734",
"X  c #466B35",
"o  c #4A6E36",
"O  c #4A6F38",
"+  c #4C7237",
"@  c #4D7339",
"#  c #517636",
"$  c #557B37",
"%  c #5A7B36",
"&  c #53753A",
"*  c #557B3D",
"=  c #597D3E",
"-  c #5B7F40",
";  c #5E8337",
":  c #5A813E",
">  c #618637",
",  c #658B37",
"<  c #698E37",
"1  c #61863B",
"2  c #658B3B",
"3  c #698E3A",
"4  c #6C9336",
"5  c #6E9933",
"6  c #6C933A",
"7  c #719636",
"8  c #739D35",
"9  c #799E36",
"0  c #71973A",
"q  c #739B3A",
"w  c #76A236",
"e  c #7CA537",
"r  c #7EA837",
"t  c #77A038",
"y  c #7BA43A",
"u  c #7EA938",
"i  c #5D8341",
"p  c #618643",
"a  c #648A41",
"s  c #648B42",
"d  c #678C42",
"f  c #618844",
"g  c #628944",
"h  c #658A45",
"j  c #648A46",
"k  c #668C46",
"l  c #678C46",
"z  c #668D46",
"x  c #668E46",
"c  c #678E47",
"v  c #688F43",
"b  c #6A8E47",
"n  c #6A8D48",
"m  c #6C8F48",
"M  c #699140",
"N  c #6B9140",
"B  c #6A9048",
"V  c #6C9148",
"C  c #6D9149",
"Z  c #6E9248",
"A  c #709441",
"S  c #719941",
"D  c #79A040",
"F  c #80A537",
"G  c #80A937",
"H  c #80A738",
"J  c #80A73C",
"K  c #80A938",
"L  c #81AA3B",
"P  c #81AC38",
"I  c #83AD39",
"U  c #82AC3B",
"Y  c #84AC39",
"T  c #84AF39",
"R  c #85AE3D",
"E  c #88AF3A",
"W  c #85B03A",
"Q  c #86B03A",
"!  c #86B13A",
"~  c #87B23B",
"^  c #8AB33B",
"/  c #8BB43B",
"(  c #8AB53B",
")  c #8BB53B",
"_  c #89B33C",
"`  c #8AB53C",
"'  c #8CB63C",
"]  c #8DB73C",
"[  c #8EB83C",
"{  c #8FB93D",
"}  c #90B63E",
"|  c #90BA3D",
" . c #91BB3D",
".. c #92BB3E",
"X. c #94BB3E",
"o. c #93BC3E",
"O. c #96BC3E",
"+. c #98BD3E",
"@. c #88AE40",
/* pixels */
"Q r I W 2 o @ i i & - * i i = f i = : i = = = i = & i 6 u _ u _ ",
"8 I 0 r q : i : i i p = f * * i X i * = = i f i i i @ > t w u Q ",
"Q @.t b : = i f l i n i = * i * p f i f l B f f f i = * : 6 W u ",
"t u 6 * & : i i i = = * @ = i i f = = * = i i i i = : * + @ M s ",
"* i @ = : : i & @ & l & i f * i = = = & - - i & @ * l @ & i : i ",
"i i i l v i * * i i i n l i l i = i f B l i * = i i i d f i f i ",
"i X i * i i i i p * * i & i - l i X i * i i i i i = * i & i i i ",
"* i i l i i i i O & @ * @ X X i = i i i i p i i O & @ @ = X X i ",
"i j i i i p i = l = = n i i B i = b i p i p i - l i i x = p n i ",
"* i i # = & & & * b C p i @ = i = i * & * * & & * j C i i * = i ",
"i i * i @ l i @ i * f l i * & i = i = i @ j i & i i i l i = @ i ",
"i i j i C n p - l l o * i n p * i i p j C n p * j i @ = i n i * ",
"j x i i i - * - * O @ & & i o : l l f p * - & - * @ & & * i O i ",
"i i i O * i * @ - a i B i @ i i = p i @ * i * X i i = x * @ i - ",
"i i - i i i i i i = i i j f l f i i i i i p i i i - a i B i l l ",
"j - i i * @ * @ = i i i @ = i * f * i i * @ * & * i i i @ : = * ",
"i = i i i i - i - * = * i i - i i * i i * = - i * @ i * - i : i ",
"X i * = & i i i i i i = i * * i + i * = * a f i i i i * f * = i ",
"i j i i l B f l x i B i i * i - i l i i l B f f n i B i = * i * ",
"i i i & * i i i i = = = @ - i i f = = * = : i i i - i = @ - i i ",
"= = * @ - - i & @ & x & i i - i = = * & i - i & @ * i & i f = i ",
"i i f n n i * * i i i x j i x i = i f n x i * - i f i f f i l i ",
"i X i = i i i i i * & i O i i i i X i * i i i i p = * i @ i = i ",
"= : i i i p i i @ & & & -   X i = i i f i i p i O & & & = X X i ",
"i i + i i i i i l i = B i i x i = b p f i p p - l - * i - i $ @ ",
"= @ + @ : @ X @ * f B i i = i i = i * @ = & & & & l j @ = @ X @ ",
"@ o + : X @ * $ i = i l i * @ i * i = i O l i * i i i @ @ * * : ",
"* * & + @ i i - n l @ & i l i - i i f p C n i * l = X X @ 1 2 , ",
"S q 2 @ X @ * i - X @ & & i @ i l l f f i @ * - & X X @ ; ; 4 u ",
"^ / 0 2 $ i @ X i i i f - @ i i = p i = = i *   + o = a > 2 I Q ",
"] Q u 4 $ @ @ i i - f i n i v i i i = i i i * @ @ o i l q y { { ",
"{ r I q O o * & = i a i @ i i : i & i i * @ * & @ $ 2 7 w ~ I I "
};
